<ttFont>
          <CharString index="0">
            2 -106 callgsubr
            return
          </CharString>
          <CharString index="1">
            -87 callsubr
            66 -71 callsubr
            return
          </CharString>
          <CharString index="2">
            -2 -106 callsubr
            return
          </CharString>
          <CharString index="3">
            5 3 -90 callgsubr
            return
          </CharString>
          <CharString index="4">
            hlineto
            -103 callgsubr
            return
          </CharString>
          <CharString index="5">
            -99 callgsubr
            endchar
          </CharString>
          <CharString index="6">
            565 360 callgsubr
            -48 -1 -45 vhcurveto
            -57 -37 -78 -25 -23 callgsubr
            24 callsubr
            return
          </CharString>
          <CharString index="7">
            215 callsubr
            3 -57 callsubr
            65 -65 6 -39 vhcurveto
            endchar
          </CharString>
          <CharString index="8">
            3 5 3 -87 callgsubr
            return
          </CharString>
          <CharString index="9">
            662 -104 callgsubr
            return
          </CharString>
          <CharString index="10">
            -91 callgsubr
            53 30 45 39 51 hhcurveto
            return
          </CharString>
          <CharString index="11">
            -98 callgsubr
            21 -3 return
          </CharString>
          <CharString index="12">
            -76 callgsubr
            164 -84 callsubr
          </CharString>
          <CharString index="13">
            -77 -11 callsubr
            -24 16 -17 272 callsubr
            18 38 46 43 22 -41 -41 -115 -106 -91 -132 -86 -83 42 76 -38 vhcurveto
            97 6 55 65 82 vvcurveto
            65 -30 272 callgsubr
            return
          </CharString>
          <CharString index="14">
            -85 callsubr
            21 -3 20 -6 18 vhcurveto
            35 16 34 19 34 193 callgsubr
            -2 -84 -2 -63 -66 -70 callsubr
            163 -105 callgsubr
          </CharString>
          <CharString index="15">
            rmoveto
            -96 callgsubr
            return
          </CharString>
          <CharString index="16">
            -88 callgsubr
            51 39 43 60 7 hvcurveto
            return
          </CharString>
          <CharString index="17">
            -3 -5 -1 -71 callgsubr
            return
          </CharString>
          <CharString index="18">
            115 callsubr
            hvcurveto
            -85 callsubr
            return
          </CharString>
          <CharString index="19">
            -84 callgsubr
            -67 callgsubr
            165 -107 callgsubr
            return
          </CharString>
          <CharString index="20">
            -93 callgsubr
            -67 return
          </CharString>
          <CharString index="21">
            -73 callgsubr
            -64 104 -235 166 66 51 42 73 65 return
          </CharString>
          <CharString index="22">
            -67 64 -48 79 83 vvcurveto
            61 33 48 60 25 23 -34 callgsubr
            44 51 14 51 34 return
          </CharString>
          <CharString index="23">
            -83 callgsubr
            endchar
          </CharString>
          <CharString index="24">
            50 -46 callsubr
            return
          </CharString>
          <CharString index="25">
            -104 callgsubr
            291 -86 callgsubr
            return
          </CharString>
          <CharString index="26">
            hhcurveto
            -94 callsubr
            -297 97 -63 callgsubr
            return
          </CharString>
          <CharString index="27">
            -63 callsubr
            198 hlineto
            13 -20 1 -41 -36 -156 -5 -91 -96 vvcurveto
            -42 3 -89 85 219 callgsubr
          </CharString>
          <CharString index="28">
            hlineto
            37 -32 35 -59 -66 vvcurveto
            -21 -4 -24 -10 -15 vhcurveto
            28 -15 -25 13 208 callgsubr
            62 47 44 88 76 -32 86 -53 55 hvcurveto
            return
          </CharString>
          <CharString index="29">
            -9 callsubr
            -56 -1 4 -65 vvcurveto
            -88 106 -111 117 187 callsubr
            vhcurveto
            -56 callsubr
            return
          </CharString>
          <CharString index="30">
            rmoveto
            415 callgsubr
            157 156 vlineto
            45 35 -1 -12 30 hvcurveto
            17 12 12 19 26 vvcurveto
            45 -35 16 377 callsubr
            186 242 hlineto
            46 35 -6 -15 29 hvcurveto
            19 12 12 392 callsubr
            -35 26 -94 vhcurveto
            -327 hlineto
            -40 -27 -16 -25 -20 hvcurveto
            21 -10 10 -18 -30 vvcurveto
            -469 vlineto
            -114 57 -47 120 vhcurveto
            214 hlineto
            86 35 37 47 24 -12 25 -19 13 hvcurveto
            -27 -29 -35 395 callgsubr
          </CharString>
          <CharString index="31">
            97 -104 callgsubr
            return
          </CharString>
          <CharString index="32" raw="1">
            450af738 060b  
          </CharString>
          <CharString index="33">
            rmoveto
            26 20 21 2 22 -8 23 51 -25 50 -52 1 -42 1 -28 -21 -37 -56 -72 -104 rcurveline
            13 -26 32 -3 29 23 rrcurveto
            return
          </CharString>
          <CharString index="34">
            332 callsubr
            30 63 394 callgsubr
            -1 -86 -2 -65 -66 -35 callgsubr
            162 -107 callgsubr
            endchar
          </CharString>
          <CharString index="35">
            -66 -98 callsubr
            return
          </CharString>
          <CharString index="36">
            -7 39 vhcurveto
            return
          </CharString>
          <CharString index="37">
            vvcurveto
            -42 3 -89 85 -97 callgsubr
            return
          </CharString>
          <CharString index="38">
            -1 rrcurveto
            1 5 1 -15 callgsubr
            -83 -54 -68 -72 return
          </CharString>
          <CharString index="39">
            rmoveto
            -33 callgsubr
            -263 vlineto
            -120 70 -57 110 66 52 32 52 33 vhcurveto
            -56 3 27 -28 51 hhcurveto
            35 24 151 callgsubr
          </CharString>
          <CharString index="40">
            rmoveto
            14 -6 -13 7 -17 hhcurveto
            -12 -14 -5 -12 -13 hvcurveto
            -88 -81 -89 81 rlineto
            12 -13 -14 5 -13 hhcurveto
            -15 -14 -7 -14 -6 hvcurveto
            71 -106 rlineto
            -40 27 21 -25 45 hhcurveto
            44 21 25 40 27 hvcurveto
            return
          </CharString>
          <CharString index="41">
            rmoveto
            -72 callgsubr
            return
          </CharString>
          <CharString index="42">
            39 callsubr
            -43 33 return
          </CharString>
          <CharString index="43">
            2 10 10 1 11 hhcurveto
            36 26 -12 427 callsubr
            9 4 18 13 vvcurveto
            49 -53 30 -66 return
          </CharString>
          <CharString index="44">
            -2 -93 callgsubr
            -62 56 -10 39 -2 vhcurveto
            0 vlineto
            13 -20 2 -42 -35 vvcurveto
            -38 -1 -32 -1 -29 vhcurveto
            -15 -19 -30 -12 -38 hhcurveto
            -42 -30 14 17 -26 hvcurveto
            23 21 23 33 50 vvcurveto
            106 -92 85 -108 -57 -58 -26 -49 -22 12 -22 23 -15 vhcurveto
            26 32 50 18 41 hhcurveto
            42 35 -18 -41 -25 -17 -32 -38 -25 hvcurveto
            9 -19 -22 7 -27 hhcurveto
            -37 -33 -21 -36 -53 57 -22 43 26 26 5 10 23 hvcurveto
            8 -5 26 -25 -40 vvcurveto
            -58 -46 -31 -53 -96 -71 84 76 -38 vhcurveto
            -13 -3 -21 -8 -29 vvcurveto
            -51 113 -167 158 101 55 61 79 19 -3 18 -7 18 vhcurveto
            -11 27 30 -6 31 hhcurveto
            12 15 2 3 15 hvcurveto
            -6 -46 -3 -49 -48 vvcurveto
            -69 21 -56 67 9 13 1 5 13 vhcurveto
            -11 16 -3 -17 callgsubr
            -3 -83 callsubr
            return
          </CharString>
          <CharString index="45">
            -3 -106 callsubr
            return
          </CharString>
          <CharString index="46">
            -57 callgsubr
            -70 -74 91 149 -51 vhcurveto
            return
          </CharString>
          <CharString index="47">
            7 -14 2 -14 -13 vvcurveto
            -37 -28 -24 -38 -5 vhcurveto
            -40 6 34 -25 34 hhcurveto
            53 27 37 47 39 -18 39 -28 32 hvcurveto
            27 19 17 28 39 vvcurveto
            47 -37 49 326 callgsubr
            -15 5 -15 7 -13 vhcurveto
            -9 -20 -22 -4 -24 hhcurveto
            -59 382 callgsubr
            -15 25 -18 18 vhcurveto
            147 -105 callgsubr
          </CharString>
          <CharString index="48">
            11 -24 8 -59 -53 vvcurveto
            -108 -23 -60 -56 -50 -18 43 54 -4 vhcurveto
            -2 32 0 33 33 vvcurveto
            -67 callgsubr
            -193 97 rmoveto
            -29 callgsubr
            return
          </CharString>
          <CharString index="49">
            1 -22 hhcurveto
            -87 -51 -41 -70 -90 89 -80 91 hvcurveto
            32 32 6 20 hhcurveto
            31 19 -18 -27 -45 -70 -28 248 callsubr
            40 -42 59 -26 hvcurveto
            -106 35 62 -105 96 hhcurveto
            46 34 27 39 22 -11 21 -18 13 hvcurveto
            -16 -18 -23 -5 -17 hhcurveto
            -53 -41 42 48 -27 hvcurveto
            -6 27 29 -3 29 hhcurveto
            98 74 54 86 return
          </CharString>
          <CharString index="50">
            11 10 vvcurveto
            return
          </CharString>
          <CharString index="51">
            -4 -27 -2 -28 -28 -53 callsubr
            return
          </CharString>
          <CharString index="52">
            rmoveto
            -48 -28 -30 -36 -12 3 -12 7 -11 hvcurveto
            8 20 20 4 19 hhcurveto
            79 69 -60 -68 54 hvcurveto
            16 5 3 11 9 vvcurveto
            48 -115 144 -99 vhcurveto
            return
          </CharString>
          <CharString index="53">
            -64 callsubr
            -85 -80 -54 -95 -115 116 -112 122 return
          </CharString>
          <CharString index="54">
            vvcurveto
            -58 20 -58 -25 callgsubr
            vvcurveto
            return
          </CharString>
          <CharString index="55">
            rmoveto
            -125 -72 114 168 -12 hvcurveto
            169 -11 57 126 125 hhcurveto
            127 72 -114 -169 10 hvcurveto
            -168 12 -57 -126 -126 hhcurveto
            305 289 rmoveto
            216 -102 157 -221 -217 -108 -159 -214 -216 108 -159 217 220 103 160 215 vhcurveto
            return
          </CharString>
          <CharString index="56">
            12 -20 1 -45 callsubr
            return
          </CharString>
          <CharString index="57">
            25 -31 18 -49 -47 vvcurveto
            -57 -32 -39 -48 -12 vhcurveto
            44 -10 -21 39 -39 hhcurveto
            -35 -18 -26 -30 return
          </CharString>
          <CharString index="58">
            hvcurveto
            5 17 3 18 10 callgsubr
            return
          </CharString>
          <CharString index="59">
            hlineto
            -11 callgsubr
            -53 64 -78 61 187 callgsubr
            vhcurveto
            return
          </CharString>
          <CharString index="60">
            vvcurveto
            -116 141 -96 107 123 55 67 53 44 -32 33 -42 2 vhcurveto
            -69 -13 -67 -48 -69 hhcurveto
            -59 -48 167 callgsubr
          </CharString>
          <CharString index="61">
            -33 24 vhcurveto
            return
          </CharString>
          <CharString index="62">
            -41 -36 -58 -1 -50 -44 vvcurveto
            -32 -22 callsubr
            return
          </CharString>
          <CharString index="63">
            32 callgsubr
            3 -20 1 -32 rrcurveto
            1 -57 0 -1 -73 vvcurveto
            -86 110 -117 112 return
          </CharString>
          <CharString index="64">
            -32 callgsubr
            49 return
          </CharString>
          <CharString index="65">
            -44 -22 -52 -20 -51 -11 rrcurveto
            -43 4 34 -31 50 hhcurveto
            42 103 52 94 78 hvcurveto
            -5 -26 -3 -27 -28 60 callsubr
            44 174 callgsubr
            -48 -35 -42 -56 -9 hvcurveto
            -12 -3 -14 -1 -15 1 rrcurveto
            -1 -5 -1 -4 -3 vvcurveto
            -40 34 -35 50 83 54 67 72 111 -103 101 -100 -43 -32 -19 -21 -21 vhcurveto
            3 18 1 18 18 vvcurveto
            30 -7 130 callsubr
            403 -105 callgsubr
          </CharString>
          <CharString index="66">
            rmoveto
            146 -9 45 54 70 hhcurveto
            69 49 -54 -146 9 hvcurveto
            -145 8 -43 -56 -70 hhcurveto
            -70 -50 56 145 -8 hvcurveto
            366 hmoveto
            178 -111 90 -138 -139 -111 -89 -179 -178 111 -91 139 138 111 91 178 vhcurveto
            return
          </CharString>
          <CharString index="67">
            51 -43 callsubr
            return
          </CharString>
          <CharString index="68">
            hhcurveto
            -93 -76 -46 -108 -36 callsubr
            63 39 return
          </CharString>
          <CharString index="69">
            16 -3 -31 callgsubr
          </CharString>
          <CharString index="70">
            11 vlineto
            -47 callgsubr
            206 vlineto
            86 20 56 43 49 139 callgsubr
            35 24 208 callsubr
            return
          </CharString>
          <CharString index="71">
            -14 callsubr
            -33 80 74 vvcurveto
            return
          </CharString>
          <CharString index="72">
            284 callgsubr
            -33 -26 195 callgsubr
            -9 10 -19 -29 vvcurveto
            -552 vlineto
            26 callsubr
            return
          </CharString>
          <CharString index="73">
            22 callsubr
            49 -14 -19 43 -45 hhcurveto
            return
          </CharString>
          <CharString index="74">
            -10 callgsubr
            -195 355 callsubr
            77 callgsubr
            213 callsubr
            return
          </CharString>
          <CharString index="75">
            -30 callgsubr
            64 2 return
          </CharString>
          <CharString index="76">
            hvcurveto
            60 1 -16 56 vvcurveto
            35 -1 -83 callsubr
            return
          </CharString>
          <CharString index="77">
            rmoveto
            -45 -37 42 100 -6 hvcurveto
            100 -7 35 42 45 hhcurveto
            45 36 -42 -100 6 hvcurveto
            -100 6 -34 -42 -44 hhcurveto
            111 -245 rmoveto
            33 14 -13 -20 -40 -54 -30 -111 -119 -45 38 69 -3 hvcurveto
            -42 -2 -40 -26 -49 vvcurveto
            -59 60 -67 168 165 113 80 110 78 -46 51 -102 vhcurveto
            -128 hlineto
            -59 -27 8 33 18 12 11 19 7 hvcurveto
            -8 23 25 -4 26 hhcurveto
            111 101 75 127 54 -19 45 -30 33 hvcurveto
            29 8 22 18 26 hhcurveto
            17 18 -6 -11 14 hvcurveto
            17 10 11 24 25 vvcurveto
            36 -27 35 -49 -50 -45 -44 -79 -6 vhcurveto
            21 -35 -41 11 -43 hhcurveto
            -112 -101 -75 -126 -73 33 -55 49 -35 hvcurveto
            -45 -22 -31 -31 -50 vvcurveto
            -87 88 -34 90 vhcurveto
            endchar
          </CharString>
          <CharString index="78">
            rmoveto
            88 -81 rlineto
            -12 13 14 -5 12 hhcurveto
            17 13 8 14 6 hvcurveto
            -71 105 rlineto
            40 -27 -21 25 -44 hhcurveto
            -45 -21 -25 -40 -27 hvcurveto
            -71 -105 rlineto
            -14 6 14 -8 15 hhcurveto
            13 14 5 12 13 hvcurveto
            return
          </CharString>
          <CharString index="79">
            86 callgsubr
            -4 15 -6 125 callgsubr
            return
          </CharString>
          <CharString index="80">
            28 13 21 156 callsubr
            37 139 callsubr
            13 14 vvcurveto
            55 29 32 26 17 vhcurveto
            -262 97 rmoveto
            72 callgsubr
            return
          </CharString>
          <CharString index="81">
            97 -69 callgsubr
            return
          </CharString>
          <CharString index="82">
            rmoveto
            -65 -65 -60 -82 -54 -58 32 67 77 67 35 64 34 vhcurveto
            76 -10 52 -48 -62 vvcurveto
            -435 409 269 callsubr
            -10 7 -13 -13 -81 -238 -2 -179 vvcurveto
            -117 132 -104 116 112 95 68 114 81 -59 87 -110 13 vhcurveto
            30 21 20 24 36 vvcurveto
            32 -18 25 -21 18 125 callsubr
          </CharString>
          <CharString index="83">
            565 360 callgsubr
            -49 -1 -45 vhcurveto
            -57 -38 -77 -24 -23 callgsubr
            24 callsubr
            return
          </CharString>
          <CharString index="84">
            -30 -28 -6 -25 153 callsubr
            27 140 callgsubr
            -446 -76 callsubr
            271 hlineto
            16 -11 9 -16 -14 vvcurveto
            -23 -23 -9 -30 vhcurveto
            -29 -22 -58 callsubr
            return
          </CharString>
          <CharString index="85">
            -27 -38 -21 -33 hhcurveto
            -58 -18 39 54 -31 callsubr
            return
          </CharString>
          <CharString index="86">
            -20 1 -41 -36 return
          </CharString>
          <CharString index="87">
            118 callsubr
            -66 -51 -47 -66 37 callgsubr
            vhcurveto
            -115 -218 -17 -77 vvcurveto
            return
          </CharString>
          <CharString index="88">
            -26 32 35 callgsubr
            166 callgsubr
            return
          </CharString>
          <CharString index="89">
            136 callgsubr
            -38 2 -37 -19 vvcurveto
            -109 11 124 -84 90 hhcurveto
            93 49 71 103 98 -40 79 -25 33 hvcurveto
            return
          </CharString>
          <CharString index="90">
            9 13 1 5 13 vhcurveto
            -10 16 -4 46 36 119 5 253 callgsubr
            -35 26 callgsubr
          </CharString>
          <CharString index="91">
            hlineto
            2 5 4 104 callgsubr
          </CharString>
          <CharString index="92">
            -93 callgsubr
            -59 49 -13 38 -2 vhcurveto
            return
          </CharString>
          <CharString index="93">
            -3 callsubr
            hvcurveto
            -54 63 return
          </CharString>
          <CharString index="94">
            vhcurveto
            -10 16 -4 46 36 vvcurveto
            return
          </CharString>
          <CharString index="95">
            62 -2 -83 44 -109 hhcurveto
            -110 -91 -67 -85 hvcurveto
            -145 283 -13 -91 vvcurveto
            -37 -35 -26 -60 -55 -33 22 32 16 5 14 11 11 vhcurveto
            18 -13 -22 9 -29 hhcurveto
            -38 -38 -26 -47 1 hvcurveto
            -72 2 93 -50 116 hhcurveto
            129 96 68 91 hvcurveto
            148 -284 14 89 vvcurveto
            return
          </CharString>
          <CharString index="96">
            -53 -54 -68 -83 59 -48 52 10 14 4 8 9 hvcurveto
            return
          </CharString>
          <CharString index="97">
            12 13 17 6 15 hhcurveto
            68 32 -106 -70 13 hvcurveto
            62 -51 -90 77 -88 hhcurveto
            -48 -42 -28 -50 -40 36 -32 37 hvcurveto
            33 8 27 19 33 hhcurveto
            return
          </CharString>
          <CharString index="98">
            8 callsubr
            -36 rrcurveto
            1 return
          </CharString>
          <CharString index="99">
            -110 100 -101 104 49 30 17 return
          </CharString>
          <CharString index="100">
            hhcurveto
            -110 -58 -62 -69 -55 41 -52 50 10 12 3 6 6 hvcurveto
            -8 11 -4 15 13 vvcurveto
            57 50 40 75 137 78 -86 -104 39 vhcurveto
            -121 -13 callgsubr
            46 hlineto
            4 -28 2 -28 -27 -163 -4 -95 -99 vvcurveto
            -42 3 -89 85 9 13 1 5 12 vhcurveto
            -10 180 callsubr
            123 4 128 123 vvcurveto
            return
          </CharString>
          <CharString index="101">
            rmoveto
            386 414 rlineto
            39 39 20 30 41 vvcurveto
            63 -55 42 -73 vhcurveto
            -284 hlineto
            -49 -40 3 11 -33 hvcurveto
            -13 -15 -9 -19 -22 vvcurveto
            -44 32 -39 118 67 110 6 17 106 vhcurveto
            -387 -413 rlineto
            -39 -38 -19 -31 -40 vvcurveto
            -64 55 -41 73 vhcurveto
            293 hlineto
            117 32 40 44 22 -9 24 -14 16 hvcurveto
            -30 -17 -36 -8 -49 -3 rrcurveto
            endchar
          </CharString>
          <CharString index="102">
            rmoveto
            -324 hlineto
            220 callsubr
            vhcurveto
            -122 -3 263 -167 hhcurveto
            -36 -30 -14 -23 -23 hvcurveto
            2 16 1 18 22 vvcurveto
            30 -6 32 -22 18 vhcurveto
            662 112 callgsubr
            -762 103 rmoveto
            12 -21 callsubr
            -58 -1 -49 -44 vvcurveto
            -33 -85 callgsubr
            65 1 66 2 67 vhcurveto
            42 28 37 43 43 103 11 -279 188 hhcurveto
            66 51 324 callsubr
            hvcurveto
            327 callsubr
            -2 -67 -68 245 callgsubr
            2 -104 callsubr
            -65 6 -39 vhcurveto
            endchar
          </CharString>
          <CharString index="103">
            -13 callgsubr
            59 -79 callsubr
            return
          </CharString>
          <CharString index="104">
            -124 109 -151 51 16 11 10 10 5 return
          </CharString>
          <CharString index="105">
            3 422 callgsubr
            -253 hlineto
            -2 -5 -2 -10 -7 vvcurveto
            -58 49 -17 43 17 21 4 5 19 vhcurveto
            -10 -17 -5 -19 -20 vvcurveto
            return
          </CharString>
          <CharString index="106">
            68 -19 callsubr
            return
          </CharString>
          <CharString index="107">
            -27 -6 7 -10 22 hhcurveto
            16 hlineto
            41 22 -17 -26 -29 -27 -17 -47 -49 -49 19 39 -28 hvcurveto
            -11 -7 -8 -13 -14 vvcurveto
            -43 65 -43 92 104 70 48 60 59 -51 28 -69 vhcurveto
            return
          </CharString>
          <CharString index="108">
            67 -26 33 35 callgsubr
            -11 10 -18 -30 vvcurveto
            -588 vlineto
            -48 callgsubr
            return
          </CharString>
          <CharString index="109">
            vvcurveto
            -105 111 -96 131 vhcurveto
            3 hlineto
            -72 -34 -87 -29 -71 -9 rrcurveto
            -53 1 40 -26 43 hhcurveto
            61 119 59 76 72 hvcurveto
            15 -18 9 -22 -19 vvcurveto
            -27 -16 -25 -33 -7 vhcurveto
            -31 13 30 -15 30 hhcurveto
            45 29 35 43 54 -42 48 -45 28 hvcurveto
            16 25 10 26 26 vvcurveto
            42 -26 43 -46 -37 -29 -29 -39 -18 6 -16 8 -15 vhcurveto
            -5 -16 -19 -3 -20 hhcurveto
            -65 -65 31 68 hvcurveto
            139 268 -30 125 363 callsubr
            147 -105 callgsubr
          </CharString>
          <CharString index="110">
            9 13 1 5 13 -95 callsubr
          </CharString>
          <CharString index="111">
            -18 3 -21 -58 vvcurveto
            return
          </CharString>
          <CharString index="112">
            rmoveto
            162 callgsubr
            251 callsubr
            -110 -7 7 hvcurveto
            -174 45 -55 callsubr
            return
          </CharString>
          <CharString index="113">
            -4 1 callgsubr
            4 122 117 vvcurveto
            return
          </CharString>
          <CharString index="114">
            -41 142 callsubr
            140 24 callsubr
            -14 34 -18 27 vhcurveto
            return
          </CharString>
          <CharString index="115">
            74 callgsubr
            -13 3 -20 1 return
          </CharString>
          <CharString index="116">
            359 callsubr
            -57 -1 -50 -1 -45 vhcurveto
            -56 -38 -76 -24 -57 hhcurveto
            -54 7 callsubr
            return
          </CharString>
          <CharString index="117">
            17 12 callgsubr
            return
          </CharString>
          <CharString index="118">
            hlineto
            8 callgsubr
            return
          </CharString>
          <CharString index="119">
            -81 callgsubr
            66 1 65 vhcurveto
            return
          </CharString>
          <CharString index="120">
            rmoveto
            43 40 40 44 34 -24 26 -36 -42 -42 -40 -43 -34 25 -27 36 hvcurveto
            -185 hmoveto
            44 40 40 44 34 -25 26 -36 -41 -42 -40 -43 -34 24 -27 36 hvcurveto
            return
          </CharString>
          <CharString index="121">
            hhcurveto
            -63 -33 -48 -53 -56 33 -58 50 9 349 callgsubr
            hvcurveto
            47 callsubr
            return
          </CharString>
          <CharString index="122">
            0 17 10 callsubr
            return
          </CharString>
          <CharString index="123">
            hhcurveto
            -51 -33 -34 -38 -39 31 -27 24 -7 hvcurveto
            27 13 26 20 30 hhcurveto
            39 23 -30 -34 -44 -37 -48 -70 -117 -65 133 90 -33 hvcurveto
            -17 -1 -21 -10 -31 vvcurveto
            -61 105 -220 180 return
          </CharString>
          <CharString index="124">
            51 callgsubr
            -50 0 -43 -1 -40 vhcurveto
            -49 4 callgsubr
            return
          </CharString>
          <CharString index="125">
            11 callsubr
            endchar
          </CharString>
          <CharString index="126">
            -47 7 callgsubr
            return
          </CharString>
          <CharString index="127">
            3 -104 callsubr
            return
          </CharString>
          <CharString index="128">
            hhcurveto
            -20 32 callsubr
            return
          </CharString>
          <CharString index="129">
            256 callsubr
            -70 -1 vhcurveto
            return
          </CharString>
          <CharString index="130" raw="1">
            7e0acb8d f7bb1d0b  
          </CharString>
          <CharString index="131">
            23 111 vvcurveto
            39 return
          </CharString>
          <CharString index="132">
            97 99 callgsubr
            return
          </CharString>
          <CharString index="133">
            -67 25 -33 57 70 callgsubr
            return
          </CharString>
          <CharString index="134">
            72 610 594 rmoveto
            82 -101 64 -154 -140 -125 -75 -124 vhcurveto
            -208 411 -5 -146 vvcurveto
            -65 -63 -43 -89 -91 -52 39 44 22 10 19 14 14 vhcurveto
            16 -17 -24 12 -31 hhcurveto
            -42 -42 -31 -53 -98 121 -68 154 151 130 87 128 hvcurveto
            212 -411 16 134 vvcurveto
            90 callsubr
            hvcurveto
            return
          </CharString>
          <CharString index="135">
            -104 callgsubr
            345 hlineto
            20 -10 15 -18 -18 vvcurveto
            -17 -13 -15 -29 vhcurveto
            -79 -40 1 -63 391 callsubr
            -46 27 -46 38 -36 hvcurveto
            -36 -37 -21 -49 -61 vvcurveto
            -157 156 -121 143 43 25 18 25 6 -2 10 -4 7 vhcurveto
            -3 -15 -16 -2 -16 hhcurveto
            -110 -105 75 109 100 83 64 98 38 30 -10 -17 22 hvcurveto
            -54 -53 -77 -65 -67 -27 rrcurveto
            -33 9 27 -20 36 hhcurveto
            49 92 71 66 26 hvcurveto
            2 -8 1 -9 -9 -28 -1 -22 -26 vvcurveto
            -36 2 -74 70 8 10 1 4 11 vhcurveto
            -9 14 -3 39 30 19 1 18 19 vvcurveto
            130 -137 110 -128 -51 -47 -12 -22 -39 vhcurveto
            -12 16 -8 17 19 402 callgsubr
            63 58 -1 65 hhcurveto
            68 35 38 45 32 -17 34 -28 26 344 callgsubr
          </CharString>
          <CharString index="136">
            rmoveto
            -5 -17 -17 -2 -16 hhcurveto
            -60 -50 32 59 58 callsubr
            return
          </CharString>
          <CharString index="137">
            vvcurveto
            -62 60 -42 87 84 57 41 38 9 -3 8 -5 7 vhcurveto
            -20 -30 -30 -7 -28 hhcurveto
            -29 -29 11 33 return
          </CharString>
          <CharString index="138">
            356 callgsubr
            -80 return
          </CharString>
          <CharString index="139">
            -21 2 5 -21 -49 callsubr
            return
          </CharString>
          <CharString index="140">
            -55 35 -52 51 8 349 callgsubr
            vhcurveto
            -10 13 -6 18 20 vvcurveto
            39 return
          </CharString>
          <CharString index="141">
            -54 -68 -72 -8 callsubr
            return
          </CharString>
          <CharString index="142">
            rmoveto
            -108 365 rlineto
            64 -18 -27 30 -48 hhcurveto
            -32 -26 -13 -23 -21 hvcurveto
            20 -15 8 -21 11 -34 111 -340 rcurveline
            18 -58 40 -35 45 2 -30 -87 rcurveline
            -39 -14 -26 -17 -28 hhcurveto
            -19 -18 8 13 -15 hvcurveto
            -9 -14 -7 -17 -19 vvcurveto
            -45 37 -34 59 61 48 35 89 33 vhcurveto
            201 535 rlineto
            84 32 -43 45 -55 hhcurveto
            -21 -21 -6 -10 -16 hvcurveto
            15 -21 1 -27 -13 -38 rrcurveto
            endchar
          </CharString>
          <CharString index="143">
            10 -11 5 -16 -16 return
          </CharString>
          <CharString index="144">
            vhcurveto
            -23 24 29 -16 35 hhcurveto
            48 28 328 callgsubr
            -21 178 callsubr
            -19 hvcurveto
            29 20 18 29 40 vvcurveto
            44 -31 43 -42 97 callgsubr
            207 -105 callgsubr
          </CharString>
          <CharString index="145">
            22 22 vvcurveto
            27 11 35 30 34 9 -49 -57 return
          </CharString>
          <CharString index="146">
            -90 callsubr
            125 hlineto
            -50 callsubr
            return
          </CharString>
          <CharString index="147">
            -53 -42 callgsubr
            return
          </CharString>
          <CharString index="148">
            -24 107 153 rmoveto
            -114 49 -39 121 vhcurveto
            157 hlineto
            82 36 42 47 19 -8 20 -18 9 hvcurveto
            -26 -21 -30 -14 -46 hhcurveto
            -127 hlineto
            415 callgsubr
            472 171 callsubr
            return
          </CharString>
          <CharString index="149">
            rrcurveto
            138 callgsubr
            98 -77 243 callgsubr
            -40 -55 -63 -85 72 -63 50 14 13 6 11 7 vhcurveto
            -34 19 -25 43 36 vvcurveto
            35 18 28 32 85 callsubr
            37 -12 -29 56 -50 hhcurveto
            return
          </CharString>
          <CharString index="150">
            -1 callgsubr
            62 9 14 1 5 12 57 callgsubr
            -65 6 -39 vhcurveto
            endchar
          </CharString>
          <CharString index="151">
            57 callgsubr
            -66 6 -39 vhcurveto
            endchar
          </CharString>
          <CharString index="152">
            -13 callgsubr
            263 hlineto
            17 -11 8 -17 -14 vvcurveto
            -19 -19 -12 -33 vhcurveto
            -27 -19 1 -20 hhcurveto
            -87 -51 -41 -70 -93 89 -81 91 hvcurveto
            32 32 5 20 hhcurveto
            31 19 -16 -24 -46 -70 -27 248 callsubr
            41 -41 58 -26 hvcurveto
            -106 35 61 -106 97 hhcurveto
            46 34 27 39 22 -11 21 -18 13 hvcurveto
            -16 -18 -23 -5 -17 hhcurveto
            -53 -41 42 48 -27 hvcurveto
            -6 27 29 -3 29 hhcurveto
            98 74 54 86 99 -89 70 -87 hvcurveto
            -26 -32 -7 -24 hhcurveto
            -32 -25 16 26 43 64 5 32 hvcurveto
            19 24 -1 21 hhcurveto
            74 33 38 46 29 -13 31 -26 26 hvcurveto
            174 -107 callgsubr
            return
          </CharString>
          <CharString index="153">
            rmoveto
            19 26 10 27 22 vvcurveto
            38 -31 27 -50 -29 -22 -8 -11 -23 vhcurveto
            24 -25 3 -35 -30 -38 -131 -184 rcurveline
            -130 221 rlineto
            47 -28 -29 33 -46 hhcurveto
            -39 -32 -20 -48 -15 hvcurveto
            25 -2 19 -13 17 -26 184 -311 rcurveline
            -1 -223 rlineto
            -69 30 -33 47 30 19 6 10 20 vhcurveto
            -11 17 -7 30 26 vvcurveto
            1 238 rlineto
            endchar
          </CharString>
          <CharString index="154">
            -10 15 -4 38 callsubr
            return
          </CharString>
          <CharString index="155">
            vhcurveto
            -16 -1 -22 -8 -33 vvcurveto
            -17 7 -29 14 -33 vhcurveto
            -19 -38 -28 -28 -31 -19 86 callsubr
            77 45 59 30 vhcurveto
            -65 47 66 -55 81 hhcurveto
            66 51 42 73 65 -41 50 return
          </CharString>
          <CharString index="156">
            123 callsubr
            -22 1 -22 hhcurveto
            -87 -51 -41 -70 -90 89 -80 91 hvcurveto
            32 32 6 20 hhcurveto
            31 19 -18 -27 -45 -70 -28 -63 -28 -34 6 12 -20 hvcurveto
            42 -11 -28 44 -41 hhcurveto
            return
          </CharString>
          <CharString index="157">
            rmoveto
            157 callgsubr
            hvcurveto
            251 callsubr
            -110 -7 7 hvcurveto
            17 8 10 12 16 144 callsubr
            vhcurveto
            return
          </CharString>
          <CharString index="158">
            205 callgsubr
            -249 172 91 callgsubr
            -17 -23 vvcurveto
            -54 35 -48 50 -33 vhcurveto
            -56 -19 -43 -29 -56 vvcurveto
            -105 150 -81 128 98 122 40 82 41 -34 29 -40 3 vhcurveto
            -66 -19 -88 -48 -92 hhcurveto
            -57 -73 22 42 hvcurveto
            96 370 -28 207 vvcurveto
            48 -1 53 -33 25 263 callsubr
          </CharString>
          <CharString index="159">
            rmoveto
            13 61 callsubr
            return
          </CharString>
          <CharString index="160">
            16 -3 68 callsubr
            return
          </CharString>
          <CharString index="161">
            99 callsubr
            0 -41 -36 return
          </CharString>
          <CharString index="162">
            rmoveto
            111 73 108 112 98 -57 91 -99 -112 -66 -112 -107 -101 54 -89 96 hvcurveto
            16 324 rmoveto
            39 23 -62 -61 -73 -29 -44 -35 -39 -24 61 61 69 26 49 39 hvcurveto
            -35 -582 rmoveto
            -12 -18 -22 -25 -11 -6 rrcurveto
            -31 17 22 -2 12 hhcurveto
            34 23 34 20 14 hvcurveto
            437 615 13 18 16 25 16 6 rlinecurve
            26 -16 -23 5 -13 hhcurveto
            -34 -26 -35 -16 -12 hvcurveto
            24 -697 rmoveto
            111 73 109 112 97 -57 92 -99 -112 -66 -113 -107 -101 54 -89 96 hvcurveto
            16 323 rmoveto
            39 23 -61 -61 -73 -29 -43 -35 -39 -24 60 62 68 26 48 39 hvcurveto
            endchar
          </CharString>
          <CharString index="163">
            rrcurveto
            159 -6 -83 127 -90 hhcurveto
            -30 -23 -11 -17 -16 hvcurveto
            24 -22 -40 3 -27 hhcurveto
            -314 -13 callgsubr
            275 83 callgsubr
            -36 -1 -29 -1 -23 vhcurveto
            -29 -2 -36 -7 -15 -26 rrcurveto
            60 -63 -85 37 -86 hhcurveto
            -94 -55 -47 -73 -92 callgsubr
            hvcurveto
            174 51 -160 94 hhcurveto
            271 callsubr
            hvcurveto
            122 hlineto
            return
          </CharString>
          <CharString index="164">
            -15 -23 -5 -25 -23 59 callgsubr
            -28 -34 vvcurveto
            return
          </CharString>
          <CharString index="165">
            170 callgsubr
            -214 297 rmoveto
            -62 callsubr
            return
          </CharString>
          <CharString index="166">
            -33 -31 -46 -26 -62 hhcurveto
            -74 -62 55 116 121 60 74 60 37 18 -25 -33 -7 -1 -11 -2 -8 hvcurveto
            -10 14 19 -7 22 hhcurveto
            39 31 24 44 return
          </CharString>
          <CharString index="167">
            -41 callgsubr
            53 30 return
          </CharString>
          <CharString index="168">
            -20 1 22 callgsubr
            return
          </CharString>
          <CharString index="169">
            64 callsubr
            53 return
          </CharString>
          <CharString index="170">
            -45 callgsubr
            endchar
          </CharString>
          <CharString index="171">
            0 callgsubr
            -690 -76 callsubr
            510 250 callsubr
            99 -31 -68 7 -210 hhcurveto
            -107 -60 -42 -77 -92 callgsubr
            hvcurveto
            123 hlineto
            15 12 1 2 10 hvcurveto
            348 callgsubr
            -19 rrcurveto
            85 callgsubr
            return
          </CharString>
          <CharString index="172">
            hhcurveto
            -16 -20 62 callgsubr
            return
          </CharString>
          <CharString index="173">
            70 callsubr
            -598 hlineto
            -80 callgsubr
            return
          </CharString>
          <CharString index="174">
            -71 rmoveto
            74 callsubr
            return
          </CharString>
          <CharString index="175">
            -75 callgsubr
            166 hlineto
            2 5 return
          </CharString>
          <CharString index="176">
            vlineto
            -1 callsubr
            return
          </CharString>
          <CharString index="177">
            rmoveto
            -99 callsubr
            return
          </CharString>
          <CharString index="178">
            34 30 21 45 49 23 -25 -27 1 vhcurveto
            -8 -2 -9 -3 -9 vhcurveto
            -13 17 21 -7 20 hhcurveto
            36 30 22 42 -1 hvcurveto
            return
          </CharString>
          <CharString index="179">
            405 callsubr
            327 callsubr
            -2 -67 -68 vvcurveto
            -42 3 -89 85 9 13 1 5 12 vhcurveto
            -10 16 -3 46 36 119 4 -100 callsubr
          </CharString>
          <CharString index="180">
            -50 63 9 13 1 5 13 -13 callsubr
            return
          </CharString>
          <CharString index="181">
            0 callsubr
            -10 hlineto
            return
          </CharString>
          <CharString index="182">
            565 rmoveto
            -62 callgsubr
            return
          </CharString>
          <CharString index="183">
            rcurveline
            -64 callsubr
            -85 -80 -54 -95 return
          </CharString>
          <CharString index="184">
            rmoveto
            -43 -27 3 13 -28 hvcurveto
            -12 -13 -10 -20 -17 vvcurveto
            -36 17 -28 64 vhcurveto
            140 -541 hlineto
            26 callsubr
            544 101 vlineto
            44 28 -4 -13 27 hvcurveto
            300 callsubr
            -17 29 -64 vhcurveto
            endchar
          </CharString>
          <CharString index="185">
            45 callgsubr
            200 callgsubr
            13 -3 14 15 vvcurveto
            57 37 47 64 vhcurveto
            return
          </CharString>
          <CharString index="186">
            284 callgsubr
            -34 -26 195 callgsubr
            -9 10 -19 -29 vvcurveto
            return
          </CharString>
          <CharString index="187">
            144 callgsubr
            -58 0 -2 -81 vvcurveto
            return
          </CharString>
          <CharString index="188">
            565 rmoveto
            11 -24 8 -59 -53 vvcurveto
            -108 -23 -60 -56 -50 -18 43 54 -4 vhcurveto
            -2 32 0 33 33 vvcurveto
            -67 callgsubr
            return
          </CharString>
          <CharString index="189">
            63 200 callsubr
            11 96 callsubr
          </CharString>
          <CharString index="190">
            rmoveto
            115 59 45 45 29 -29 18 -32 -16 -16 -3 -3 -11 hvcurveto
            -58 -24 -27 -46 -44 -25 27 58 vhcurveto
            3 -11 -16 3 -16 hhcurveto
            -33 -28 -18 -29 -45 59 -45 114 hvcurveto
            return
          </CharString>
          <CharString index="191">
            -101 27 53 -148 103 285 callsubr
            return
          </CharString>
          <CharString index="192">
            42 23 -51 -50 -103 -68 -61 -87 -1 vhcurveto
            return
          </CharString>
          <CharString index="193">
            -129 153 rcurveline
            -54 callsubr
            86 return
          </CharString>
          <CharString index="194">
            -67 26 -33 56 34 25 return
          </CharString>
          <CharString index="195">
            -103 38 88 -83 46 hhcurveto
            209 callsubr
            5 hvcurveto
            -67 64 -47 79 83 vvcurveto
            61 32 48 61 25 23 -10 -13 15 vhcurveto
            -12 -22 -13 409 callgsubr
            21 -3 20 -6 18 vhcurveto
            35 16 33 19 34 hhcurveto
            19 19 -4 -7 16 hvcurveto
            -2 -83 399 callsubr
            12 vhcurveto
            -10 16 -3 -75 callgsubr
            162 18 callsubr
          </CharString>
          <CharString index="196">
            -10 callsubr
            55 62 -54 -45 43 hvcurveto
            return
          </CharString>
          <CharString index="197">
            57 57 32 78 85 40 -43 -37 -10 -2 -14 -5 -12 vhcurveto
            -13 20 23 -6 25 hhcurveto
            38 32 27 46 return
          </CharString>
          <CharString index="198">
            hvcurveto
            177 -105 callgsubr
          </CharString>
          <CharString index="199">
            12 callgsubr
            -585 -76 callsubr
            396 hlineto
            178 callgsubr
            -29 -2 -33 -6 -16 -23 rrcurveto
            58 -54 -74 36 -74 hhcurveto
            -94 -55 -47 -73 -92 callgsubr
            hvcurveto
            156 46 -160 84 hhcurveto
            37 19 30 65 8 hvcurveto
            return
          </CharString>
          <CharString index="200">
            -33 87 callgsubr
            return
          </CharString>
          <CharString index="201">
            rrcurveto
            -49 callgsubr
            -3 15 -6 389 callsubr
            -85 -35 64 72 -22 hvcurveto
            1 hlineto
            54 48 22 37 32 hvcurveto
            -27 49 62 354 callgsubr
            18 1 3 15 hvcurveto
            -1 -44 -1 -40 -40 245 callgsubr
            20 callsubr
            -65 6 -39 vhcurveto
            endchar
          </CharString>
          <CharString index="202">
            hlineto
            15 -11 8 -14 -13 vvcurveto
            -21 -16 -12 return
          </CharString>
          <CharString index="203">
            147 callgsubr
            4 -87 callgsubr
            endchar
          </CharString>
          <CharString index="204">
            74 hhcurveto
            106 68 63 74 8 hvcurveto
            -23 23 29 -15 35 hhcurveto
            49 320 callsubr
            -20 hvcurveto
            30 20 18 29 40 vvcurveto
            44 -31 43 -43 -38 -30 -29 -40 -14 3 -13 5 -12 vhcurveto
            -11 -26 -30 -4 -32 hhcurveto
            -58 -76 20 63 hvcurveto
            126 318 230 callgsubr
            207 -84 callsubr
          </CharString>
          <CharString index="205">
            -104 callgsubr
            76 hlineto
            30 -27 25 -41 -46 vvcurveto
            -20 -4 -23 -10 -14 vhcurveto
            27 -15 -25 14 208 callgsubr
            60 49 42 83 66 -30 66 -45 46 hvcurveto
            return
          </CharString>
          <CharString index="206">
            154 callsubr
            -20 return
          </CharString>
          <CharString index="207">
            -108 63 -51 172 211 173 125 248 250 -173 125 -211 -96 -78 -16 -29 -83 vhcurveto
            16 -24 7 -31 -35 vvcurveto
            return
          </CharString>
          <CharString index="208">
            rmoveto
            25 17 -17 -41 4 hvcurveto
            -41 4 -15 -16 -25 hhcurveto
            -25 -18 16 41 -3 hvcurveto
            41 -5 17 17 24 hhcurveto
            5 return
          </CharString>
          <CharString index="209">
            383 123 rmoveto
            -31 -19 -34 -18 -38 hhcurveto
            -71 -52 57 125 129 59 68 72 33 30 -12 -21 20 hvcurveto
            129 255 rmoveto
            386 callsubr
            -18 vhcurveto
            21 -11 10 -18 -30 vvcurveto
            -166 vlineto
            10 -27 -33 5 -31 hhcurveto
            -154 -101 -122 -161 -163 104 -91 119 48 50 21 35 30 hvcurveto
            -38 10 25 -18 42 hhcurveto
            270 callgsubr
            hvcurveto
            20 callgsubr
            return
          </CharString>
          <CharString index="210">
            40 27 19 29 10 -3 8 -4 4 hvcurveto
            return
          </CharString>
          <CharString index="211">
            -43 -38 -75 -48 -86 hhcurveto
            -129 -90 74 193 188 97 98 98 76 34 -47 -70 -11 hvcurveto
            -11 19 22 -4 19 hhcurveto
            49 42 21 53 return
          </CharString>
          <CharString index="212">
            124 callgsubr
            -42 -52 23 -49 hhcurveto
            return
          </CharString>
          <CharString index="213">
            hvcurveto
            80 callgsubr
            return
          </CharString>
          <CharString index="214">
            hvcurveto
            135 callgsubr
            return
          </CharString>
          <CharString index="215">
            -56 33 -58 325 callsubr
            -10 15 -5 38 callsubr
            -37 return
          </CharString>
          <CharString index="216">
            hhcurveto
            -41 248 callgsubr
            0 4 3 vvcurveto
            40 return
          </CharString>
          <CharString index="217">
            662 rmoveto
            -62 callsubr
            return
          </CharString>
          <CharString index="218">
            565 70 callsubr
            return
          </CharString>
          <CharString index="219">
            -2 -93 callgsubr
            -68 66 373 callgsubr
            -56 -7 -7 1 1 -7 vhcurveto
            46 -14 -20 26 -35 hhcurveto
            -31 -20 -27 -28 -49 39 -33 46 -19 hvcurveto
            -80 28 56 -120 105 hhcurveto
            49 20 34 29 15 -4 16 -7 12 hvcurveto
            -5 -15 -16 -1 -15 hhcurveto
            -59 -47 31 53 -29 hvcurveto
            -1 6 6 0 6 hhcurveto
            84 73 53 89 47 -22 46 -34 36 hvcurveto
            return
          </CharString>
          <CharString index="220">
            -18 callsubr
            188 hlineto
            13 -20 1 -41 -36 -156 132 callgsubr
            35 -2 50 -33 24 vhcurveto
            164 -107 callgsubr
            endchar
          </CharString>
          <CharString index="221">
            hlineto
            210 callgsubr
            return
          </CharString>
          <CharString index="222">
            209 callsubr
            6 return
          </CharString>
          <CharString index="223">
            662 rmoveto
            -3 -5 return
          </CharString>
          <CharString index="224">
            526 565 rmoveto
            -107 callsubr
            -480 hlineto
            -90 callsubr
            return
          </CharString>
          <CharString index="225">
            hvcurveto
            44 193 23 144 vvcurveto
            103 -85 86 -85 return
          </CharString>
          <CharString index="226">
            hhcurveto
            -49 -41 27 46 28 13 21 156 callsubr
            37 139 callsubr
            13 14 vvcurveto
            55 29 32 26 17 vhcurveto
            return
          </CharString>
          <CharString index="227">
            hlineto
            129 callgsubr
            return
          </CharString>
          <CharString index="228">
            hhcurveto
            79 callgsubr
            64 58 -94 -65 33 hvcurveto
            return
          </CharString>
          <CharString index="229">
            363 callgsubr
            -57 -1 -49 -1 -45 vhcurveto
            -15 -30 -21 -26 -25 -19 return
          </CharString>
          <CharString index="230">
            hlineto
            16 -11 9 -16 -14 vvcurveto
            -23 -23 -9 -30 vhcurveto
            -29 return
          </CharString>
          <CharString index="231">
            29 14 20 18 14 203 callsubr
            15 hhcurveto
            36 return
          </CharString>
          <CharString index="232">
            vhcurveto
            232 -84 callsubr
          </CharString>
          <CharString index="233">
            -52 callgsubr
            -87 hmoveto
            401 callsubr
            rrcurveto
            return
          </CharString>
          <CharString index="234">
            -67 26 -33 56 70 callgsubr
            return
          </CharString>
          <CharString index="235">
            -26 callgsubr
            37 31 hvcurveto
            return
          </CharString>
          <CharString index="236">
            8 14 1 5 12 vhcurveto
            -10 16 -3 46 36 119 4 122 286 callsubr
          </CharString>
          <CharString index="237">
            31 -21 18 vhcurveto
            return
          </CharString>
          <CharString index="238">
            13 -21 callgsubr
            -53 -1 -47 -1 -43 vhcurveto
            -64 -30 -54 -43 161 callsubr
            return
          </CharString>
          <CharString index="239">
            -40 callsubr
            -51 29 -60 return
          </CharString>
          <CharString index="240">
            55 -26 -57 32 -62 hhcurveto
            -98 -60 -75 -82 -99 89 -111 107 66 38 39 49 27 hvcurveto
            return
          </CharString>
          <CharString index="241">
            rrcurveto
            16 15 callsubr
            return
          </CharString>
          <CharString index="242">
            -21 159 callsubr
            return
          </CharString>
          <CharString index="243">
            -16 -22 -17 vhcurveto
            20 return
          </CharString>
          <CharString index="244">
            74 callgsubr
            -12 3 -20 1 -31 rrcurveto
            1 -56 -1 2 -69 vvcurveto
            -62 53 -76 76 -36 vhcurveto
            -53 -28 -58 -23 -47 -10 rrcurveto
            -44 313 callgsubr
            33 100 41 98 93 hvcurveto
            -6 -31 -2 -32 -32 -53 callsubr
            return
          </CharString>
          <CharString index="245">
            rmoveto
            -7 -17 -19 -3 -20 hhcurveto
            -54 -48 37 55 170 callgsubr
            return
          </CharString>
          <CharString index="246">
            418 callgsubr
            -28 200 callgsubr
            13 -3 return
          </CharString>
          <CharString index="247">
            155 callgsubr
            52 31 45 41 54 hhcurveto
            return
          </CharString>
          <CharString index="248">
            -48 -69 hhcurveto
            -60 -47 167 callgsubr
          </CharString>
          <CharString index="249">
            25 28 hvcurveto
            42 return
          </CharString>
          <CharString index="250">
            753 65 callgsubr
            return
          </CharString>
          <CharString index="251">
            vvcurveto
            48 -148 126 -66 return
          </CharString>
          <CharString index="252">
            449 rmoveto
            25 -28 -34 17 -43 hhcurveto
            -94 callsubr
            346 hlineto
            16 371 callsubr
            return
          </CharString>
          <CharString index="253">
            hvcurveto
            44 194 23 144 vvcurveto
            103 -86 86 -84 -44 -37 -20 -33 -20 vhcurveto
            43 -14 -53 4 -34 hhcurveto
            -518 -13 callgsubr
            501 hlineto
            -3 303 callsubr
            -55 35 -52 325 callsubr
            -11 13 -5 18 20 vvcurveto
            39 26 38 39 34 17 -27 -26 return
          </CharString>
          <CharString index="254">
            -5 -29 -4 154 callgsubr
            return
          </CharString>
          <CharString index="255">
            293 callgsubr
            -47 190 callsubr
            -7 8 -17 388 callgsubr
            12 364 callgsubr
            -137 -80 -67 40 66 33 17 23 23 16 vhcurveto
            -7 17 19 -3 19 hhcurveto
            37 38 19 38 40 return
          </CharString>
          <CharString index="256">
            rmoveto
            -18 -9 -5 -14 -13 vvcurveto
            -53 100 -79 125 74 98 37 73 35 -30 26 -29 3 vhcurveto
            -62 -29 -64 -26 -59 hhcurveto
            -64 -58 27 55 -41 hvcurveto
            endchar
          </CharString>
          <CharString index="257">
            147 callsubr
            13 vhcurveto
            return
          </CharString>
          <CharString index="258">
            20 vvcurveto
            30 -7 130 callsubr
            return
          </CharString>
          <CharString index="259">
            -105 callsubr
            39 136 callgsubr
            -156 -4 -91 -96 vvcurveto
            -42 3 -89 85 9 13 1 5 12 -99 callgsubr
            return
          </CharString>
          <CharString index="260">
            hhcurveto
            -32 -25 13 26 41 64 5 32 hvcurveto
            21 return
          </CharString>
          <CharString index="261">
            565 rmoveto
            13 return
          </CharString>
          <CharString index="262">
            vvcurveto
            -51 -36 -34 -55 -7 -7 1 1 -7 vhcurveto
            45 -15 -19 27 -36 hhcurveto
            -31 -20 -27 -28 -49 40 -34 46 -18 hvcurveto
            -81 27 56 -119 106 hhcurveto
            49 19 34 29 15 -4 16 -6 12 228 callsubr
            -15 hhcurveto
            -60 -46 31 53 -29 hvcurveto
            -1 6 6 0 6 hhcurveto
            83 73 53 89 return
          </CharString>
          <CharString index="263">
            189 callsubr
            39 19 return
          </CharString>
          <CharString index="264">
            196 callgsubr
            vvcurveto
            return
          </CharString>
          <CharString index="265">
            -35 -34 -17 -27 -24 vhcurveto
            26 -31 -40 16 -38 hhcurveto
            -59 -54 -36 -83 -95 84 -119 40 11 9 6 8 3 hvcurveto
            -40 51 -25 63 54 vvcurveto
            47 21 38 49 19 16 -8 -9 13 vhcurveto
            -8 -15 -9 -23 -28 vvcurveto
            -32 17 -35 34 35 11 35 22 16 -3 15 -4 14 vhcurveto
            33 16 return
          </CharString>
          <CharString index="266">
            10 -9 18 30 vvcurveto
            return
          </CharString>
          <CharString index="267">
            -41 callsubr
            endchar
          </CharString>
          <CharString index="268">
            84 callgsubr
            49 return
          </CharString>
          <CharString index="269">
            12 38 26 5 40 hhcurveto
            145 104 -105 -180 -179 -104 -104 -145 -89 -16 23 39 hvcurveto
            return
          </CharString>
          <CharString index="270">
            1 134 callsubr
            return
          </CharString>
          <CharString index="271">
            hlineto
            130 callgsubr
            return
          </CharString>
          <CharString index="272">
            4 callsubr
            -57 -1 return
          </CharString>
          <CharString index="273">
            324 callsubr
            hvcurveto
            327 callsubr
            -3 -67 -68 vvcurveto
            -42 3 -89 85 9 13 1 5 13 96 callgsubr
          </CharString>
          <CharString index="274">
            -46 -40 -28 -43 -38 27 -24 29 -12 hvcurveto
            24 10 23 15 27 hhcurveto
            54 54 -29 -36 42 hvcurveto
            -69 -80 -96 -61 -55 hhcurveto
            -60 46 -20 35 return
          </CharString>
          <CharString index="275">
            -104 callgsubr
            581 250 callgsubr
            -51 -31 -46 -38 -51 109 callsubr
            -34 36 -50 return
          </CharString>
          <CharString index="276">
            -1 -7 -3 -8 -8 -9 rrcurveto
            -18 -8 -22 -15 -27 hhcurveto
            -33 -22 24 27 36 33 31 57 hvcurveto
            return
          </CharString>
          <CharString index="277">
            267 callgsubr
            -65 -72 -31 -56 -32 vhcurveto
            -30 -53 -41 -35 -77 65 callsubr
            return
          </CharString>
          <CharString index="278">
            vlineto
            79 callsubr
            return
          </CharString>
          <CharString index="279">
            -41 -36 vvcurveto
            -39 0 -34 -1 -32 vhcurveto
            -19 -35 return
          </CharString>
          <CharString index="280">
            vhcurveto
            135 callsubr
            return
          </CharString>
          <CharString index="281">
            -7 -20 vvcurveto
            -59 140 -104 return
          </CharString>
          <CharString index="282">
            419 rmoveto
            17 -25 -30 10 -32 hhcurveto
            -45 -42 -20 -32 -30 hvcurveto
            37 -42 -53 23 -49 hhcurveto
            -54 -45 -21 -44 -30 hvcurveto
            -48 -33 -22 -92 -77 hhcurveto
            -56 -19 48 45 -10 callgsubr
            702 363 callgsubr
            return
          </CharString>
          <CharString index="283">
            42 -2 89 -85 -9 -14 -1 -5 -12 vhcurveto
            13 -21 callsubr
            -244 -6 -79 -116 vvcurveto
            -42 3 -89 85 9 13 1 4 return
          </CharString>
          <CharString index="284">
            34 -26 19 -46 -47 22 callsubr
            return
          </CharString>
          <CharString index="285">
            12 hvcurveto
            -13 -8 -18 -13 -25 hhcurveto
            -32 -27 20 24 return
          </CharString>
          <CharString index="286">
            hhcurveto
            -92 -65 -62 -104 return
          </CharString>
          <CharString index="287">
            16 -3 46 36 return
          </CharString>
          <CharString index="288">
            -52 callgsubr
            -191 97 rmoveto
            8 callsubr
            return
          </CharString>
          <CharString index="289">
            -26 hvcurveto
            39 -42 -54 24 -50 179 callsubr
            -140 229 callsubr
            60 -89 callsubr
            return
          </CharString>
          <CharString index="290">
            hhcurveto
            -107 -60 -42 -77 return
          </CharString>
          <CharString index="291">
            75 callgsubr
            72 85 -94 -43 38 hvcurveto
            35 9 3 28 31 return
          </CharString>
          <CharString index="292">
            rmoveto
            11 -18 3 -29 -54 vvcurveto
            -19 -5 -17 -10 -14 vhcurveto
            -97 72 -88 59 -70 20 rrcurveto
            return
          </CharString>
          <CharString index="293">
            212 callgsubr
            1 65 2 64 vhcurveto
            return
          </CharString>
          <CharString index="294">
            23 20 5 8 18 return
          </CharString>
          <CharString index="295">
            rmoveto
            40 25 32 40 38 18 -31 -28 -47 -28 -35 -40 -26 vhcurveto
            -32 26 -21 31 38 vvcurveto
            259 138 rmoveto
            -2 339 callgsubr
            -55 -1 -45 -1 -40 vhcurveto
            -47 10 return
          </CharString>
          <CharString index="296">
            18 13 203 callsubr
            16 hhcurveto
            36 return
          </CharString>
          <CharString index="297">
            -17 -24 -53 -47 vvcurveto
            -74 48 -63 36 9 7 5 5 3 vhcurveto
            return
          </CharString>
          <CharString index="298">
            393 callgsubr
            3 -89 85 9 13 1 5 return
          </CharString>
          <CharString index="299">
            23 18 vhcurveto
            20 callgsubr
            return
          </CharString>
          <CharString index="300">
            -66 callgsubr
            345 hlineto
            20 -10 15 -18 -18 vvcurveto
            -17 -13 -15 -29 vhcurveto
            -79 -40 1 -63 391 callsubr
            -46 27 -46 38 -36 hvcurveto
            -36 -37 -21 -49 -61 vvcurveto
            return
          </CharString>
          <CharString index="301">
            76 -21 -46 61 -68 hhcurveto
            75 callgsubr
            return
          </CharString>
          <CharString index="302">
            43 43 15 30 29 return
          </CharString>
          <CharString index="303">
            254 callgsubr
            -39 -2 -49 -11 368 callgsubr
            271 callsubr
            vhcurveto
            return
          </CharString>
          <CharString index="304">
            rmoveto
            41 -28 30 -42 -50 -48 -47 -51 -39 29 -31 42 51 46 46 51 vhcurveto
            return
          </CharString>
          <CharString index="305">
            rmoveto
            120 -61 57 -89 -77 -68 -41 -70 -35 vhcurveto
            return
          </CharString>
          <CharString index="306">
            hhcurveto
            195 callsubr
            hvcurveto
            -7 return
          </CharString>
          <CharString index="307">
            8 16 1 5 return
          </CharString>
          <CharString index="308">
            63 -61 rmoveto
            -8 -23 -15 -32 -10 -9 rrcurveto
            -17 20 18 -2 11 hhcurveto
            49 20 54 24 8 hvcurveto
            348 1001 7 21 12 31 14 10 rlinecurve
            14 -17 -20 4 -15 hhcurveto
            -47 -20 -54 -23 -7 hvcurveto
            endchar
          </CharString>
          <CharString index="309">
            390 296 callsubr
            return
          </CharString>
          <CharString index="310">
            hvcurveto
            -4 15 16 -2 return
          </CharString>
          <CharString index="311">
            -249 409 565 rmoveto
            -107 callsubr
            -350 hlineto
            153 callgsubr
            -92 -154 -27 -59 vvcurveto
            return
          </CharString>
          <CharString index="312">
            vvcurveto
            -52 22 -38 54 219 callgsubr
          </CharString>
          <CharString index="313">
            -72 -19 -32 -78 vhcurveto
            -41 14 29 -35 61 hhcurveto
            67 55 46 111 hvcurveto
            return
          </CharString>
          <CharString index="314">
            29 36 29 8 -2 5 -4 6 hvcurveto
            -157 46 hlineto
            68 -27 32 -57 return
          </CharString>
          <CharString index="315">
            16 192 callsubr
            return
          </CharString>
          <CharString index="316">
            16 10 9 11 return
          </CharString>
          <CharString index="317">
            565 126 callsubr
            return
          </CharString>
          <CharString index="318">
            1 5 12 vhcurveto
            274 callsubr
            253 callgsubr
            -34 24 vhcurveto
            return
          </CharString>
          <CharString index="319">
            -76 callgsubr
            166 hlineto
            return
          </CharString>
          <CharString index="320">
            -87 112 -116 110 return
          </CharString>
          <CharString index="321">
            -105 callsubr
            5 hlineto
            7 -11 3 -22 2 -22 rrcurveto
            1 -26 0 -26 -24 vvcurveto
            -117 126 -89 99 92 47 65 96 79 -35 68 -24 29 vhcurveto
            return
          </CharString>
          <CharString index="322">
            -84 callgsubr
            -67 callgsubr
            164 hlineto
            2 5 return
          </CharString>
          <CharString index="323">
            hlineto
            12 -21 callgsubr
            -56 0 393 callsubr
            -77 -31 -64 -34 -54 hhcurveto
            -50 -43 325 callgsubr
            37 hlineto
            2 422 callgsubr
            return
          </CharString>
          <CharString index="324">
            hhcurveto
            -52 -33 -35 -38 -34 28 -25 19 -6 hvcurveto
            27 13 27 20 30 hhcurveto
            28 17 -21 -24 -38 -40 -42 -69 -105 -59 104 77 -31 hvcurveto
            -17 -21 -10 -32 -50 97 -184 167 return
          </CharString>
          <CharString index="325">
            8 14 1 5 12 vhcurveto
            274 callsubr
            136 286 callsubr
          </CharString>
          <CharString index="326">
            -3 303 callsubr
            33 callsubr
            return
          </CharString>
          <CharString index="327">
            -2 -57 callgsubr
            return
          </CharString>
          <CharString index="328">
            hhcurveto
            -303 413 rmoveto
            -44 callsubr
            return
          </CharString>
          <CharString index="329">
            76 -167 175 -59 -17 -13 -14 -7 -2 vhcurveto
            92 -116 40 -61 -53 vvcurveto
            -51 -40 -63 -92 -115 vhcurveto
            -7 2 13 -14 17 hhcurveto
            59 167 176 74 hvcurveto
            return
          </CharString>
          <CharString index="330">
            30 callsubr
            hvcurveto
            69 93 19 23 vvcurveto
            5 -6 5 -13 5 vhcurveto
            endchar
          </CharString>
          <CharString index="331">
            227 callsubr
            -47 -41 -29 -51 -28 vhcurveto
            -23 21 -16 28 32 vvcurveto
            return
          </CharString>
          <CharString index="332">
            179 402 rmoveto
            312 callsubr
            -13 3 -6 hvcurveto
            return
          </CharString>
          <CharString index="333">
            rrcurveto
            -45 313 callgsubr
            42 108 54 107 return
          </CharString>
          <CharString index="334">
            rmoveto
            52 35 32 38 33 25 -24 -37 return
          </CharString>
          <CharString index="335">
            hvcurveto
            -5 -16 -15 -1 return
          </CharString>
          <CharString index="336">
            130 -140 return
          </CharString>
          <CharString index="337">
            hvcurveto
            -6 14 -3 16 16 vvcurveto
            53 return
          </CharString>
          <CharString index="338">
            -85 -140 64 -87 hhcurveto
            -70 -52 -46 -61 -31 14 -21 22 -6 hvcurveto
            34 3 23 21 38 77 137 -64 97 hhcurveto
            70 52 46 60 29 -14 20 -22 10 hvcurveto
            return
          </CharString>
          <CharString index="339">
            hlineto
            235 callsubr
            return
          </CharString>
          <CharString index="340">
            136 callgsubr
            -54 427 callgsubr
            -63 380 callsubr
            30 15 callgsubr
            return
          </CharString>
          <CharString index="341">
            hlineto
            13 -20 1 337 callgsubr
            -5 191 callsubr
            return
          </CharString>
          <CharString index="342">
            13 185 callgsubr
            40 36 54 31 235 callgsubr
            hvcurveto
            7 290 callsubr
            return
          </CharString>
          <CharString index="343">
            hhcurveto
            -60 -47 417 callgsubr
            238 183 callgsubr
            -22 19 vhcurveto
            197 -84 callsubr
          </CharString>
          <CharString index="344">
            -17 -2 -16 241 callgsubr
            return
          </CharString>
          <CharString index="345">
            565 rmoveto
            12 -21 callsubr
            -57 -1 -48 -43 vvcurveto
            -37 -31 -39 -19 -33 hhcurveto
            -43 -28 31 61 -31 callsubr
            return
          </CharString>
          <CharString index="346">
            hhcurveto
            -56 -46 29 46 hvcurveto
            105 231 -18 111 vvcurveto
            30 -16 24 -21 17 vhcurveto
            202 -105 callgsubr
          </CharString>
          <CharString index="347">
            hhcurveto
            -58 -18 39 54 hvcurveto
            64 1 -11 61 vvcurveto
            35 -1 -83 callsubr
            -87 hmoveto
            return
          </CharString>
          <CharString index="348">
            -54 189 callgsubr
            return
          </CharString>
          <CharString index="349">
            12 -21 callsubr
            -53 -1 return
          </CharString>
          <CharString index="350">
            253 callsubr
            -25 return
          </CharString>
          <CharString index="351">
            -110 100 -101 103 49 30 17 24 22 vhcurveto
            -5 -25 -3 -27 -27 vvcurveto
            -49 18 379 callsubr
            vvcurveto
            return
          </CharString>
          <CharString index="352">
            -104 callgsubr
            294 hlineto
            14 -10 8 -12 -13 vvcurveto
            -19 -16 -10 -30 vhcurveto
            -42 -31 1 -31 hhcurveto
            -87 -50 return
          </CharString>
          <CharString index="353">
            hhcurveto
            -61 44 -18 39 64 88 48 45 67 vhcurveto
            -8 -32 -5 -39 -40 vvcurveto
            -55 18 -56 68 9 13 1 5 12 vhcurveto
            -10 180 callsubr
            vvcurveto
            return
          </CharString>
          <CharString index="354">
            50 15 12 226 callgsubr
            return
          </CharString>
          <CharString index="355">
            -63 -28 -34 6 12 -20 hvcurveto
            42 -11 -28 44 -41 hhcurveto
            -29 -19 -23 -26 -54 return
          </CharString>
          <CharString index="356">
            77 -105 60 -129 -206 -142 -150 -234 return
          </CharString>
          <CharString index="357">
            hlineto
            177 callsubr
            return
          </CharString>
          <CharString index="358">
            238 callgsubr
            43 114 return
          </CharString>
          <CharString index="359">
            63 -33 293 callsubr
            return
          </CharString>
          <CharString index="360">
            22 37 31 hvcurveto
            return
          </CharString>
          <CharString index="361">
            310 634 rmoveto
            7 -3 -12 14 -17 hhcurveto
            -59 -167 -175 -76 -74 167 -176 59 17 12 14 7 3 hvcurveto
            -92 115 return
          </CharString>
          <CharString index="362">
            384 565 rmoveto
            -107 callsubr
            -345 hlineto
            384 callgsubr
            return
          </CharString>
          <CharString index="363">
            vvcurveto
            -58 -35 -53 return
          </CharString>
          <CharString index="364">
            rmoveto
            -65 -59 -145 -108 -148 -37 rrcurveto
            -43 3 32 -33 44 hhcurveto
            97 213 163 73 21 -14 15 -17 8 hvcurveto
            endchar
          </CharString>
          <CharString index="365">
            rmoveto
            -5 -17 237 callsubr
            return
          </CharString>
          <CharString index="366">
            -26 vvcurveto
            -54 17 -52 63 9 13 1 5 return
          </CharString>
          <CharString index="367">
            -13 3 -20 1 return
          </CharString>
          <CharString index="368">
            -28 -27 -7 -14 -25 230 callsubr
            39 47 62 vhcurveto
            13 -83 callgsubr
            return
          </CharString>
          <CharString index="369">
            142 callgsubr
            vvcurveto
            -52 38 -53 return
          </CharString>
          <CharString index="370">
            vhcurveto
            156 -105 callgsubr
          </CharString>
          <CharString index="371">
            -11 5 -16 -16 vvcurveto
            -57 -61 -33 -42 -29 vhcurveto
            -61 return
          </CharString>
          <CharString index="372">
            hlineto
            13 -21 1 -45 -37 return
          </CharString>
          <CharString index="373">
            -68 -41 -55 -63 -85 72 -63 51 14 12 6 11 8 vhcurveto
            -34 19 -25 43 36 vvcurveto
            35 17 28 33 42 23 -51 -50 -103 return
          </CharString>
          <CharString index="374">
            -45 -26 -6 -28 153 callsubr
            33 140 callgsubr
            return
          </CharString>
          <CharString index="375">
            rmoveto
            -324 hlineto
            -2 -15 callsubr
            return
          </CharString>
          <CharString index="376">
            -104 callgsubr
            204 hlineto
            9 return
          </CharString>
          <CharString index="377">
            -44 -36 -17 -27 -27 return
          </CharString>
          <CharString index="378">
            39 17 42 53 7 return
          </CharString>
          <CharString index="379">
            35 36 vvcurveto
            39 return
          </CharString>
          <CharString index="380">
            -54 23 -49 hhcurveto
            -90 -65 -56 -95 -105 77 -96 42 15 9 7 8 5 hvcurveto
            -27 38 -18 49 51 vvcurveto
            61 33 48 61 return
          </CharString>
          <CharString index="381">
            -10 180 callsubr
            119 4 return
          </CharString>
          <CharString index="382">
            -10 -13 hvcurveto
            -39 -140 -37 -61 vvcurveto
            -66 104 -97 108 56 44 20 26 32 vhcurveto
            -2 -13 -1 -12 -12 vvcurveto
            -47 return
          </CharString>
          <CharString index="383">
            rmoveto
            -90 callsubr
            297 hlineto
            return
          </CharString>
          <CharString index="384">
            24 -24 28 22 15 16 21 27 -26 25 -26 return
          </CharString>
          <CharString index="385">
            hlineto
            332 callgsubr
            return
          </CharString>
          <CharString index="386">
            136 callgsubr
            vvcurveto
            return
          </CharString>
          <CharString index="387">
            vvcurveto
            -17 0 -17 -1 -17 vhcurveto
            return
          </CharString>
          <CharString index="388">
            34 -26 19 -46 -47 vvcurveto
            return
          </CharString>
          <CharString index="389">
            6 -53 -49 4 -45 hhcurveto
            return
          </CharString>
          <CharString index="390">
            314 callsubr
            -37 -29 return
          </CharString>
          <CharString index="391">
            97 286 callgsubr
            return
          </CharString>
          <CharString index="392">
            hhcurveto
            49 19 33 30 14 -3 -77 callgsubr
            return
          </CharString>
          <CharString index="393">
            117 vvcurveto
            36 -2 49 -34 24 vhcurveto
            165 18 callsubr
          </CharString>
          <CharString index="394">
            297 rmoveto
            -90 callsubr
            return
          </CharString>
          <CharString index="395">
            152 callgsubr
            -92 -154 -27 -59 vvcurveto
            return
          </CharString>
          <CharString index="396">
            -18 -20 -27 -34 31 -30 33 29 18 20 26 34 -33 31 return
          </CharString>
          <CharString index="397">
            10 4 17 12 vvcurveto
            return
          </CharString>
          <CharString index="398">
            vvcurveto
            -58 -46 -31 -53 -100 -72 92 81 -39 vhcurveto
            -12 -3 -22 -8 -29 vvcurveto
            -54 116 -177 163 return
          </CharString>
          <CharString index="399">
            671 123 140 rmoveto
            206 callgsubr
            -34 30 -31 34 28 19 21 26 34 -33 30 -32 hvcurveto
            return
          </CharString>
          <CharString index="400">
            80 74 419 callgsubr
            return
          </CharString>
          <CharString index="401">
            -100 105 -119 120 return
          </CharString>
          <CharString index="402">
            79 callgsubr
            78 70 -141 -56 26 hvcurveto
            return
          </CharString>
          <CharString index="403">
            rmoveto
            -64 callsubr
            return
          </CharString>
          <CharString index="404">
            83 35 49 41 33 -24 22 -25 6 vhcurveto
            -43 -13 -46 -43 -43 hhcurveto
            -18 -9 10 13 hvcurveto
            49 105 return
          </CharString>
          <CharString index="405">
            hhcurveto
            346 callgsubr
            hvcurveto
            -69 return
          </CharString>
          <CharString index="406">
            97 -60 96 -15 -78 -15 -84 -4 return
          </CharString>
          <CharString index="407">
            11 13 10 20 17 vvcurveto
            36 return
          </CharString>
          <CharString index="408">
            -2 -49 -11 -52 vvcurveto
            return
          </CharString>
          <CharString index="409">
            -80 122 -121 return
          </CharString>
          <CharString index="410">
            0 -4 -3 vvcurveto
            return
          </CharString>
          <CharString index="411">
            123 140 -66 callsubr
            return
          </CharString>
          <CharString index="412">
            hvcurveto
            -9 -4 -14 174 callsubr
            164 349 callsubr
            88 -76 82 -96 vhcurveto
            return
          </CharString>
          <CharString index="413">
            vvcurveto
            43 30 34 46 25 21 -11 -14 16 vhcurveto
            7 7 2 9 10 vvcurveto
            37 -36 46 -61 return
          </CharString>
          <CharString index="414">
            345 callsubr
            29 -55 return
          </CharString>
          <CharString index="415">
            17 -3 46 36 144 5 134 160 vvcurveto
            return
          </CharString>
          <CharString index="416">
            33 -12 411 callsubr
            return
          </CharString>
          <CharString index="417">
            -64 hhcurveto
            -49 -43 33 51 51 41 36 return
          </CharString>
          <CharString index="418">
            hlineto
            313 callsubr
            return
          </CharString>
          <CharString index="419">
            -35 301 callgsubr
            return
          </CharString>
          <CharString index="420">
            11 -9 7 -14 -15 return
          </CharString>
          <CharString index="421">
            56 -36 34 -51 return
          </CharString>
          <CharString index="422">
            331 callsubr
            20 -4 return
          </CharString>
          <CharString index="423">
            -38 -13 -29 339 callsubr
            return
          </CharString>
          <CharString index="424">
            rmoveto
            32 callgsubr
            3 -20 1 return
          </CharString>
          <CharString index="425">
            363 callgsubr
            -62 -1 -52 -1 -48 vhcurveto
            -14 -28 -20 -23 -24 -17 return
          </CharString>
          <CharString index="426">
            vvcurveto
            40 26 23 29 39 16 -37 -33 3 vhcurveto
            29 12 22 27 46 -39 60 -72 return
          </CharString>
          <CharString index="427">
            403 callsubr
            -20 178 callsubr
            return
          </CharString>
          <CharString index="428">
            28 33 vvcurveto
            285 151 rmoveto
            -90 callsubr
            return
          </CharString>
          <CharString index="429">
            vlineto
            -48 callgsubr
            endchar
          </CharString>
          <CharString index="430">
            -18 -38 -5 rrcurveto
            -51 2 35 -28 50 hhcurveto
            35 return
          </CharString>
          <CharString index="431">
            42 73 415 callsubr
            return
          </CharString>
          <CharString index="432">
            51 8 7 2 2 4 vhcurveto
            return
          </CharString>
          <CharString index="433">
            9 260 callsubr
            return
          </CharString>
          <CharString index="434">
            172 hlineto
            -1 -90 return
          </CharString>
          <CharString index="435">
            11 -46 vhcurveto
            endchar
          </CharString>
          <CharString index="436">
            -23 6 -22 hhcurveto
            -38 -37 -21 -37 -49 51 -26 54 25 24 5 9 23 hvcurveto
            return
          </CharString>
          <CharString index="437">
            408 callsubr
            21 25 34 -33 31 -32 hvcurveto
            return
          </CharString>
          <CharString index="438">
            vhcurveto
            142 -107 callgsubr
            -75 hlineto
            -6 return
          </CharString>
          <CharString index="439">
            -54 63 -33 80 74 vvcurveto
            63 39 return
          </CharString>
          <CharString index="440">
            56 67 53 44 -32 33 -42 2 return
          </CharString>
          <CharString index="441">
            27 -7 26 -20 16 rrcurveto
            return
          </CharString>
          <CharString index="442">
            -29 -55 -12 rrcurveto
            -45 3 return
          </CharString>
          <CharString index="443">
            3 19 1 19 return
          </CharString>
          <CharString index="444">
            -87 -56 -44 -67 -84 95 -92 80 53 27 36 37 30 -18 28 -32 9 return
          </CharString>
          <CharString index="445">
            116 -72 callsubr
            return
          </CharString>
          <CharString index="446">
            -27 -22 vhcurveto
            -12 5 12 -8 18 hhcurveto
            56 63 66 71 314 callsubr
            return
          </CharString>
          <CharString index="447">
            hlineto
            28 91 10 29 15 19 24 9 rlinecurve
            23 -11 -21 16 -33 hhcurveto
            -56 return
          </CharString>
          <CharString index="448">
            6 -6 11 18 vvcurveto
            320 vlineto
            35 -21 23 -42 -54 -39 -32 -23 -8 return
          </CharString>
          <CharString index="449">
            51 -22 hvcurveto
            -13 -1 -33 -23 -34 vvcurveto
            -50 66 -33 73 80 96 61 74 return
          </CharString>
          <CharString index="450">
            vhcurveto
            162 -105 callgsubr
          </CharString>
          <CharString index="451">
            -80 -36 -80 -40 -63 421 callsubr
            endchar
          </CharString>
          <CharString index="452">
            227 callgsubr
            -53 return
          </CharString>
          <CharString index="453">
            -10 19 17 27 vvcurveto
            return
          </CharString>
          <CharString index="454">
            -4 -32 -26 vvcurveto
            -54 return
          </CharString>
          <CharString index="455">
            6 38 hvcurveto
            30 return
          </CharString>
          <CharString index="456">
            102 65 57 79 return
          </CharString>
          <CharString index="457">
            355 callsubr
            8 return
          </CharString>
          <CharString index="458">
            216 rmoveto
            -6 -18 -19 -3 -19 hhcurveto
            -55 -47 37 55 27 11 23 return
          </CharString>
          <CharString index="459">
            hvcurveto
            42 139 24 callsubr
            -14 34 -18 27 vhcurveto
            endchar
          </CharString>
          <CharString index="460">
            -7 15 -12 6 return
          </CharString>
          <CharString index="461">
            -27 -21 1 2 -19 hvcurveto
            -10 -8 -8 -14 -16 vvcurveto
            -23 17 -21 return
          </CharString>
          <CharString index="462">
            97 rmoveto
            384 callgsubr
            return
          </CharString>
          <CharString index="463">
            rmoveto
            -90 callsubr
            252 hlineto
            return
          </CharString>
          <CharString index="464">
            183 callsubr
            -89 105 -101 90 54 25 34 36 35 -21 return
          </CharString>
          <CharString index="465">
            -2 -63 -66 vvcurveto
            -42 3 -89 85 9 return
          </CharString>
          <CharString index="466">
            154 callsubr
            4 callsubr
            return
          </CharString>
          <CharString index="467">
            hlineto
            9 -12 3 -20 1 -31 rrcurveto
            1 return
          </CharString>
          <CharString index="468">
            565 rmoveto
            271 callgsubr
            vvcurveto
            return
          </CharString>
          <CharString index="469">
            -5 303 callsubr
            -40 34 -35 50 return
          </CharString>
          <CharString index="470">
            vvcurveto
            27 -15 25 -18 18 vhcurveto
            return
          </CharString>
          <CharString index="471">
            -67 25 -33 57 34 25 16 return
          </CharString>
          <CharString index="472">
            67 -26 33 -57 -33 -26 -16 return
          </CharString>
          <CharString index="473">
            0 12 -1 rrcurveto
            1 5 return
          </CharString>
          <CharString index="474">
            121 hvcurveto
            -5 -28 -3 return
          </CharString>
          <CharString index="475">
            53 414 callsubr
            return
          </CharString>
          <CharString index="476">
            vvcurveto
            -53 64 -78 61 return
          </CharString>
          <CharString index="477">
            -1 -57 -1 -51 vhcurveto
            return
          </CharString>
          <CharString index="478">
            -17 2 -48 -37 vvcurveto
            return
          </CharString>
          <CharString index="479">
            194 -104 callgsubr
            return
          </CharString>
          <CharString index="480">
            297 -104 callgsubr
            return
          </CharString>
          <CharString index="481">
            hhcurveto
            -27 -25 -7 -13 -21 hvcurveto
            -1 51 -26 49 -34 38 rrcurveto
            return
          </CharString>
          <CharString index="482">
            533 rmoveto
            -90 callsubr
            return
          </CharString>
          <CharString index="483">
            hlineto
            -80 2 121 -119 126 188 callgsubr
            return
          </CharString>
          <CharString index="484">
            -94 vhcurveto
            -166 return
          </CharString>
          <CharString index="485">
            hhcurveto
            -31 -24 -12 -18 -16 hvcurveto
            26 -21 -42 3 -28 hhcurveto
            return
          </CharString>
          <CharString index="486">
            -50 64 9 13 1 5 12 vhcurveto
            -10 180 callsubr
            return
          </CharString>
          <CharString index="487">
            -30 -54 -43 310 callsubr
            54 return
          </CharString>
          <CharString index="488">
            hhcurveto
            400 callgsubr
            return
          </CharString>
          <CharString index="489">
            -13 8 -13 hhcurveto
            -53 -90 -84 -114 -63 40 -47 58 return
          </CharString>
          <CharString index="490">
            -106 callsubr
            113 hlineto
            return
          </CharString>
          <CharString index="491">
            -2 49 hhcurveto
            68 34 36 44 32 -17 33 -28 25 hvcurveto
            return
          </CharString>
          <CharString index="492">
            hvcurveto
            5 16 3 18 19 0 callgsubr
            return
          </CharString>
          <CharString index="493">
            365 callsubr
            -22 return
          </CharString>
          <CharString index="494">
            vvcurveto
            -50 69 -43 48 36 28 21 return
          </CharString>
          <CharString index="495" raw="1">
            f8000aa2 0b  
          </CharString>
          <CharString index="496">
            12 hvcurveto
            -3 -10 -12 -2 -11 hhcurveto
            return
          </CharString>
          <CharString index="497">
            17 12 vvcurveto
            48 -48 29 -57 -56 return
          </CharString>
          <CharString index="498">
            hhcurveto
            -100 -39 -53 -60 return
          </CharString>
          <CharString index="499">
            19 25 vvcurveto
            45 return
          </CharString>
          <CharString index="500">
            -48 -1 -44 vhcurveto
            return
          </CharString>
          <CharString index="501">
            24 26 33 44 return
          </CharString>
          <CharString index="502">
            12 -21 callgsubr
            -37 0 -33 -1 -30 vhcurveto
            return
          </CharString>
          <CharString index="503">
            -329 173 387 callgsubr
            return
          </CharString>
          <CharString index="504">
            -66 -23 -77 -97 -84 32 52 -52 hvcurveto
            -6 -3 -14 return
          </CharString>
          <CharString index="505">
            hlineto
            17 -11 11 -18 -16 vvcurveto
            -17 -12 -15 -30 vhcurveto
            return
          </CharString>
          <CharString index="506">
            358 callsubr
            13 1 5 return
          </CharString>
          <CharString index="507">
            hlineto
            -2 -5 -2 -71 callgsubr
            return
          </CharString>
          <CharString index="508">
            326 callsubr
            -35 return
          </CharString>
          <CharString index="509">
            -43 49 35 29 21 36 return
          </CharString>
          <CharString index="510">
            27 328 callgsubr
            return
          </CharString>
          <CharString index="511">
            -26 32 -57 -33 return
          </CharString>
          <CharString index="512">
            hhcurveto
            65 52 42 73 65 -41 50 -18 18 hvcurveto
            return
          </CharString>
          <CharString index="513">
            vvcurveto
            -51 69 -42 48 36 28 21 35 17 -6 return
          </CharString>
          <CharString index="514">
            hhcurveto
            19 8 16 19 12 hvcurveto
            404 659 return
          </CharString>
          <CharString index="515">
            rmoveto
            -28 -18 -20 -27 -34 31 -30 33 29 18 return
          </CharString>
          <CharString index="516">
            -14 -15 vvcurveto
            -56 -111 -15 -74 -66 vhcurveto
            -38 return
          </CharString>
          <CharString index="517">
            -7 -12 4 -11 hhcurveto
            -72 -8 -67 -38 hvcurveto
            1 return
          </CharString>
          <CharString index="518">
            hvcurveto
            238 callgsubr
            return
          </CharString>
          <CharString index="519">
            129 rmoveto
            23 22 3 4 return
          </CharString>
          <CharString index="520">
            283 callgsubr
            vvcurveto
            return
          </CharString>
          <CharString index="521">
            hhcurveto
            42 38 -30 -48 return
          </CharString>
          <CharString index="522">
            65 -41 50 -17 18 return
          </CharString>
          <CharString index="523">
            7 0 1 6 hvcurveto
            return
          </CharString>
          <CharString index="524">
            -17 -2 -16 hhcurveto
            return
          </CharString>
          <CharString index="525">
            vhcurveto
            198 hlineto
            return
          </CharString>
          <CharString index="526">
            36 24 26 33 return
          </CharString>
          <CharString index="527">
            -2 -17 -10 -23 vvcurveto
            -56 145 -131 return
          </CharString>
          <CharString index="528">
            hhcurveto
            -51 -42 371 callgsubr
            57 hvcurveto
            return
          </CharString>
          <CharString index="529">
            55 -53 35 -75 -74 -56 -31 -31 -12 7 return
          </CharString>
          <CharString index="530">
            31 53 4 54 5 -1 8 -3 4 hvcurveto
            return
          </CharString>
          <CharString index="531">
            28 9 27 23 33 hhcurveto
            24 16 -16 -21 return
          </CharString>
          <CharString index="532">
            403 callgsubr
            -15 -35 -39 -8 return
          </CharString>
          <CharString index="533">
            13 -30 11 -44 vhcurveto
            endchar
          </CharString>
          <CharString index="534">
            -6 12 hvcurveto
            7 return
          </CharString>
        <CharString name=".notdef">
          146 166 hmoveto
          422 701 -422 hlineto
          73 -68 rmoveto
          277 -565 -277 hlineto
          endchar
        </CharString>
        <CharString name="A">
          101 248 234 -74 callgsubr
        </CharString>
        <CharString name="AE">
          423 288 272 rmoveto
          169 346 rlineto
          -346 vlineto
          185 -167 rmoveto
          -39 -16 16 36 hvcurveto
          175 156 vlineto
          46 34 -1 -12 30 hvcurveto
          17 12 12 19 26 vvcurveto
          45 -35 16 377 callsubr
          186 242 hlineto
          46 35 -6 -15 29 hvcurveto
          19 12 13 392 callsubr
          -36 26 -94 vhcurveto
          -364 hlineto
          -69 -34 -27 -57 -29 hvcurveto
          -276 -542 -19 -38 -13 -16 -22 -9 rlinecurve
          -26 15 34 -20 37 hhcurveto
          35 26 18 52 25 hvcurveto
          50 102 rlineto
          220 -28 hlineto
          -91 54 -47 118 vhcurveto
          220 hlineto
          86 36 37 47 24 -13 25 -19 13 hvcurveto
          -27 -29 -35 395 callgsubr
        </CharString>
        <CharString name="Aacute">
          101 451 867 -74 callsubr
          -113 -563 -74 callgsubr
        </CharString>
        <CharString name="Abreve">
          101 355 801 83 callsubr
          -107 -567 -74 callgsubr
        </CharString>
        <CharString name="Acircumflex">
          101 356 879 -29 callsubr
          -19 -564 -74 callgsubr
        </CharString>
        <CharString name="Adieresis">
          101 436 798 13 callsubr
          -3 -564 -74 callgsubr
        </CharString>
        <CharString name="Agrave">
          101 346 798 -6 callgsubr
          -12 -638 -74 callgsubr
        </CharString>
        <CharString name="Amacron">
          101 476 823 rmoveto
          103 callsubr
          -300 hlineto
          103 callgsubr
          72 -589 -74 callgsubr
        </CharString>
        <CharString name="Aogonek">
          101 248 234 rmoveto
          102 315 105 -315 rlineto
          235 -196 rmoveto
          -26 12 -18 24 -14 39 -195 524 rcurveline
          66 -25 -18 35 -58 hhcurveto
          -35 -28 -16 -23 -16 hvcurveto
          16 -12 11 -15 8 -23 -215 -553 rcurveline
          -15 -37 -10 -17 -21 -8 rrcurveto
          -26 9 36 -18 35 hhcurveto
          37 30 22 63 19 hvcurveto
          25 76 rlineto
          261 hlineto
          26 -77 11 -34 12 -21 16 -13 rlinecurve
          -47 -26 -32 -38 -44 30 callsubr
          hvcurveto
          69 93 19 23 vvcurveto
          3 -2 3 -6 4 vhcurveto
          endchar
        </CharString>
        <CharString name="Aring">
          101 350 939 101 callsubr
          -150 rmoveto
          59 51 30 62 62 -51 31 -59 -59 -51 -31 -62 -62 51 -30 59 hvcurveto
          -107 -555 -74 callgsubr
        </CharString>
        <CharString name="Atilde">
          101 226 808 rmoveto
          60 callgsubr
          134 callgsubr
          22 -574 -74 callgsubr
        </CharString>
        <CharString name="B">
          144 416 325 rmoveto
          96 53 -43 -74 -71 -53 -46 -96 hvcurveto
          -118 hlineto
          -51 -16 16 47 hvcurveto
          1 171 rlineto
          145 314 rmoveto
          98 43 -51 -61 -67 -43 -46 -98 1 hvcurveto
          -145 224 hlineto
          -73 90 rmoveto
          -41 -27 -16 -25 -20 hvcurveto
          21 -10 10 -18 -30 vvcurveto
          -1 -476 rlineto
          -115 45 -39 136 vhcurveto
          134 hlineto
          191 93 97 105 90 -76 75 -110 16 hvcurveto
          83 20 55 53 82 vvcurveto
          101 -83 90 -189 vhcurveto
          endchar
        </CharString>
        <CharString name="C">
          107 645 601 rmoveto
          249 callsubr
          -228 126 -136 196 152 110 94 62 36 -22 13 -7 2 vhcurveto
          104 callsubr
          hvcurveto
          endchar
        </CharString>
        <CharString name="CR">
          -331 endchar
        </CharString>
        <CharString name="Cacute">
          107 645 601 rmoveto
          249 callsubr
          -228 126 -136 196 152 110 94 62 36 -22 13 -7 2 vhcurveto
          104 callsubr
          hvcurveto
          -190 266 -74 callsubr
          endchar
        </CharString>
        <CharString name="Ccaron">
          107 522 952 -67 callsubr
          167 -649 rmoveto
          104 callsubr
          249 callsubr
          -228 126 -136 196 152 110 94 62 36 -22 13 -7 2 hvcurveto
          endchar
        </CharString>
        <CharString name="Ccedilla">
          107 297 67 callsubr
          12 54 rlineto
          148 3 106 92 61 vvcurveto
          36 -22 13 -7 2 vhcurveto
          104 callsubr
          249 callsubr
          -198 95 -129 154 -30 hvcurveto
          endchar
        </CharString>
        <CharString name="D">
          164 101 149 rmoveto
          100 callsubr
          130 28 rmoveto
          162 callsubr
          endchar
        </CharString>
        <CharString name="Dcaron">
          164 550 944 -67 callsubr
          -247 -207 rmoveto
          162 callsubr
          -130 7 rmoveto
          100 callsubr
          endchar
        </CharString>
        <CharString name="Dcroat">
          164 231 329 rmoveto
          88 173 callgsubr
          -147 232 hlineto
          162 callsubr
          -129 257 rmoveto
          -23 hlineto
          103 callgsubr
          82 -180 hlineto
          100 callsubr
          endchar
        </CharString>
        <CharString name="E">
          79 309 105 -77 callsubr
        </CharString>
        <CharString name="Eacute">
          79 456 867 -74 callsubr
          -57 -692 -77 callsubr
        </CharString>
        <CharString name="Ecaron">
          79 524 952 -67 callsubr
          -144 -741 -77 callsubr
        </CharString>
        <CharString name="Ecircumflex">
          79 361 879 -29 callsubr
          37 -693 -77 callsubr
        </CharString>
        <CharString name="Edieresis">
          79 441 798 13 callsubr
          53 -693 -77 callsubr
        </CharString>
        <CharString name="Edotaccent">
          79 349 811 rmoveto
          43 40 40 43 199 callgsubr
          hvcurveto
          -40 -706 -77 callsubr
        </CharString>
        <CharString name="Egrave">
          79 351 798 -6 callgsubr
          44 -767 -77 callsubr
        </CharString>
        <CharString name="Emacron">
          79 481 823 rmoveto
          103 callsubr
          -300 hlineto
          103 callgsubr
          128 -718 -77 callsubr
        </CharString>
        <CharString name="Eogonek">
          79 309 105 rmoveto
          415 callgsubr
          157 156 vlineto
          45 35 -1 -12 30 hvcurveto
          17 12 12 19 26 vvcurveto
          45 -35 16 377 callsubr
          186 242 hlineto
          46 35 -6 -15 29 hvcurveto
          19 12 12 392 callsubr
          -35 26 -94 vhcurveto
          -327 hlineto
          -40 -27 -16 -25 -20 hvcurveto
          21 -10 10 -18 -30 vvcurveto
          -469 vlineto
          -114 57 -47 120 vhcurveto
          141 hlineto
          -40 -26 -26 -35 -39 30 callsubr
          60 71 22 18 20 hvcurveto
          26 16 11 23 27 vvcurveto
          24 -12 25 -19 13 vhcurveto
          -27 -29 -35 395 callgsubr
        </CharString>
        <CharString name="Eth">
          198 231 329 rmoveto
          111 hlineto
          30 54 4 53 5 -1 9 -3 3 hvcurveto
          -190 228 hlineto
          162 callsubr
          -129 261 rmoveto
          -13 hlineto
          -30 -54 -3 -52 -7 2 -9 2 -3 hvcurveto
          92 -180 hlineto
          100 callsubr
          endchar
        </CharString>
        <CharString name="Euro">
          138 430 252 rmoveto
          423 callsubr
          -240 hlineto
          -1 14 -1 14 15 vvcurveto
          11 0 11 1 11 vhcurveto
          161 hlineto
          423 callsubr
          -230 hlineto
          118 28 74 63 78 hhcurveto
          76 30 -47 -54 -8 hvcurveto
          -11 19 22 -4 19 hhcurveto
          48 43 21 49 73 -105 52 -130 -166 -119 -98 -162 -39 hvcurveto
          -22 hlineto
          -29 -55 -4 -51 -8 2 -8 3 -4 hvcurveto
          89 hlineto
          -1 -16 -1 -16 -17 vvcurveto
          -9 0 -9 1 -9 vhcurveto
          -9 hlineto
          -29 -55 -3 -51 -9 2 -8 3 -4 hvcurveto
          96 hlineto
          -166 31 111 -96 158 hhcurveto
          153 109 94 62 36 -22 13 -7 2 hvcurveto
          -43 -38 -79 -52 -86 hhcurveto
          -92 -72 43 107 -29 hvcurveto
          endchar
        </CharString>
        <CharString name="F">
          38 171 729 rmoveto
          -40 -27 -16 -25 -20 hvcurveto
          21 -10 10 -18 -30 vvcurveto
          -539 vlineto
          -67 26 -34 56 34 25 17 22 17 vhcurveto
          -21 10 -8 18 31 vvcurveto
          247 156 vlineto
          45 35 -1 -10 30 hvcurveto
          17 11 12 17 22 vvcurveto
          39 -35 14 377 callsubr
          204 242 hlineto
          46 35 -6 -15 29 hvcurveto
          19 12 12 19 25 vvcurveto
          37 -27 26 -94 vhcurveto
          endchar
        </CharString>
        <CharString name="G">
          154 687 292 13 callgsubr
        </CharString>
        <CharString name="Gbreve">
          154 433 801 83 callsubr
          254 -509 13 callgsubr
        </CharString>
        <CharString name="H">
          204 707 639 rmoveto
          67 404 callsubr
          -26 195 callgsubr
          -9 10 -19 -29 vvcurveto
          -230 -344 227 vlineto
          -35 callsubr
          238 344 -235 vlineto
          -67 25 237 callgsubr
          endchar
        </CharString>
        <CharString name="I">
          -268 234 639 rmoveto
          -35 callsubr
          endchar
        </CharString>
        <CharString name="Iacute">
          -268 265 867 -74 callsubr
          59 -158 rmoveto
          -35 callsubr
          endchar
        </CharString>
        <CharString name="Icircumflex">
          -268 234 639 rmoveto
          -35 callsubr
          28 821 113 callgsubr
        </CharString>
        <CharString name="Idieresis">
          -268 333 882 33 callgsubr
          85 -243 rmoveto
          -35 callsubr
          endchar
        </CharString>
        <CharString name="Idotaccent">
          -268 241 894 rmoveto
          199 callgsubr
          43 40 40 43 vhcurveto
          -7 -255 rmoveto
          -35 callsubr
          endchar
        </CharString>
        <CharString name="Igrave">
          -268 160 798 -6 callgsubr
          160 -233 rmoveto
          -35 callsubr
          endchar
        </CharString>
        <CharString name="Imacron">
          -268 50 893 68 callgsubr
          -116 -254 rmoveto
          -35 callsubr
          endchar
        </CharString>
        <CharString name="Iogonek">
          -268 264 29 rmoveto
          135 callsubr
          552 vlineto
          284 callgsubr
          -33 -26 195 callgsubr
          -9 10 -19 -29 vvcurveto
          -552 vlineto
          -47 12 -30 27 -14 vhcurveto
          -52 -26 -36 -40 -47 223 callsubr
        </CharString>
        <CharString name="J">
          -167 369 639 rmoveto
          67 -26 32 -56 -33 -26 -16 -23 -18 vhcurveto
          21 -9 9 -19 -29 vvcurveto
          -469 vlineto
          -54 -34 -25 -50 -45 -35 15 28 -34 vhcurveto
          -12 -12 -8 -18 -21 vvcurveto
          -51 60 -45 96 112 79 62 126 vhcurveto
          endchar
        </CharString>
        <CharString name="K">
          113 339 371 101 callgsubr
        </CharString>
        <CharString name="L">
          41 callsubr
          endchar
        </CharString>
        <CharString name="Lacute">
          41 callsubr
          158 225 -74 callsubr
          endchar
        </CharString>
        <CharString name="Lcaron">
          41 callsubr
          346 30 150 callgsubr
        </CharString>
        <CharString name="Lslash">
          -20 306 97 rmoveto
          415 callgsubr
          243 vlineto
          83 40 27 13 42 24 -22 49 rlinecurve
          -3 5 -4 7 -5 1 -118 -57 rcurveline
          147 171 callsubr
          -213 vlineto
          -42 -20 -27 -13 -48 -25 22 -47 rlinecurve
          4 -6 11 -7 3 -2 77 37 rcurveline
          -193 vlineto
          -114 49 -39 121 vhcurveto
          157 hlineto
          82 36 42 47 19 -8 20 -18 9 hvcurveto
          -26 -21 -30 395 callgsubr
        </CharString>
        <CharString name="M">
          357 846 639 rmoveto
          -2 31 4 27 14 21 rrcurveto
          11 -23 -31 9 -35 hhcurveto
          -82 -48 -26 -115 -33 hvcurveto
          -125 -363 -124 367 rlineto
          91 -26 -31 46 -80 hhcurveto
          -51 -45 -15 -17 -30 hvcurveto
          14 -18 6 -28 -2 -29 -41 -539 rcurveline
          -2 -30 -8 -24 -17 -16 rrcurveto
          -19 19 25 -13 30 hhcurveto
          47 19 31 64 4 hvcurveto
          32 520 197 -562 rlineto
          -24 7 9 -15 33 hhcurveto
          33 13 15 23 8 hvcurveto
          194 562 32 -522 rlineto
          -70 5 31 -19 47 hhcurveto
          29 17 6 10 20 hvcurveto
          -11 17 -6 40 -1 29 rrcurveto
          endchar
        </CharString>
        <CharString name="N">
          215 109 90 -12 callgsubr
          endchar
        </CharString>
        <CharString name="NULL">
          endchar
        </CharString>
        <CharString name="Nacute">
          215 109 90 -12 callgsubr
          398 225 -74 callsubr
          endchar
        </CharString>
        <CharString name="Ncaron">
          215 575 952 -67 callsubr
          219 -207 rmoveto
          79 callsubr
          -474 vlineto
          -301 490 rlineto
          56 -35 -37 24 -53 hhcurveto
          -45 -25 -16 -23 -18 hvcurveto
          21 -9 9 -19 -29 vvcurveto
          -552 vlineto
          -67 26 -33 57 34 24 16 23 18 281 callgsubr
          456 vlineto
          263 -425 rlineto
          -91 57 46 -37 59 hhcurveto
          37 27 12 17 15 hvcurveto
          -15 17 -5 21 30 vvcurveto
          endchar
        </CharString>
        <CharString name="Ntilde">
          215 505 903 rmoveto
          134 callgsubr
          60 callgsubr
          hhcurveto
          -396 -813 -12 callgsubr
          endchar
        </CharString>
        <CharString name="O">
          176 411 76 131 callgsubr
        </CharString>
        <CharString name="OE">
          505 539 108 rmoveto
          -16 -35 -41 -9 -52 hhcurveto
          -126 -64 107 155 -11 hvcurveto
          183 -12 85 116 137 hhcurveto
          48 36 -7 -14 35 hvcurveto
          196 -518 rmoveto
          -45 -21 21 49 hvcurveto
          157 156 vlineto
          46 34 -1 -12 30 hvcurveto
          18 12 12 19 26 vvcurveto
          45 -36 16 377 callsubr
          186 242 hlineto
          47 35 -6 -15 28 hvcurveto
          20 12 12 392 callsubr
          -36 26 -94 vhcurveto
          -498 hlineto
          -231 -126 -150 -214 -216 101 -149 260 hvcurveto
          502 hlineto
          86 36 37 47 24 -12 25 -20 13 hvcurveto
          -27 -29 -34 -14 -47 hhcurveto
          endchar
        </CharString>
        <CharString name="Oacute">
          176 411 76 -52 callsubr
          -228 502 -74 callsubr
          endchar
        </CharString>
        <CharString name="Ocircumflex">
          176 393 879 -29 callsubr
          107 -722 rmoveto
          -125 -72 114 168 -12 hvcurveto
          169 -11 57 126 125 hhcurveto
          127 72 -114 -169 10 hvcurveto
          -168 12 -57 -126 -126 hhcurveto
          -18 662 rmoveto
          -217 -108 -159 -214 -216 108 -159 217 220 103 160 215 216 -102 157 -221 hvcurveto
          endchar
        </CharString>
        <CharString name="Odieresis">
          176 411 76 -52 callsubr
          -159 517 33 callgsubr
          endchar
        </CharString>
        <CharString name="Ograve">
          176 384 798 -6 callgsubr
          113 -796 131 callgsubr
        </CharString>
        <CharString name="Ohungarumlaut">
          176 411 76 -52 callsubr
          -289 438 55 callgsubr
          endchar
        </CharString>
        <CharString name="Omacron">
          176 411 76 -52 callsubr
          -443 528 68 callgsubr
          endchar
        </CharString>
        <CharString name="Oslash">
          202 561 492 rmoveto
          11 -36 7 -41 3 -44 rrcurveto
          -168 12 -57 -126 -126 hhcurveto
          -63 -49 29 50 -35 hvcurveto
          -31 56 rmoveto
          -16 42 -11 49 -4 56 rrcurveto
          169 -11 57 126 125 hhcurveto
          73 55 -38 -64 35 hvcurveto
          164 96 rmoveto
          17 18 26 27 27 14 rrcurveto
          22 -4 -17 9 -16 hhcurveto
          -21 -21 -11 -28 -24 hvcurveto
          -44 -49 rlineto
          56 -53 -76 33 -101 hhcurveto
          -217 -108 -159 -214 -102 24 -90 49 -66 hvcurveto
          -24 -27 -16 -18 -26 -27 -27 -14 rlinecurve
          -22 5 16 -10 16 hhcurveto
          21 20 11 28 25 hvcurveto
          31 35 rlineto
          -46 52 70 -27 89 hhcurveto
          220 103 160 215 92 -18 81 -39 63 hvcurveto
          endchar
        </CharString>
        <CharString name="Otilde">
          176 486 903 rmoveto
          134 callgsubr
          60 callgsubr
          hhcurveto
          -75 -827 131 callgsubr
        </CharString>
        <CharString name="P">
          19 302 647 rmoveto
          101 53 -61 -89 -88 -53 -62 -101 hvcurveto
          -85 300 hlineto
          -72 82 rmoveto
          -41 -27 -16 -25 -20 hvcurveto
          21 -10 10 -18 -30 vvcurveto
          -540 vlineto
          127 callsubr
          179 105 vlineto
          150 131 77 155 154 -131 78 -150 -1 hvcurveto
          endchar
        </CharString>
        <CharString name="Q">
          210 738 411 rmoveto
          203 -135 124 -182 -203 -142 -161 -218 -165 100 -86 101 63 31 40 41 7 0 6 -2 6 vhcurveto
          -5 -5 -1 -5 hhcurveto
          -86 -60 72 130 145 70 97 114 120 90 -109 -150 -167 -89 -114 -147 -59 hvcurveto
          -57 -23 -12 -11 -19 vvcurveto
          -73 149 -138 159 143 30 115 51 -48 vhcurveto
          -24 -32 -39 -12 -42 hhcurveto
          -78 -81 24 49 -59 hvcurveto
          211 56 128 155 209 vvcurveto
          endchar
        </CharString>
        <CharString name="R">
          51 217 634 -44 callgsubr
          endchar
        </CharString>
        <CharString name="Racute">
          51 418 863 -74 callsubr
          -111 -159 -44 callgsubr
          endchar
        </CharString>
        <CharString name="Rcaron">
          51 486 948 -67 callsubr
          -198 -208 -44 callgsubr
          endchar
        </CharString>
        <CharString name="S">
          27 callsubr
          endchar
        </CharString>
        <CharString name="Sacute">
          27 callsubr
          -173 273 -74 callsubr
          endchar
        </CharString>
        <CharString name="Scaron">
          72 504 952 -67 callsubr
          -214 -279 rmoveto
          90 callsubr
          82 -101 64 -154 -140 -125 -75 -124 hvcurveto
          -208 411 -5 -146 vvcurveto
          -65 -63 -43 -89 -91 -52 39 44 22 10 19 14 14 vhcurveto
          16 -17 -24 12 -31 hhcurveto
          -42 -42 -31 -53 -98 121 -68 154 151 130 87 128 hvcurveto
          212 -411 16 134 vvcurveto
          endchar
        </CharString>
        <CharString name="T">
          3 140 729 77 callsubr
        </CharString>
        <CharString name="Tcaron">
          3 470 923 -67 callsubr
          -259 -88 77 callsubr
        </CharString>
        <CharString name="Thorn">
          52 234 507 rmoveto
          15 40 37 7 41 hhcurveto
          90 61 -52 -83 -84 -61 -52 -90 -41 -37 7 14 -40 hvcurveto
          360 vmoveto
          -35 callsubr
          112 vlineto
          -17 42 50 -11 54 hhcurveto
          138 118 86 137 135 -118 87 -138 -54 -50 -11 -17 -42 hvcurveto
          endchar
        </CharString>
        <CharString name="U">
          129 97 261 63 callsubr
        </CharString>
        <CharString name="Uacute">
          129 97 261 -45 callgsubr
          382 225 -74 callsubr
          endchar
        </CharString>
        <CharString name="Ucircumflex">
          129 384 879 -29 callsubr
          247 -555 rmoveto
          -104 -60 -49 -98 -99 -59 51 102 vhcurveto
          396 vlineto
          67 -27 32 -57 -33 -25 -16 -23 -18 vhcurveto
          21 -9 10 -19 -29 vvcurveto
          -381 vlineto
          -163 87 -108 200 201 86 108 163 vhcurveto
          378 vlineto
          67 404 callsubr
          -26 -16 -23 -18 vhcurveto
          21 -9 10 -19 -29 vvcurveto
          endchar
        </CharString>
        <CharString name="Udieresis">
          129 97 261 -45 callgsubr
          451 240 33 callgsubr
          endchar
        </CharString>
        <CharString name="Ugrave">
          129 375 798 -6 callgsubr
          -192 -611 63 callsubr
        </CharString>
        <CharString name="Uhungarumlaut">
          129 418 803 55 callgsubr
          -216 -648 63 callsubr
        </CharString>
        <CharString name="Umacron">
          129 264 893 68 callgsubr
          -467 -632 63 callsubr
        </CharString>
        <CharString name="Uogonek">
          129 542 243 rmoveto
          -104 -60 -49 -98 -99 -59 51 102 vhcurveto
          396 vlineto
          67 -27 32 -57 -33 -25 -16 -23 -18 vhcurveto
          21 -9 10 -19 -29 vvcurveto
          -381 vlineto
          -149 73 -104 166 -16 vhcurveto
          -50 -26 -35 -39 -46 30 callsubr
          59 69 23 19 19 hvcurveto
          138 29 60 97 137 vvcurveto
          378 vlineto
          67 404 callsubr
          -26 -16 -23 -18 vhcurveto
          21 -9 10 -19 -29 vvcurveto
          endchar
        </CharString>
        <CharString name="Uring">
          129 97 261 -45 callgsubr
          281 297 101 callsubr
          35 rmoveto
          -59 -51 -31 -62 -62 51 -30 59 59 51 30 62 62 -51 31 -59 hvcurveto
          endchar
        </CharString>
        <CharString name="V">
          116 187 636 rmoveto
          81 -24 -34 21 423 callgsubr
          8 -24 13 -38 175 -529 rcurveline
          -76 25 27 -28 57 hhcurveto
          128 231 356 235 101 -40 57 -64 -28 -35 -14 -16 -20 hvcurveto
          29 -48 8 -43 -73 vvcurveto
          -144 -76 -195 -112 -120 vhcurveto
          endchar
        </CharString>
        <CharString name="W">
          401 567 653 rmoveto
          63 -16 -29 22 -45 hhcurveto
          -34 -27 -13 -27 -22 hvcurveto
          24 -13 10 -24 11 -38 25 -92 rcurveline
          -32 -168 -38 -140 -66 -113 -120 526 rcurveline
          80 -18 -40 22 423 callgsubr
          11 -24 10 -38 142 -529 rcurveline
          -79 20 28 -25 57 hhcurveto
          70 85 160 179 52 hvcurveto
          65 -235 rlineto
          -75 20 30 -29 41 hhcurveto
          116 186 372 205 114 -54 57 -64 -26 -41 -15 -14 -16 hvcurveto
          36 -29 22 -65 -82 vvcurveto
          -113 -43 -169 -86 -146 vhcurveto
          endchar
        </CharString>
        <CharString name="X">
          49 346 454 rmoveto
          -140 217 rlineto
          50 -32 -29 17 -40 hhcurveto
          -46 -33 -30 -47 -11 hvcurveto
          27 27 -12 -46 30 hvcurveto
          159 -246 -180 -249 rlineto
          -27 -19 -17 -8 -27 hhcurveto
          -55 -2 36 -28 39 hhcurveto
          54 32 36 103 56 hvcurveto
          82 144 140 -216 rlineto
          -52 34 27 -15 40 hhcurveto
          46 32 31 45 12 hvcurveto
          -27 1 -27 13 -30 45 -158 245 rcurveline
          179 249 rlineto
          27 19 17 8 28 hhcurveto
          55 1 -36 30 -39 hhcurveto
          -54 -31 -38 -103 -57 hvcurveto
          endchar
        </CharString>
        <CharString name="Y">
          25 589 598 46 callsubr
        </CharString>
        <CharString name="Yacute">
          25 419 867 -74 callsubr
          260 -199 46 callsubr
        </CharString>
        <CharString name="Ydieresis">
          25 404 798 13 callsubr
          370 -200 46 callsubr
        </CharString>
        <CharString name="Z">
          44 161 100 -6 callsubr
        </CharString>
        <CharString name="Zacute">
          44 421 867 -74 callsubr
          -170 -697 -6 callsubr
        </CharString>
        <CharString name="Zcaron">
          44 489 952 -67 callsubr
          -257 -746 -6 callsubr
        </CharString>
        <CharString name="Zdotaccent">
          44 314 811 rmoveto
          43 40 40 43 199 callgsubr
          hvcurveto
          -153 -711 -6 callsubr
        </CharString>
        <CharString name="a">
          -55 345 126 -82 callgsubr
        </CharString>
        <CharString name="aacute">
          -55 378 53 callgsubr
          57 -459 -82 callgsubr
        </CharString>
        <CharString name="abreve">
          -55 282 589 83 callsubr
          63 -463 -82 callgsubr
        </CharString>
        <CharString name="acircumflex">
          -55 283 667 -29 callsubr
          151 -460 -82 callgsubr
        </CharString>
        <CharString name="acute">
          -343 176 53 callgsubr
          endchar
        </CharString>
        <CharString name="adieresis">
          -55 363 586 13 callsubr
          167 -460 -82 callgsubr
        </CharString>
        <CharString name="ae">
          205 478 309 rmoveto
          97 12 43 48 49 hhcurveto
          41 24 -41 -46 -33 -15 -9 -23 -3 hvcurveto
          -359 -246 rmoveto
          -38 -27 16 41 49 41 43 119 7 hvcurveto
          -35 5 -31 10 -28 vhcurveto
          -41 -31 -40 -21 -39 hhcurveto
          417 175 rmoveto
          82 2 32 29 69 vvcurveto
          87 -74 89 -113 -61 -57 -25 -44 -44 vhcurveto
          45 -32 -51 24 -78 hhcurveto
          -100 -102 -50 -72 -42 28 -30 53 29 26 11 18 19 hvcurveto
          -10 11 -5 16 13 vvcurveto
          30 24 25 43 45 24 -26 -61 vhcurveto
          -82 vlineto
          -196 -3 -104 -68 -98 vvcurveto
          -83 68 -46 98 75 59 34 55 46 vhcurveto
          -58 42 70 -31 88 hhcurveto
          99 79 62 54 15 -6 15 -13 6 hvcurveto
          -34 -32 -44 -25 -62 hhcurveto
          -79 -55 44 118 -3 hvcurveto
          endchar
        </CharString>
        <CharString name="agrave">
          -55 273 586 -6 callgsubr
          158 -534 -82 callgsubr
        </CharString>
        <CharString name="amacron">
          -55 403 611 rmoveto
          103 callsubr
          -300 hlineto
          103 callgsubr
          242 -485 -82 callgsubr
        </CharString>
        <CharString name="ampersand">
          152 250 358 rmoveto
          88 18 69 36 -29 hvcurveto
          -85 -54 45 70 53 33 35 42 44 26 -27 -68 2 hvcurveto
          66 -20 52 36 50 vvcurveto
          56 -69 46 -88 -103 -107 -87 -127 -69 30 -58 59 -26 vhcurveto
          -62 -35 -48 -54 -80 vvcurveto
          -126 112 -87 165 164 121 115 143 43 -10 33 -17 33 vhcurveto
          4 hlineto
          112 51 44 67 61 -59 51 -84 -39 hvcurveto
          -65 12 -16 -45 -109 hhcurveto
          -73 -6 -45 -37 20 hvcurveto
          65 33 -38 -63 -86 -87 -55 -98 -106 -77 53 86 45 19 38 37 29 hvcurveto
          endchar
        </CharString>
        <CharString name="ampersand.alt">
          159 333 91 rmoveto
          -91 -60 49 70 48 21 38 64 40 hvcurveto
          19 -22 22 -23 24 -27 54 -59 44 -46 37 -36 rrcurveto
          -20 -40 -46 -12 -48 hhcurveto
          11 563 rmoveto
          38 32 -29 -53 -45 -23 -45 -59 -38 hvcurveto
          -43 56 -15 36 33 vvcurveto
          54 33 31 37 vhcurveto
          411 -528 rmoveto
          -13 -15 -19 -10 -22 hhcurveto
          -20 -23 8 34 -41 hvcurveto
          48 57 29 67 61 vvcurveto
          58 -33 34 -44 -24 -22 -11 -15 -17 vhcurveto
          24 -25 12 -30 -42 vvcurveto
          -37 -12 -34 -20 -30 vhcurveto
          -31 30 -38 39 -46 50 -25 27 -22 24 -18 22 rrcurveto
          97 47 75 53 82 vvcurveto
          76 -79 71 -125 -104 -100 -62 -98 -53 20 -41 62 -76 vhcurveto
          -123 -66 -48 -64 -79 vvcurveto
          -104 89 -84 162 84 78 29 44 64 vhcurveto
          -62 72 39 -11 50 hhcurveto
          54 30 40 42 18 -6 19 -12 15 hvcurveto
          endchar
        </CharString>
        <CharString name="aogonek">
          -55 345 126 rmoveto
          -33 -27 -32 -17 -36 hhcurveto
          -38 -27 16 41 49 41 43 119 7 hvcurveto
          181 -191 rmoveto
          -32 8 -20 22 42 vvcurveto
          242 vlineto
          121 -85 51 -113 -109 -98 -42 -78 -36 28 -30 53 29 26 10 18 19 vhcurveto
          -10 11 -5 14 16 vvcurveto
          35 28 22 39 40 29 -25 -53 vhcurveto
          -101 vlineto
          -196 -3 -104 -68 -98 vvcurveto
          -83 62 -46 86 69 52 31 40 34 vhcurveto
          5 -30 13 -20 21 -11 rrcurveto
          -42 -26 -27 -36 -40 223 callsubr
        </CharString>
        <CharString name="apostrophemod">
          -373 87 746 rmoveto
          71 callgsubr
        </CharString>
        <CharString name="approxequal">
          103 523 284 rmoveto
          231 callsubr
          -33 -3 -23 -22 -37 hhcurveto
          231 vmoveto
          -85 -140 65 -87 hhcurveto
          -70 -52 -46 -61 -31 14 -21 22 -7 hvcurveto
          34 3 23 21 38 77 137 -63 97 hhcurveto
          70 52 45 61 28 -14 21 -22 10 hvcurveto
          -34 -3 -23 -22 -37 hhcurveto
          endchar
        </CharString>
        <CharString name="aring">
          -55 277 727 101 callsubr
          -150 rmoveto
          59 51 30 62 62 -51 31 -59 -59 -51 -31 -62 -62 51 -30 59 hvcurveto
          63 -451 -82 callgsubr
        </CharString>
        <CharString name="asciicircum">
          64 394 659 rmoveto
          41 -19 -17 19 -29 hhcurveto
          -28 -24 -19 -38 -22 hvcurveto
          -154 -275 rlineto
          -18 -31 -7 -26 -21 vvcurveto
          -50 42 -23 37 vhcurveto
          175 335 126 -262 rlineto
          -57 27 27 -27 33 hhcurveto
          16 19 7 15 18 hvcurveto
          endchar
        </CharString>
        <CharString name="asciitilde">
          103 586 461 rmoveto
          -33 -3 -23 -22 -37 231 callsubr
          endchar
        </CharString>
        <CharString name="asterisk">
          6 371 862 rmoveto
          43 -21 33 -45 -40 -21 -33 -41 -35 16 -45 15 -33 vhcurveto
          32 -34 -55 38 -38 hhcurveto
          -29 -35 -20 -44 -45 60 -26 59 -1 hvcurveto
          18 18 2 3 16 hvcurveto
          -48 -26 -62 -48 -47 vvcurveto
          -26 26 -37 36 60 29 88 62 10 vhcurveto
          -63 10 30 -86 58 hhcurveto
          32 33 30 30 48 -62 49 -49 26 hvcurveto
          -4 16 20 -3 17 hhcurveto
          58 1 61 26 46 vvcurveto
          43 -30 22 -32 -43 -55 -43 -31 -34 vhcurveto
          16 32 19 47 36 vvcurveto
          endchar
        </CharString>
        <CharString name="at">
          317 520 194 rmoveto
          -27 -26 -30 -15 -32 hhcurveto
          -36 -24 14 34 3 hvcurveto
          2 40 41 35 107 6 rrcurveto
          124 103 rmoveto
          101 6 -72 42 -103 hhcurveto
          -99 -96 -41 -60 -3 hvcurveto
          -35 -2 24 -25 48 hhcurveto
          27 24 9 14 18 hvcurveto
          -8 10 -4 14 1 10 rrcurveto
          26 1 23 20 39 hhcurveto
          43 19 -22 -50 -3 hvcurveto
          -4 -68 -179 -4 -98 -56 -5 -81 rlinecurve
          -69 -5 54 -38 79 hhcurveto
          63 51 25 35 33 hvcurveto
          -41 11 36 -20 50 hhcurveto
          120 115 103 178 173 -128 147 -215 -261 -189 -189 -251 -223 152 -106 173 142 114 57 38 -35 hvcurveto
          -27 -63 -68 -14 -73 hhcurveto
          -165 -117 86 189 222 143 159 233 5 hvcurveto
          187 4 114 -114 -4 -171 rrcurveto
          -139 -4 -68 -63 -53 hhcurveto
          -22 -10 13 27 2 hvcurveto
          endchar
        </CharString>
        <CharString name="atilde">
          -55 153 596 rmoveto
          60 callgsubr
          134 callgsubr
          192 -470 -82 callgsubr
        </CharString>
        <CharString name="b">
          -12 210 359 rmoveto
          51 25 43 25 43 hhcurveto
          64 53 -57 -117 -120 -56 -76 -84 -54 -34 25 65 hvcurveto
          1 520 rmoveto
          67 -26 33 -56 -34 -26 -16 -22 -18 vhcurveto
          21 -11 10 -18 -30 vvcurveto
          -1 -523 rlineto
          -125 83 -40 128 155 120 109 176 163 -95 89 -114 -61 -51 -25 -47 -35 vhcurveto
          endchar
        </CharString>
        <CharString name="backslash">
          -3 121 1020 rmoveto
          -14 -20 -4 -14 -17 hvcurveto
          14 -10 12 -31 7 -21 212 -604 45 -140 91 -257 rrcurveto
          -24 8 20 -54 48 hhcurveto
          13 17 2 17 20 hvcurveto
          -10 9 -15 32 -8 23 -110 311 -118 352 -120 335 rrcurveto
          24 -8 -19 54 -48 hhcurveto
          endchar
        </CharString>
        <CharString name="bar">
          -268 234 851 rmoveto
          284 callgsubr
          93 callsubr
          -10 10 -18 -30 vvcurveto
          -960 vlineto
          364 callsubr
          22 18 vhcurveto
          -21 10 -9 19 30 vvcurveto
          endchar
        </CharString>
        <CharString name="braceleft">
          -97 389 976 rmoveto
          23 -16 -41 11 -26 hhcurveto
          -72 -80 -56 -139 hvcurveto
          -88 25 -106 -81 -116 -79 1 -34 -33 79 -1 -115 -82 -25 -107 -91 vvcurveto
          -137 80 -58 72 26 41 12 22 16 vhcurveto
          -64 13 -46 48 79 68 24 153 71 vvcurveto
          119 -92 37 -14 2 vhcurveto
          13 1 93 38 120 69 -24 151 66 vvcurveto
          80 46 48 64 12 vhcurveto
          endchar
        </CharString>
        <CharString name="braceright">
          -97 334 815 rmoveto
          139 -79 56 -72 -26 -41 -11 -23 -16 vhcurveto
          64 -12 45 -48 -80 -66 -23 -151 -69 vvcurveto
          -120 93 -38 13 -1 vhcurveto
          -14 -2 -92 -37 -119 -71 23 -153 -68 vvcurveto
          -79 -45 -48 -64 -13 vhcurveto
          -22 16 41 -12 26 hhcurveto
          72 79 58 137 hvcurveto
          91 -24 107 82 115 79 1 33 34 -79 -1 116 81 24 106 88 vvcurveto
          endchar
        </CharString>
        <CharString name="bracketleft">
          -179 183 -100 rmoveto
          986 192 vlineto
          3 4 2 10 8 vvcurveto
          65 -66 0 -27 vhcurveto
          -233 -1033 hlineto
          -127 87 0 36 418 callsubr
          3 5 2 10 8 vvcurveto
          64 -66 0 -27 vhcurveto
          endchar
        </CharString>
        <CharString name="bracketright">
          -179 253 886 rmoveto
          -986 -193 vlineto
          -1 -5 -3 -9 -9 vvcurveto
          -64 66 0 27 vhcurveto
          233 1033 hlineto
          127 -88 0 -35 vhcurveto
          -199 hlineto
          -1 -5 -3 -10 -8 vvcurveto
          -64 66 0 27 vhcurveto
          endchar
        </CharString>
        <CharString name="breve">
          -237 255 720 rmoveto
          -58 -24 -27 -46 -44 -25 27 58 vhcurveto
          3 -11 -16 3 -16 hhcurveto
          -33 -28 -18 -29 -45 59 -45 114 115 59 45 45 29 -29 18 -32 -16 -16 -3 -3 -11 hvcurveto
          endchar
        </CharString>
        <CharString name="brokenbar">
          -268 235 231 rmoveto
          284 callgsubr
          -34 -25 195 callgsubr
          -9 10 -19 -29 vvcurveto
          -244 vlineto
          -67 25 -33 57 34 24 16 22 18 vhcurveto
          -20 10 -9 19 30 vvcurveto
          792 vmoveto
          284 callgsubr
          -34 -25 136 callsubr
          -10 10 -19 -29 vvcurveto
          -244 vlineto
          -67 25 -33 57 34 279 callgsubr
          -9 18 31 vvcurveto
          endchar
        </CharString>
        <CharString name="bullet">
          -120 382 433 rmoveto
          66 -47 52 -70 -82 -82 -78 -85 -66 48 -52 70 86 77 77 86 vhcurveto
          endchar
        </CharString>
        <CharString name="c">
          -97 471 417 rmoveto
          264 callgsubr
          -155 96 -92 143 99 81 59 57 126 callgsubr
          hvcurveto
          endchar
        </CharString>
        <CharString name="cacute">
          -97 471 417 rmoveto
          264 callgsubr
          -155 96 -92 143 99 81 59 57 126 callgsubr
          hvcurveto
          -119 238 -74 callsubr
          endchar
        </CharString>
        <CharString name="caron">
          -257 176 663 rmoveto
          -89 81 rlineto
          12 -13 -14 5 -13 hhcurveto
          -15 -14 -7 -14 -6 hvcurveto
          71 -106 rlineto
          -40 27 21 -25 45 hhcurveto
          44 21 25 40 27 hvcurveto
          71 106 rlineto
          14 -6 -13 7 -17 hhcurveto
          -12 -14 -5 -12 -13 hvcurveto
          endchar
        </CharString>
        <CharString name="ccaron">
          -97 420 740 -67 callsubr
          100 -491 rmoveto
          59 callsubr
          264 callgsubr
          -155 96 -92 143 99 81 59 57 16 353 callsubr
          hvcurveto
          endchar
        </CharString>
        <CharString name="ccedilla">
          -97 194 67 callsubr
          12 54 rlineto
          98 1 80 58 57 vvcurveto
          126 callgsubr
          264 callgsubr
          -125 62 -83 98 -29 hvcurveto
          endchar
        </CharString>
        <CharString name="cedilla">
          -243 215 -64 rmoveto
          18 81 rlineto
          -83 hlineto
          -19 -88 rlineto
          0 callsubr
          endchar
        </CharString>
        <CharString name="cent">
          -97 361 567 rmoveto
          68 -26 33 -57 -33 -25 -17 -22 -19 vhcurveto
          21 166 callgsubr
          -56 vlineto
          -110 -37 -73 -111 -129 vvcurveto
          -122 60 -83 95 -30 vhcurveto
          -52 vlineto
          -67 26 -33 57 34 24 16 23 18 281 callgsubr
          47 vlineto
          77 15 57 49 48 vvcurveto
          126 callgsubr
          54 -47 39 -63 12 hvcurveto
          endchar
        </CharString>
        <CharString name="circumflex">
          -257 268 696 113 callgsubr
        </CharString>
        <CharString name="colon">
          -241 269 463 197 callsubr
          -371 vmoveto
          40 -28 30 -42 -50 -48 -47 -50 -40 29 -31 42 51 46 47 51 vhcurveto
          endchar
        </CharString>
        <CharString name="comma">
          -285 148 -45 rmoveto
          -52 -22 -46 -45 -34 vhcurveto
          -20 5 14 -8 15 hhcurveto
          63 87 97 117 79 -42 55 -57 -45 -32 -35 -37 -10 hvcurveto
          46 -23 23 -42 -51 vvcurveto
          endchar
        </CharString>
        <CharString name="commaaccent">
          -425 173 -137 rmoveto
          283 callsubr
          -22 -26 -10 vhcurveto
          -14 callgsubr
          hvcurveto
          endchar
        </CharString>
        <CharString name="commaaccent.alt">
          -383 208 672 150 callgsubr
        </CharString>
        <CharString name="copyright">
          261 603 507 rmoveto
          62 -68 40 -76 -137 -96 -123 -136 -133 81 -88 130 93 72 58 51 16 -8 13 -9 4 vhcurveto
          -35 -30 -40 -24 -55 hhcurveto
          -69 -54 51 102 99 43 76 61 36 18 -27 -30 -6 -2 -8 -1 -6 hvcurveto
          -10 14 16 -6 19 hhcurveto
          35 27 22 38 hvcurveto
          -476 -144 rmoveto
          182 117 148 190 192 115 -148 -182 -182 -117 -145 -190 -191 -116 145 182 vhcurveto
          670 hmoveto
          220 -155 156 -208 -207 -155 -156 -220 -220 155 -153 207 208 155 153 220 vhcurveto
          endchar
        </CharString>
        <CharString name="currency">
          78 354 222 rmoveto
          -69 -50 42 110 -8 hvcurveto
          111 -7 43 41 69 hhcurveto
          69 51 -41 -111 7 hvcurveto
          -110 10 -46 -42 -69 hhcurveto
          272 353 rmoveto
          -7 27 -20 16 -25 2 -25 6 -31 -11 -26 -27 -24 -25 rcurveline
          20 -36 -42 10 -46 hhcurveto
          -46 -43 -10 -20 -36 hvcurveto
          -25 25 -27 27 -29 11 -26 -6 rlinecurve
          -24 -2 -21 -16 -7 -27 86 -84 rcurveline
          -18 -32 -10 -39 -46 vvcurveto
          -47 11 -40 19 -32 vhcurveto
          -88 -86 7 -27 20 -16 25 -1 rlinecurve
          26 -7 29 11 27 27 28 28 rcurveline
          -19 35 42 -9 45 hhcurveto
          44 42 9 19 34 hvcurveto
          28 -28 27 -27 30 -11 25 7 rlinecurve
          25 1 20 16 7 27 -87 86 rcurveline
          18 32 11 39 48 vvcurveto
          46 -10 39 -18 32 vhcurveto
          endchar
        </CharString>
        <CharString name="d">
          -18 102 callsubr
          endchar
        </CharString>
        <CharString name="dagger">
          49 233 callgsubr
          117 72 2 3 53 hvcurveto
          -4 -32 -2 -47 -88 vvcurveto
          -175 4 -240 -1 -93 vhcurveto
          -28 -4 -44 -10 -16 vhcurveto
          -4 14 12 -1 10 hhcurveto
          88 2 92 36 101 -1 163 -1 176 hvcurveto
          -1 80 -1 68 223 callgsubr
        </CharString>
        <CharString name="daggerdbl">
          42 233 callgsubr
          118 73 2 3 51 hvcurveto
          -4 -41 -1 -84 -120 vvcurveto
          -82 0 -37 5 -57 vhcurveto
          -34 1 -43 1 -50 1 rrcurveto
          312 callsubr
          -13 3 -6 hvcurveto
          90 99 2 3 52 hvcurveto
          -3 -37 -1 -50 -61 vvcurveto
          -32 -3 -43 -10 -16 vhcurveto
          -5 13 13 -1 10 hhcurveto
          86 2 92 35 41 -3 38 -4 38 hvcurveto
          36 -2 44 -1 53 -1 rrcurveto
          35 84 0 84 8 -3 12 -2 6 hvcurveto
          -121 -1 -75 -2 -51 -3 rrcurveto
          4 32 1 74 73 vvcurveto
          -1 130 -1 63 223 callgsubr
        </CharString>
        <CharString name="danda">
          -68 361 536 rmoveto
          176 callsubr
          12 vhcurveto
          -10 308 callsubr
          endchar
        </CharString>
        <CharString name="dcaron">
          126 102 callsubr
          135 693 rmoveto
          399 callgsubr
          316 callsubr
          hvcurveto
          endchar
        </CharString>
        <CharString name="dcroat">
          -18 383 123 rmoveto
          -31 -19 -34 -18 -38 hhcurveto
          -71 -52 57 125 129 59 68 72 33 30 -12 -21 20 hvcurveto
          147 172 rmoveto
          103 callsubr
          -78 13 hlineto
          386 callsubr
          -18 vhcurveto
          21 -11 10 -18 -30 vvcurveto
          -16 -93 vlineto
          103 callgsubr
          153 -80 hlineto
          10 -27 -33 5 -31 hhcurveto
          -154 -101 -122 -161 -163 104 -91 119 48 50 21 35 30 hvcurveto
          -38 10 25 -18 42 hhcurveto
          270 callgsubr
          hvcurveto
          20 callgsubr
          505 vlineto
          endchar
        </CharString>
        <CharString name="degree">
          -118 246 873 rmoveto
          -100 -73 -66 -98 -99 72 -67 100 100 72 68 99 97 -72 66 -99 hvcurveto
          -248 vmoveto
          -49 -31 36 49 48 30 35 49 48 31 -35 -49 -49 -30 -35 -48 hvcurveto
          endchar
        </CharString>
        <CharString name="dieresis">
          -256 340 670 33 callgsubr
          endchar
        </CharString>
        <CharString name="divide">
          81 167 464 rmoveto
          312 callsubr
          -12 3 -6 hvcurveto
          468 hlineto
          34 85 0 84 8 -2 12 -3 5 hvcurveto
          -205 -243 rmoveto
          338 callgsubr
          408 vmoveto
          338 callgsubr
          endchar
        </CharString>
        <CharString name="dollar">
          61 423 780 rmoveto
          68 -27 32 -56 -34 -25 -17 -22 -18 vhcurveto
          20 -10 11 -18 -30 vvcurveto
          -48 vlineto
          -113 -18 -91 -70 -106 -208 411 -5 -146 vvcurveto
          -65 -63 -43 -89 -91 -52 39 44 22 10 19 14 14 vhcurveto
          16 -17 -24 12 -31 hhcurveto
          -42 -42 -31 -53 -79 78 -59 111 -20 hvcurveto
          -48 vlineto
          -67 25 -33 56 35 25 16 23 17 vhcurveto
          -21 10 -8 18 30 vvcurveto
          45 vlineto
          132 15 106 82 116 212 -411 16 134 vvcurveto
          90 callsubr
          69 -72 57 -115 16 hvcurveto
          endchar
        </CharString>
        <CharString name="dotaccent">
          -441 155 682 rmoveto
          199 callgsubr
          43 40 40 43 vhcurveto
          endchar
        </CharString>
        <CharString name="dotlessi">
          -317 212 427 141 callgsubr
        </CharString>
        <CharString name="dottedcircle">
          52 139 517 rmoveto
          -26 18 -19 26 26 18 19 26 25 -18 19 -26 -26 -18 -19 -25 vhcurveto
          -82 -110 rmoveto
          -25 20 -19 26 24 20 19 25 25 -20 19 -24 -26 -20 -19 -25 vhcurveto
          -13 -126 rmoveto
          -25 19 -18 25 26 18 18 426 callgsubr
          52 -116 rmoveto
          -26 18 -18 26 25 19 18 26 25 -19 19 -25 -26 -18 -19 -25 vhcurveto
          101 -75 rmoveto
          -26 19 -20 26 25 19 20 26 24 -19 20 -25 -26 -19 -20 -24 vhcurveto
          127 -16 rmoveto
          -26 18 -18 26 26 19 18 26 26 -19 18 -26 -26 -18 -18 -26 vhcurveto
          121 53 rmoveto
          -26 19 -18 25 25 20 18 26 25 -20 19 -25 -25 -19 -19 -25 vhcurveto
          73 98 rmoveto
          -25 19 -19 26 24 19 19 25 26 -19 19 -24 -26 -19 -19 -26 vhcurveto
          10 134 rmoveto
          -26 18 -18 26 25 19 18 26 26 -19 18 -25 -26 -18 -18 -26 vhcurveto
          -50 118 rmoveto
          -25 19 -19 25 26 18 19 426 callgsubr
          -95 68 rmoveto
          -24 19 -20 26 25 18 20 24 26 -18 19 -25 -26 -19 -19 -26 vhcurveto
          -126 15 rmoveto
          -26 18 -18 26 26 18 18 26 26 -18 18 -26 -26 -18 -18 -26 vhcurveto
          endchar
        </CharString>
        <CharString name="doubledanda">
          113 361 536 rmoveto
          176 callsubr
          12 vhcurveto
          -10 308 callsubr
          243 hmoveto
          176 callsubr
          13 vhcurveto
          -11 308 callsubr
          endchar
        </CharString>
        <CharString name="dvA">
          156 460 662 25 callgsubr
        </CharString>
        <CharString name="dvAA">
          434 460 662 rmoveto
          -80 callsubr
        </CharString>
        <CharString name="dvAI">
          -31 460 244 callgsubr
          -470 -13 callgsubr
          28 265 callsubr
          -57 -2 -47 -43 -176 349 -29 -106 vvcurveto
          -27 -22 -16 -34 vhcurveto
          -2 16 -63 70 50 27 38 42 vhcurveto
          166 -347 14 158 49 2 47 46 vvcurveto
          -67 callgsubr
          233 hlineto
          17 -24 21 -40 -58 vvcurveto
          -65 -43 -29 -47 -13 -13 2 4 -12 vhcurveto
          -58 3 48 -37 55 hhcurveto
          79 34 64 67 51 -18 65 -40 58 hvcurveto
          168 -84 callsubr
        </CharString>
        <CharString name="dvAU">
          434 937 387 callgsubr
          300 callgsubr
          192 callgsubr
          vhcurveto
          89 callsubr
          -406 hlineto
          -80 callsubr
        </CharString>
        <CharString name="dvAbbreviationsign">
          -214 204 165 rmoveto
          103 54 79 77 75 -50 72 -103 -103 -54 -80 -77 -75 50 -71 103 hvcurveto
          2 236 rmoveto
          47 23 -44 -43 -40 -22 -41 -47 -47 -24 44 43 41 23 40 47 hvcurveto
          endchar
        </CharString>
        <CharString name="dvAcandra">
          156 622 143 callsubr
          -162 -91 25 callgsubr
        </CharString>
        <CharString name="dvAnusvara">
          -139 750 106 callgsubr
          endchar
        </CharString>
        <CharString name="dvAnusvara.amI">
          94 791 106 callgsubr
          endchar
        </CharString>
        <CharString name="dvAvagraha">
          -89 108 561 rmoveto
          -134 247 -79 -121 vvcurveto
          -48 -36 -26 -55 -60 -64 36 72 -61 vhcurveto
          -16 -6 -7 -12 -14 vvcurveto
          -60 125 -111 120 94 65 54 86 vhcurveto
          158 -239 77 89 vvcurveto
          32 25 13 59 47 50 0 -1 44 vhcurveto
          2 6 3 10 10 vvcurveto
          66 -71 4 -85 -76 -111 -2 -99 vhcurveto
          endchar
        </CharString>
        <CharString name="dvB">
          -252 255 callgsubr
          -350 258 callsubr
          50 25 rmoveto
          -54 callsubr
          105 88 70 72 31 -18 28 -33 14 vhcurveto
          -19 -43 -30 -32 -34 -21 rrcurveto
          endchar
        </CharString>
        <CharString name="dvBA">
          -27 279 217 rmoveto
          -7 -17 -19 -3 -20 hhcurveto
          -54 -48 37 55 58 callsubr
          338 122 callsubr
          -125 148 76 callsubr
          -103 109 -124 125 370 callgsubr
          vhcurveto
          -7 -22 -4 -24 -24 vvcurveto
          -50 21 -51 63 200 callsubr
          11 -40 callgsubr
        </CharString>
        <CharString name="dvBH">
          -228 399 277 408 callgsubr
          -42 5 -74 6 -78 2 rrcurveto
          159 -6 -83 128 -90 14 callsubr
          -37 -1 -29 -1 -23 vhcurveto
          -39 -2 -49 -11 368 callgsubr
          271 callsubr
          vhcurveto
          endchar
        </CharString>
        <CharString name="dvBHA">
          41 308 169 callgsubr
          -37 0 -33 -1 -30 vhcurveto
          -53 265 callgsubr
          -90 14 callsubr
          -37 -1 -29 -1 -23 vhcurveto
          -39 -2 -49 -11 368 callgsubr
          271 callsubr
          vhcurveto
          179 hlineto
          -2 -56 -1 -47 -49 vvcurveto
          -42 3 -89 85 3 callsubr
        </CharString>
        <CharString name="dvBH_LA">
          494 307 -98 callsubr
          490 275 callgsubr
          -65 -52 -31 -55 -24 hvcurveto
          -40 4 -51 3 -51 1 rrcurveto
          159 -6 -83 128 -90 14 callsubr
          -37 -1 -29 -1 -23 vhcurveto
          -39 -2 -49 -11 368 callgsubr
          271 callsubr
          vhcurveto
          122 hlineto
          9 hlineto
          -136 7 125 -133 58 hhcurveto
          16 10 9 11 6 hvcurveto
          -93 callsubr
        </CharString>
        <CharString name="dvBH_NA">
          41 308 169 callgsubr
          -32 0 -30 -1 -27 vhcurveto
          -53 4 -65 3 -57 2 rrcurveto
          143 -7 -81 132 -91 14 callsubr
          vhcurveto
          -32 -1 -25 -21 vvcurveto
          -40 301 callsubr
          -47 64 -70 61 37 18 36 47 8 vhcurveto
          179 hlineto
          -1 -60 rlineto
          -90 -43 -208 -63 -70 vvcurveto
          -50 69 -43 49 35 28 21 36 15 -5 18 -9 21 vhcurveto
          142 75 rlineto
          -4 -21 -2 -26 -16 vvcurveto
          -52 30 -38 51 3 callsubr
        </CharString>
        <CharString name="dvBH_R">
          -228 399 288 408 callgsubr
          -43 5 -74 6 -77 2 rrcurveto
          144 -7 -81 132 -91 14 callsubr
          vhcurveto
          -32 -1 -25 -21 vvcurveto
          -40 301 callsubr
          -47 64 -70 61 37 18 35 46 7 vhcurveto
          187 -27 rmoveto
          -60 -54 -131 -93 -135 -32 rrcurveto
          -43 414 callgsubr
          88 193 144 64 22 -14 16 -20 8 hvcurveto
          endchar
        </CharString>
        <CharString name="dvBH_RA">
          41 308 169 callgsubr
          -89 vlineto
          -53 4 -66 3 -57 2 rrcurveto
          143 -7 -81 132 -91 14 callsubr
          vhcurveto
          -32 -1 -25 -21 vvcurveto
          -40 301 callsubr
          -47 64 -70 61 37 18 36 47 8 vhcurveto
          180 -28 hlineto
          -63 -50 -152 -98 -111 -24 rrcurveto
          -44 3 35 -35 51 hhcurveto
          40 99 45 102 106 hvcurveto
          -4 -20 -3 -27 -19 vvcurveto
          -48 20 -50 63 3 callsubr
        </CharString>
        <CharString name="dvBH_R_YA">
          361 758 -101 callsubr
          -14 34 -18 27 vhcurveto
          -285 97 rmoveto
          153 callgsubr
          vvcurveto
          -72 -94 -32 -41 -39 vhcurveto
          -40 4 -50 3 -51 1 rrcurveto
          144 -7 -81 132 -91 14 callsubr
          vhcurveto
          -32 -1 -25 -21 vvcurveto
          -40 301 callsubr
          -47 64 -70 61 37 18 35 46 7 vhcurveto
          123 hlineto
          369 callgsubr
          8 -14 9 -14 11 -14 -65 -54 -121 -82 -124 -29 rrcurveto
          -43 414 callgsubr
          83 174 127 68 22 hvcurveto
          -34 45 56 -25 58 hhcurveto
          57 43 18 25 33 hvcurveto
          -5 -29 -4 -31 -26 vvcurveto
          -54 17 -52 63 -101 callgsubr
        </CharString>
        <CharString name="dvBH_VA">
          320 310 110 callsubr
          314 -16 callgsubr
          -64 -71 -38 -83 -11 vhcurveto
          -37 3 -45 3 -45 1 rrcurveto
          159 -6 -83 128 -90 14 callsubr
          -37 -1 -29 -1 -23 vhcurveto
          -39 -2 -49 -11 368 callgsubr
          271 callsubr
          vhcurveto
          122 hlineto
          9 8 1 1 7 hvcurveto
          -79 33 84 -71 93 199 callsubr
          -24 -4 -28 -27 vvcurveto
          -50 20 -51 63 200 callsubr
          11 -95 callsubr
        </CharString>
        <CharString name="dvBH_YA">
          347 745 -101 callsubr
          -14 34 -18 27 vhcurveto
          -285 97 rmoveto
          153 callgsubr
          vvcurveto
          -77 -109 -32 -35 -43 vhcurveto
          -35 3 -42 2 -42 1 rrcurveto
          159 -6 -83 128 -90 14 callsubr
          -37 -1 -29 -1 -23 vhcurveto
          -39 -2 -49 -11 368 callgsubr
          271 callsubr
          vhcurveto
          122 hlineto
          5 5 0 4 hhcurveto
          -67 41 92 -67 95 hhcurveto
          57 43 18 25 33 hvcurveto
          -5 -29 -4 -31 -26 vvcurveto
          -54 17 -52 63 -101 callgsubr
        </CharString>
        <CharString name="dvB_BA">
          323 629 217 138 callsubr
          -221 -150 29 callsubr
          688 122 callsubr
          -125 148 76 callsubr
          -17 3 -17 5 -17 vhcurveto
          -17 -24 -21 -19 -23 -14 -129 153 rcurveline
          -54 callsubr
          76 67 36 48 31 vhcurveto
          -49 43 62 -35 67 hhcurveto
          370 callgsubr
          hvcurveto
          -7 -22 -4 -24 -24 vvcurveto
          -50 21 -51 63 200 callsubr
          11 -40 callgsubr
        </CharString>
        <CharString name="dvB_BHA">
          377 281 215 rmoveto
          -4 -16 -16 -3 -18 241 callgsubr
          491 297 315 callgsubr
          -37 0 -33 -1 -30 vhcurveto
          -52 265 callgsubr
          -91 378 callsubr
          -338 118 callgsubr
          304 -3 hlineto
          108 callsubr
          0 -29 -1 -23 vhcurveto
          -44 -2 -28 -11 -28 -38 -25 -34 -27 -32 -32 -22 -127 151 rcurveline
          -54 callsubr
          88 69 50 57 38 vhcurveto
          -25 23 30 -18 30 hhcurveto
          271 callsubr
          hvcurveto
          178 hlineto
          -1 -56 -1 -47 -49 vvcurveto
          -42 3 -89 85 9 13 1 5 12 -102 callsubr
        </CharString>
        <CharString name="dvB_BH_RA">
          376 280 215 rmoveto
          -5 -16 237 callsubr
          491 287 callsubr
          36 363 callgsubr
          -89 vlineto
          -53 4 -66 3 -57 2 rrcurveto
          143 -7 -81 132 -91 hhcurveto
          -32 -24 -12 -19 -16 hvcurveto
          27 -21 -43 3 -28 hhcurveto
          -336 118 callgsubr
          304 83 callgsubr
          vhcurveto
          -32 -1 -25 -21 vvcurveto
          -84 -5 8 -34 -45 -57 -18 -24 -21 -18 -22 -14 -129 153 rcurveline
          -54 callsubr
          89 79 52 67 37 vhcurveto
          -17 20 26 -13 26 hhcurveto
          37 18 36 47 8 hvcurveto
          180 -28 hlineto
          -63 -50 -152 -98 -111 -24 rrcurveto
          -44 3 35 -35 51 hhcurveto
          40 99 45 102 106 hvcurveto
          -4 -20 -3 -27 -19 vvcurveto
          -48 20 -50 63 3 callsubr
        </CharString>
        <CharString name="dvB_DA">
          221 281 215 29 callsubr
          603 283 callgsubr
          -78 -275 16 -190 vvcurveto
          -9 vlineto
          -14 -15 -15 -13 -17 -10 -129 153 rcurveline
          -54 callsubr
          58 54 22 31 35 vhcurveto
          -64 50 88 -47 87 hhcurveto
          347 callgsubr
          hvcurveto
          -60 callsubr
        </CharString>
        <CharString name="dvB_DHA">
          351 281 215 rmoveto
          -5 -15 -16 -2 -19 241 callgsubr
          553 297 rmoveto
          -2 356 callgsubr
          -79 vvcurveto
          -70 370 callsubr
          -59 -35 -70 -41 -69 hhcurveto
          -48 -41 27 44 398 callgsubr
          36 39 19 36 41 -41 26 -45 -34 -26 -9 -15 -22 hvcurveto
          -7 14 -3 15 16 vvcurveto
          57 37 47 64 vhcurveto
          13 -107 callgsubr
          -553 118 callgsubr
          306 hlineto
          13 25 1 2 23 hvcurveto
          -15 -23 -6 -25 -23 vvcurveto
          -47 23 -44 35 -32 vhcurveto
          -36 -45 -28 -57 -48 -34 -128 152 76 callsubr
          -115 114 -110 122 75 61 39 47 36 vhcurveto
          -53 38 71 -44 83 hhcurveto
          62 47 22 34 35 hvcurveto
          -6 -27 -3 -28 -19 vvcurveto
          -49 18 -48 64 9 13 211 callsubr
          166 -107 callgsubr
          endchar
        </CharString>
        <CharString name="dvB_DH_VA">
          670 279 217 rmoveto
          -6 -16 -18 -3 -20 hhcurveto
          -56 -48 34 57 170 callgsubr
          544 287 callsubr
          277 hlineto
          -56 callgsubr
          -49 29 -59 -63 -53 -34 -85 -35 vhcurveto
          -87 -36 -45 -94 -97 hhcurveto
          -44 -37 29 42 398 callgsubr
          37 38 19 36 418 callgsubr
          -31 -25 -8 -14 -22 hvcurveto
          -7 14 -3 16 17 vvcurveto
          53 38 47 63 vhcurveto
          13 -107 callgsubr
          -548 118 callgsubr
          295 hlineto
          20 23 1 3 24 hvcurveto
          -15 -23 -6 -25 -24 vvcurveto
          -46 22 -42 33 -32 vhcurveto
          -38 -42 -29 -55 -42 -35 -123 145 76 callsubr
          -114 113 -110 117 78 61 47 48 30 vhcurveto
          -57 35 75 -49 85 hhcurveto
          75 67 53 68 30 hvcurveto
          -59 41 68 -43 73 199 callsubr
          -24 -4 -28 -27 vvcurveto
          -50 20 -51 63 200 callsubr
          11 -95 callsubr
        </CharString>
        <CharString name="dvB_JA">
          473 281 215 258 callsubr
          169 297 rmoveto
          0 -13 vlineto
          -370 118 callgsubr
          368 0 hlineto
          6 5 0 5 hhcurveto
          455 hlineto
          13 -21 1 -45 -37 vvcurveto
          -14 -324 vlineto
          -3 -5 -2 -11 -7 vvcurveto
          -59 49 -13 38 -2 vhcurveto
          23 -24 15 -30 -29 vvcurveto
          -36 -22 -29 -44 -70 -74 91 149 -51 48 callsubr
          -18 18 hvcurveto
          173 hlineto
          -1 -90 -3 -67 -68 vvcurveto
          -42 3 -89 85 218 callgsubr
        </CharString>
        <CharString name="dvB_JHA">
          490 894 114 callgsubr
          -50 -1 -42 -38 vvcurveto
          -26 -24 -40 -19 -55 -63 -44 24 -53 -30 -28 -6 -25 153 callsubr
          27 140 callgsubr
          -493 -361 rmoveto
          -60 -50 36 59 27 11 23 19 16 hvcurveto
          138 -161 rlineto
          -351 458 rmoveto
          -62 callsubr
          612 49 callsubr
          -2 0 -69 hlineto
          -157 186 rlineto
          2 9 11 1 11 hhcurveto
          36 26 -12 427 callsubr
          9 4 18 13 vvcurveto
          49 -53 30 -66 -85 -80 -54 -95 -115 118 -116 120 vhcurveto
          118 hlineto
          15 -35 33 -27 43 -19 rrcurveto
          -106 35 62 -105 96 hhcurveto
          46 34 27 39 22 -11 21 -18 13 hvcurveto
          -16 -18 -23 -5 -17 hhcurveto
          -53 -41 42 48 -27 hvcurveto
          -6 27 29 -3 29 hhcurveto
          98 74 54 86 29 -8 25 -12 276 callgsubr
          -39 -3 -41 -40 vvcurveto
          -58 18 -56 68 -97 callgsubr
          163 -105 callgsubr
        </CharString>
        <CharString name="dvB_J_YA">
          820 1218 30 callgsubr
          -793 -350 29 callsubr
          965 164 callsubr
          -75 -100 -30 -31 -42 vhcurveto
          71 -64 -57 2 -100 hhcurveto
          -99 hlineto
          -3 -5 -2 -11 -7 vvcurveto
          -59 49 -13 38 -2 vhcurveto
          23 -24 15 -30 -29 vvcurveto
          -36 -22 -29 -44 -70 -74 91 149 -51 48 callsubr
          -18 18 hvcurveto
          91 -1 23 -8 71 -88 rrcurveto
          -59 49 79 -51 83 hhcurveto
          57 44 18 25 32 hvcurveto
          -5 -28 -4 -32 -61 callgsubr
        </CharString>
        <CharString name="dvB_JxA">
          480 713 32 rmoveto
          -29 -18 -20 -27 -33 31 -31 33 29 18 21 25 34 -33 31 -31 hvcurveto
          -432 183 258 callsubr
          170 297 rmoveto
          0 -14 vlineto
          -370 118 callgsubr
          368 0 hlineto
          6 5 0 5 hhcurveto
          455 266 callgsubr
          -36 -22 -29 -43 -71 -73 91 149 -52 48 callsubr
          -17 18 hvcurveto
          327 callsubr
          -3 -67 -68 -70 callsubr
          163 -83 callgsubr
          endchar
        </CharString>
        <CharString name="dvB_LA">
          476 281 215 29 callsubr
          842 275 callgsubr
          -91 -65 -61 -102 -1 hvcurveto
          -17 -23 -20 -18 -22 -13 -129 153 rcurveline
          -54 callsubr
          58 52 21 31 36 vhcurveto
          -91 41 78 -71 43 hhcurveto
          16 10 9 11 6 hvcurveto
          -93 callsubr
        </CharString>
        <CharString name="dvB_L_YA">
          815 1213 -101 callsubr
          -14 34 -18 27 vhcurveto
          -788 -350 29 callsubr
          960 164 callsubr
          -55 -55 -32 -44 -29 vhcurveto
          23 -24 -37 17 -45 381 callsubr
          -91 -65 -61 -102 -1 hvcurveto
          -17 -23 -20 -18 -22 -13 -129 153 rcurveline
          -54 callsubr
          58 52 21 31 36 vhcurveto
          -91 41 78 -71 43 hhcurveto
          -89 callsubr
          21 -3 19 -6 19 vhcurveto
          34 17 33 20 34 7 6 -1 6 hhcurveto
          -3 vlineto
          365 callgsubr
          57 43 18 25 33 vhcurveto
          -5 -29 -4 -31 -26 vvcurveto
          -54 17 -52 63 -101 callgsubr
        </CharString>
        <CharString name="dvB_NA">
          -28 278 351 callsubr
          20 16 hvcurveto
          -215 373 callsubr
          338 363 callgsubr
          -60 -1 -52 -1 -47 vhcurveto
          -15 -28 -21 -23 -24 -17 -126 149 rcurveline
          -64 callsubr
          -85 -81 -54 -95 -86 75 -97 96 -24 vhcurveto
          -65 -27 -37 -30 -31 vvcurveto
          -50 68 402 callsubr
          18 -7 21 -12 25 vhcurveto
          63 39 51 30 26 32 rrcurveto
          -10 -27 -5 -26 -31 vvcurveto
          -50 20 -51 64 200 callsubr
          10 vhcurveto
          -10 16 -3 46 36 119 5 -100 callsubr
        </CharString>
        <CharString name="dvB_R">
          -252 455 565 rmoveto
          2 5 4 -87 callgsubr
          -418 118 callgsubr
          246 -354 rmoveto
          -5 -16 -16 -2 -16 hhcurveto
          -63 -52 33 62 170 callgsubr
          50 25 296 callsubr
          -85 -80 -54 -95 -94 91 -117 120 9 10 1 2 10 vhcurveto
          -55 -33 -60 -30 -56 -18 rrcurveto
          -45 15 34 -15 31 hhcurveto
          86 195 191 84 30 -15 22 -27 10 hvcurveto
          -20 -46 -31 -33 -36 -22 rrcurveto
          endchar
        </CharString>
        <CharString name="dvB_RA">
          -27 281 214 rmoveto
          -5 -17 -18 -3 -20 hhcurveto
          -56 -49 37 56 58 callsubr
          338 318 callsubr
          -128 152 76 callsubr
          -94 89 -116 115 4 5 0 1 5 vhcurveto
          -50 -33 -56 -29 -50 -18 rrcurveto
          -45 14 35 -15 31 hhcurveto
          77 110 127 55 41 hvcurveto
          -7 -30 -4 -31 -31 vvcurveto
          -52 26 -40 54 200 callsubr
          11 -40 callgsubr
        </CharString>
        <CharString name="dvB_SA">
          484 887 565 rmoveto
          13 -20 0 172 callsubr
          -44 -11 -49 21 callsubr
          -367 -350 rmoveto
          -5 -16 417 callsubr
          -62 -49 35 56 58 callsubr
          531 hlineto
          34 -26 20 357 callgsubr
          -38 -20 -33 -31 -23 7 -21 12 -18 hvcurveto
          -19 -28 -23 -21 -26 -15 -130 154 rcurveline
          -54 callsubr
          92 80 50 65 34 vhcurveto
          -100 28 54 -141 100 hhcurveto
          48 20 33 30 14 -3 15 -6 389 callsubr
          -85 425 callgsubr
          37 31 hvcurveto
          -27 50 61 120 callgsubr
          12 -102 callsubr
        </CharString>
        <CharString name="dvB_SHA">
          467 255 callgsubr
          -351 rmoveto
          -4 -16 417 callsubr
          -62 -49 35 56 170 callgsubr
          50 25 rmoveto
          -54 callsubr
          94 82 48 64 35 vhcurveto
          4 -1 5 -2 4 -1 rrcurveto
          -97 34 64 86 callgsubr
          -3 15 -7 125 callgsubr
          -73 379 callgsubr
          98 -77 141 -116 266 callsubr
          -69 -61 -87 -1 vhcurveto
          37 -12 -29 56 -49 hhcurveto
          -34 -21 -26 -29 -18 5 -17 9 -16 hvcurveto
          -19 -26 -24 -21 -26 -14 rrcurveto
          488 428 rmoveto
          -3 -5 -1 -78 callgsubr
          -27 12 -17 18 -16 vhcurveto
          28 -23 8 -9 -80 -155 132 callgsubr
          36 -2 49 -35 -5 callgsubr
        </CharString>
        <CharString name="dvB_TA">
          291 281 215 29 callsubr
          659 112 callgsubr
          -31 vlineto
          282 callsubr
          -90 -74 -43 -101 -5 hvcurveto
          -17 -26 -22 -19 -24 -15 -129 153 rcurveline
          -54 callsubr
          59 53 22 32 35 vhcurveto
          -87 36 63 -73 36 hhcurveto
          16 11 10 10 5 hvcurveto
          -73 callsubr
        </CharString>
        <CharString name="dvB_VA">
          301 281 215 29 callsubr
          667 -16 callgsubr
          -69 -78 -45 -97 -16 3 -16 4 -16 vhcurveto
          -17 -27 -23 -21 -25 -15 -129 153 rcurveline
          -54 callsubr
          79 69 40 50 30 vhcurveto
          -46 42 59 -33 63 199 callsubr
          -24 -4 -28 -27 vvcurveto
          -50 20 -51 63 200 callsubr
          11 -95 callsubr
        </CharString>
        <CharString name="dvB_YA">
          346 743 -101 callsubr
          -14 34 -18 27 vhcurveto
          -318 -350 258 callsubr
          162 297 rmoveto
          0 -6 vlineto
          -370 118 callgsubr
          368 0 8 225 callgsubr
          -13 3 -14 6 -14 vhcurveto
          -18 -29 -23 -21 -26 -16 86 callsubr
          75 47 57 24 vhcurveto
          -45 47 67 -34 68 hhcurveto
          57 43 18 25 33 hvcurveto
          -5 -29 -4 -31 -26 vvcurveto
          -54 17 -52 63 -101 callgsubr
        </CharString>
        <CharString name="dvC">
          -184 480 111 callsubr
          -459 hlineto
          -90 callsubr
          330 -197 rmoveto
          -2 callsubr
          -93 101 -107 120 103 82 69 65 27 -12 31 -39 17 vhcurveto
          344 callsubr
        </CharString>
        <CharString name="dvCA">
          40 -78 -42 callgsubr
          421 363 callgsubr
          -56 -1 393 callsubr
          -78 -30 -64 -33 -54 hhcurveto
          -51 -42 30 47 -8 callgsubr
          -93 101 -107 120 43 44 16 30 28 vhcurveto
          -4 -24 -3 -26 -25 vvcurveto
          -49 17 -48 63 200 callsubr
          10 vhcurveto
          -10 16 -3 46 36 119 5 -100 callsubr
        </CharString>
        <CharString name="dvCH">
          72 727 565 rmoveto
          -107 callsubr
          -684 hlineto
          197 callgsubr
          95 -65 105 -103 299 callgsubr
          vhcurveto
          182 callgsubr
          endchar
        </CharString>
        <CharString name="dvCHA">
          74 430 565 rmoveto
          10 305 callgsubr
          -8 8 -16 388 callgsubr
          11 364 callgsubr
          -19 callgsubr
          108 166 77 -36 77 -61 31 vhcurveto
          -3 334 callsubr
          218 -105 callgsubr
        </CharString>
        <CharString name="dvCH_R">
          72 340 6 50 callsubr
          387 559 rmoveto
          -107 callsubr
          -684 hlineto
          197 callgsubr
          95 -65 105 -103 299 callgsubr
          vhcurveto
          182 callgsubr
          endchar
        </CharString>
        <CharString name="dvCH_RA">
          72 340 6 rmoveto
          252 callgsubr
          32 -12 hvcurveto
          75 72 66 43 26 hhcurveto
          44 114 -109 -7 6 hvcurveto
          18 7 10 13 15 144 callsubr
          vhcurveto
          90 559 rmoveto
          10 305 callgsubr
          -8 8 -16 388 callgsubr
          11 364 callgsubr
          -19 callgsubr
          108 166 77 -36 77 -61 31 vhcurveto
          -3 334 callsubr
          218 -105 callgsubr
        </CharString>
        <CharString name="dvCH_R_YA">
          645 345 6 rmoveto
          252 callgsubr
          32 -12 hvcurveto
          75 72 67 43 26 hhcurveto
          43 114 -109 -7 6 hvcurveto
          18 7 10 13 15 144 callsubr
          vhcurveto
          699 559 rmoveto
          14 4 callsubr
          -76 -1 -64 -1 -58 vhcurveto
          -71 -38 -78 -30 198 callgsubr
          -74 -74 -17 -24 -52 vhcurveto
          32 -28 -39 20 -45 hhcurveto
          299 callgsubr
          hvcurveto
          9 -15 4 -19 -19 vvcurveto
          -129 -122 -92 -19 callgsubr
          107 163 23 -4 23 -7 22 vhcurveto
          20 61 71 15 71 hhcurveto
          27 289 callgsubr
          64 47 30 37 34 vhcurveto
          -4 -24 -2 -26 -16 vvcurveto
          -45 17 -41 57 28 callgsubr
        </CharString>
        <CharString name="dvCH_YA">
          645 1044 232 callgsubr
          -72 -70 -16 -22 -52 vhcurveto
          -13 16 -16 13 -18 9 -3 334 callsubr
          -79 hmoveto
          10 -13 5 -23 1 -25 rrcurveto
          -46 -17 -24 -53 -47 vvcurveto
          -72 45 -61 36 8 8 5 5 2 vhcurveto
          -6 7 -14 18 41 335 callgsubr
          11 364 callgsubr
          -19 callgsubr
          108 166 22 -3 22 -5 21 vhcurveto
          19 59 71 15 70 hhcurveto
          27 289 callgsubr
          64 47 30 37 34 vhcurveto
          -4 -24 -2 -26 -16 vvcurveto
          -45 17 -41 57 28 callgsubr
        </CharString>
        <CharString name="dvC_CA">
          375 413 368 rmoveto
          19 21 3 5 20 hvcurveto
          -11 -17 -4 -19 -20 vvcurveto
          -11 1 -11 3 -11 vhcurveto
          -52 -41 -62 -26 -51 hhcurveto
          -50 -43 325 callgsubr
          -394 294 rmoveto
          -2 -5 -2 -71 callgsubr
          747 216 callsubr
          -577 hlineto
          -3 -5 -2 -10 -7 vvcurveto
          -58 50 -17 42 17 21 4 5 20 vhcurveto
          -11 -17 -4 -19 -20 vvcurveto
          -93 101 -107 120 70 60 32 41 32 vhcurveto
          -43 41 58 -30 64 hhcurveto
          43 44 16 31 28 hvcurveto
          -5 -24 -3 -26 -26 vvcurveto
          -49 18 -48 62 200 callsubr
          11 -95 callsubr
        </CharString>
        <CharString name="dvC_CHA">
          469 826 148 callsubr
          -42 25 -46 -29 -24 -6 -10 -20 hvcurveto
          -7 17 -4 18 19 vvcurveto
          45 21 43 45 24 vhcurveto
          -688 97 rmoveto
          -90 callsubr
          395 hlineto
          19 19 1 2 20 hvcurveto
          -16 -25 -6 -28 -27 vvcurveto
          -47 19 -46 31 -35 vhcurveto
          -61 -61 -36 -90 -101 hhcurveto
          -50 -41 30 47 -8 callgsubr
          -93 100 -107 120 56 44 25 32 30 vhcurveto
          -84 48 110 -56 106 hhcurveto
          167 119 108 166 78 -35 76 -62 31 hvcurveto
          -2 334 callsubr
          217 -105 callgsubr
        </CharString>
        <CharString name="dvC_CH_VA">
          453 811 293 callgsubr
          -54 -16 -29 -57 -52 vvcurveto
          -88 45 -46 19 -90 vhcurveto
          -19 -39 -44 -11 -46 hhcurveto
          -81 -67 40 66 33 18 24 23 15 hvcurveto
          -5 16 17 -3 17 hhcurveto
          35 38 18 37 39 -43 24 -46 -26 -21 -6 -9 -19 hvcurveto
          -7 17 -4 19 19 vvcurveto
          45 21 43 46 24 vhcurveto
          344 -213 rmoveto
          -62 -28 -55 -44 -39 vhcurveto
          -22 42 -20 40 56 vvcurveto
          48 26 39 37 35 16 -35 -34 vhcurveto
          -123 -373 rmoveto
          -64 -28 -53 -45 -64 hhcurveto
          -46 -39 32 44 64 64 24 80 3 hvcurveto
          31 1 28 4 27 8 rrcurveto
          -22 0 -27 -22 vvcurveto
          -895 683 rmoveto
          -90 callsubr
          362 hlineto
          29 24 1 2 23 hvcurveto
          -16 -25 -6 -28 -27 vvcurveto
          -48 20 -47 31 -35 vhcurveto
          -60 -56 -35 -89 -96 hhcurveto
          -49 -39 31 46 -8 callgsubr
          -92 98 -106 117 50 43 23 32 28 vhcurveto
          19 -34 30 -29 38 -20 rrcurveto
          -32 -21 -22 -36 -50 vvcurveto
          -89 101 -115 113 39 40 13 27 28 vhcurveto
          -4 -18 -2 -19 -19 vvcurveto
          -55 19 -52 61 8 11 1 5 9 vhcurveto
          -8 15 -3 43 33 93 4 80 91 vvcurveto
          26 -3 23 -4 21 vhcurveto
          68 47 39 75 98 vvcurveto
          70 -35 80 -62 33 vhcurveto
          -2 27 -7 28 -20 16 rrcurveto
          217 -84 callsubr
        </CharString>
        <CharString name="dvC_MA">
          423 826 161 callgsubr
          -699 97 rmoveto
          -90 callsubr
          511 278 callsubr
          -18 -1 -16 vhcurveto
          -45 -3 -20 -12 -20 -34 rrcurveto
          -56 -34 -38 -64 -84 hhcurveto
          -51 -42 30 47 -8 callgsubr
          -93 101 -107 120 72 63 44 51 27 vhcurveto
          -20 22 26 -13 25 228 callgsubr
          188 hlineto
          -2 -56 -1 -47 -49 vvcurveto
          -42 3 -89 85 9 13 1 5 12 vhcurveto
          -10 16 -3 46 36 119 5 -100 callsubr
        </CharString>
        <CharString name="dvC_NA">
          41 -78 -42 callgsubr
          421 363 callgsubr
          -56 -1 393 callsubr
          -78 -30 -64 -33 -54 hhcurveto
          -51 -42 30 47 -8 callgsubr
          -71 59 -78 79 -23 vhcurveto
          -80 -37 -53 -37 -36 vvcurveto
          -50 69 402 callsubr
          18 -7 20 -12 26 vhcurveto
          79 47 58 28 33 36 rrcurveto
          -6 -27 -3 -30 -29 vvcurveto
          -49 17 -48 63 200 callsubr
          10 vhcurveto
          -10 -38 callsubr
        </CharString>
        <CharString name="dvC_R">
          -184 480 111 callsubr
          -459 hlineto
          -90 callsubr
          330 -197 rmoveto
          -2 callsubr
          -75 66 -81 84 -18 vhcurveto
          -62 -30 -67 -25 -56 -11 rrcurveto
          -43 3 33 -33 48 hhcurveto
          88 268 152 106 24 -13 27 -37 16 hvcurveto
          344 callsubr
        </CharString>
        <CharString name="dvC_RA">
          41 -78 -42 callgsubr
          421 363 callgsubr
          -56 -1 393 callsubr
          -78 -30 -64 -33 -54 hhcurveto
          -51 -42 30 47 -8 callgsubr
          -75 66 -81 84 -18 vhcurveto
          -62 -30 -67 -25 -56 -11 rrcurveto
          -45 3 35 -34 50 hhcurveto
          65 153 98 76 66 hvcurveto
          -5 -27 -3 -29 -28 vvcurveto
          -49 17 -48 63 200 callsubr
          10 vhcurveto
          -10 -38 callsubr
        </CharString>
        <CharString name="dvC_YA">
          417 815 30 callgsubr
          -749 97 rmoveto
          -90 callsubr
          578 164 callsubr
          -78 -100 -23 -42 -49 vhcurveto
          -48 -43 -9 -115 -116 hhcurveto
          -51 -40 32 45 -8 callgsubr
          -93 99 -106 118 84 61 53 58 25 vhcurveto
          -49 48 70 -40 74 hhcurveto
          57 44 18 25 32 hvcurveto
          -5 -28 -4 -32 -61 callgsubr
        </CharString>
        <CharString name="dvCandrabindu">
          -149 234 callgsubr
          -172 12 149 callsubr
        </CharString>
        <CharString name="dvD">
          -128 244 -28 -55 callsubr
          283 593 rmoveto
          -107 callsubr
          -485 hlineto
          -90 callsubr
          255 283 callgsubr
          -78 -275 16 -190 vvcurveto
          -115 134 -109 133 17 16 2 3 16 vhcurveto
          -53 24 46 -48 57 hhcurveto
          49 24 32 32 29 -15 24 -21 17 hvcurveto
          -21 -13 -18 -14 -24 hhcurveto
          -21 -18 10 13 -14 hvcurveto
          28 19 18 28 41 vvcurveto
          47 -36 48 -46 -39 -29 -30 -40 -15 3 -14 5 -13 vhcurveto
          -8 -18 -21 -3 -22 hhcurveto
          -59 382 callgsubr
          -15 25 -18 18 vhcurveto
          endchar
        </CharString>
        <CharString name="dvDA">
          -122 -57 -42 callgsubr
          255 283 callgsubr
          -78 -275 16 -190 vvcurveto
          -115 134 -109 133 347 callgsubr
          vhcurveto
          -60 callsubr
        </CharString>
        <CharString name="dvDA_mvR">
          -134 -64 -98 callsubr
          239 398 callsubr
          -24 -24 1 -18 hhcurveto
          -93 -45 -47 -63 -35 16 -37 26 -32 hvcurveto
          -27 -22 -18 -31 -39 vvcurveto
          -107 118 -78 115 100 74 49 62 38 -29 31 -34 6 vhcurveto
          -65 -26 -67 -35 -71 hhcurveto
          -45 -43 25 42 25 14 15 18 10 hvcurveto
          -6 15 17 -4 16 hhcurveto
          36 39 19 39 40 -43 24 -47 -20 -20 -3 -6 -19 hvcurveto
          -5 10 -3 11 11 vvcurveto
          32 21 27 56 vhcurveto
          18 26 -1 17 hhcurveto
          79 30 41 40 31 -15 33 -28 26 91 callsubr
        </CharString>
        <CharString name="dvDD">
          -88 262 -32 -55 callsubr
          -319 694 -43 callgsubr
        </CharString>
        <CharString name="dvDDA">
          -88 -57 662 -43 callgsubr
        </CharString>
        <CharString name="dvDDH">
          -106 238 -18 -55 callsubr
          -307 680 356 callsubr
          10 -9 7 -11 -10 -75 -276 9 -204 -58 callgsubr
        </CharString>
        <CharString name="dvDDHA">
          -106 -69 662 356 callsubr
          10 -9 7 -11 -10 -75 -276 9 -204 -58 callgsubr
        </CharString>
        <CharString name="dvDDH_DDHA">
          -93 -72 callsubr
          252 hlineto
          9 -8 7 -10 -10 -62 -276 8 -165 vvcurveto
          -85 68 -79 83 -41 vhcurveto
          -76 -24 -75 -50 -87 vvcurveto
          -123 146 -108 127 112 68 55 71 87 -79 67 -78 -50 -53 -29 -56 -41 30 -27 31 6 9 1 3 7 vhcurveto
          -2 15 0 13 4 12 rrcurveto
          22 6 17 15 23 hhcurveto
          23 20 -16 -28 -42 -49 -43 -79 -76 -70 47 72 hvcurveto
          170 360 -56 188 vvcurveto
          79 -80 65 -75 -50 -53 -29 -55 -42 30 -27 30 7 9 1 4 7 vhcurveto
          -3 10 -1 11 2 10 rrcurveto
          28 5 20 17 25 hhcurveto
          23 20 -16 -27 -43 -51 -45 -80 -75 -69 48 71 hvcurveto
          132 271 -28 121 vvcurveto
          26 -16 20 -16 13 vhcurveto
          203 -84 callsubr
        </CharString>
        <CharString name="dvDDH_R">
          -106 429 -215 5 callsubr
          -324 832 356 callsubr
          10 -9 7 -11 -10 -75 -276 9 -204 -58 callgsubr
        </CharString>
        <CharString name="dvDDH_RA">
          -106 247 -8 249 callgsubr
          43 114 -109 -7 6 hvcurveto
          18 7 10 13 15 144 callsubr
          vhcurveto
          -316 670 356 callsubr
          10 -9 7 -11 -10 -75 -276 9 -204 -58 callgsubr
        </CharString>
        <CharString name="dvDDH_VA">
          -106 316 hmoveto
          -45 -26 -45 -27 -58 hhcurveto
          -40 -36 24 42 57 57 38 126 369 callgsubr
          2 -8 0 -9 -9 vvcurveto
          -385 598 356 callsubr
          9 -8 7 -10 -11 -61 -276 11 -166 vvcurveto
          -68 42 -63 60 -42 vhcurveto
          -60 -18 -38 -41 -54 vvcurveto
          -86 91 -105 105 43 31 11 24 25 vhcurveto
          -4 -17 -3 -18 -17 vvcurveto
          -47 21 -38 49 7 11 1 4 10 vhcurveto
          -9 13 -3 39 30 69 4 57 75 vvcurveto
          24 -1 32 -16 21 vhcurveto
          56 23 31 44 48 vvcurveto
          78 -80 65 -75 -50 -52 -28 -55 -41 30 -25 29 7 9 1 3 6 vhcurveto
          -1 8 -1 11 2 9 rrcurveto
          30 5 21 15 23 hhcurveto
          23 20 -16 -27 -42 -50 -42 -79 -82 -63 47 71 hvcurveto
          134 271 -31 119 vvcurveto
          27 -16 20 -16 13 vhcurveto
          201 -105 callgsubr
        </CharString>
        <CharString name="dvDDH_YA">
          487 887 343 callgsubr
          -77 -26 -56 hhcurveto
          -28 -32 424 callgsubr
          -65 89 -103 -120 -95 -111 -59 -38 vhcurveto
          6 -18 -18 4 -19 hhcurveto
          -57 -46 -37 -55 -48 36 -28 35 7 9 1 3 6 hvcurveto
          -1 13 0 13 2 12 rrcurveto
          32 6 20 16 22 hhcurveto
          21 18 -16 -28 -49 -49 -51 -78 -76 -71 49 75 hvcurveto
          166 277 -28 126 vvcurveto
          33 -18 24 -18 16 vhcurveto
          -427 97 356 callsubr
          10 -9 7 -11 -10 -75 -276 9 -204 vvcurveto
          -136 154 -106 120 103 77 55 87 34 -12 31 -18 26 vhcurveto
          72 49 84 72 86 hhcurveto
          26 12 275 callsubr
          16 -45 60 9 13 1 5 12 -102 callsubr
        </CharString>
        <CharString name="dvDDHxA">
          -106 258 -32 -66 callsubr
          -327 694 356 callsubr
          10 -9 7 -11 -10 -75 -276 9 -204 -58 callgsubr
        </CharString>
        <CharString name="dvDD_DDA">
          -78 -66 callgsubr
          294 hlineto
          14 -10 8 -12 -13 vvcurveto
          -19 -16 -10 -30 vhcurveto
          -42 -31 1 -32 hhcurveto
          -86 -50 -38 -60 -86 89 -73 91 hvcurveto
          50 51 8 33 hhcurveto
          27 12 -12 -16 -35 397 callsubr
          -7 -21 vvcurveto
          -26 32 -37 56 -26 vhcurveto
          -28 -16 -16 -24 -31 vvcurveto
          -82 89 -68 90 vhcurveto
          50 51 7 33 hhcurveto
          27 12 -11 -17 -34 397 callsubr
          -8 -21 vvcurveto
          -54 141 -91 163 89 78 43 79 56 -58 89 -106 vhcurveto
          -43 -50 -7 -40 hhcurveto
          -31 -24 11 26 34 62 6 38 hvcurveto
          7 42 -1 36 hhcurveto
          89 78 42 79 57 -58 89 -106 hvcurveto
          -43 -50 -8 -40 hhcurveto
          -31 -24 12 25 34 62 7 316 callgsubr
          2 5 4 -87 callgsubr
          endchar
        </CharString>
        <CharString name="dvDD_DDHA">
          -70 -58 662 245 callsubr
          -37 -61 -86 90 -72 90 hvcurveto
          50 51 7 33 hhcurveto
          27 12 -11 -17 -35 -66 -20 -76 -98 -84 32 52 -51 hvcurveto
          -7 -4 -14 -7 -21 vvcurveto
          -34 55 -49 80 -30 vhcurveto
          -65 -25 -47 -42 -71 vvcurveto
          -125 154 -100 116 112 69 56 70 87 -79 67 -78 -51 -52 -29 -56 -42 30 -26 30 7 9 1 3 7 vhcurveto
          -3 13 0 11 2 11 rrcurveto
          26 6 19 16 23 hhcurveto
          23 21 -16 -28 -42 -50 -43 -78 -77 -70 47 72 92 117 29 112 18 hvcurveto
          68 10 62 37 67 vvcurveto
          57 -58 88 -107 vhcurveto
          -43 -50 -7 -40 hhcurveto
          -31 -24 11 25 35 62 6 316 callgsubr
          20 callsubr
          -66 6 -39 vhcurveto
          endchar
        </CharString>
        <CharString name="dvDD_R">
          -88 446 -232 5 callsubr
          -329 849 -43 callgsubr
        </CharString>
        <CharString name="dvDD_RA">
          -88 266 221 callgsubr
          -323 684 -43 callgsubr
        </CharString>
        <CharString name="dvDD_VA">
          -74 346 8 rmoveto
          -21 0 -18 -1 -18 vhcurveto
          -41 -31 -48 -21 -43 hhcurveto
          -44 -38 23 46 41 38 39 94 26 24 2 3 22 hvcurveto
          1 -10 0 -12 -13 vvcurveto
          -404 654 245 callsubr
          -41 -67 -94 90 -75 90 hvcurveto
          47 49 6 30 hhcurveto
          31 13 -13 -19 -41 -64 -25 -75 216 callgsubr
          -9 -3 -14 -7 -21 vvcurveto
          -31 41 -47 64 -32 vhcurveto
          -40 -18 -31 -35 -51 vvcurveto
          -79 88 -100 105 40 32 13 21 24 vhcurveto
          -4 -13 -2 -14 -14 vvcurveto
          -47 23 -40 51 9 10 1 4 9 vhcurveto
          -9 15 -3 41 32 61 4 46 58 vvcurveto
          28 -1 40 -22 22 vhcurveto
          54 21 29 37 51 vvcurveto
          84 -75 78 -94 vhcurveto
          -41 -48 -7 -39 hhcurveto
          -31 -24 11 26 38 62 348 callsubr
          31 -1 30 hhcurveto
          81 27 41 40 27 -14 30 -24 23 hvcurveto
          179 -84 callsubr
        </CharString>
        <CharString name="dvDD_YA">
          496 901 343 callgsubr
          -76 -26 -57 hhcurveto
          -27 -33 424 callgsubr
          -62 89 -98 -123 -98 -124 -60 -33 vhcurveto
          8 -20 -22 5 -23 -41 -47 -7 -37 hhcurveto
          -31 -25 13 28 43 61 348 callsubr
          17 390 callgsubr
          -11 30 -24 25 hvcurveto
          -453 -76 callsubr
          280 95 callsubr
          -30 vhcurveto
          1 -42 -20 0 377 callgsubr
          -42 -70 -97 90 -78 91 hvcurveto
          45 48 7 30 hhcurveto
          32 296 callgsubr
          164 349 callsubr
          34 -11 32 -19 28 vhcurveto
          79 48 85 82 89 hhcurveto
          22 9 275 callsubr
          17 -45 59 9 13 1 5 12 -102 callsubr
        </CharString>
        <CharString name="dvDDxA">
          -88 277 -65 -66 callsubr
          -334 727 -43 callgsubr
        </CharString>
        <CharString name="dvDH">
          -209 250 565 rmoveto
          3 callgsubr
          -84 98 -100 127 114 103 76 75 26 -16 30 -45 7 vhcurveto
          -77 -33 -80 -56 -87 45 callgsubr
          -27 -7 -14 -25 230 callsubr
          39 47 62 vhcurveto
          endchar
        </CharString>
        <CharString name="dvDHA">
          11 366 -37 callgsubr
          -221 hlineto
          -3 -5 -1 213 callgsubr
          15 1 1 18 vhcurveto
          -15 -23 -5 -25 -23 59 callgsubr
          -28 -34 vvcurveto
          -84 98 -100 127 61 47 21 34 35 vhcurveto
          -6 -26 -3 -28 -19 vvcurveto
          -49 19 -48 63 -17 callsubr
        </CharString>
        <CharString name="dvDH_MA">
          385 788 246 callgsubr
          -265 97 rmoveto
          -90 callsubr
          77 hlineto
          178 callgsubr
          -83 -5 6 -31 -39 -63 rrcurveto
          -65 -40 -56 -23 -44 hhcurveto
          -50 -42 27 43 29 14 20 18 14 hvcurveto
          -4 15 16 -2 15 49 callgsubr
          -83 99 -98 128 77 69 45 58 33 vhcurveto
          -19 21 26 -14 26 228 callgsubr
          187 hlineto
          -1 -56 -1 -47 -49 vvcurveto
          -42 3 -89 85 9 13 1 5 12 -102 callsubr
        </CharString>
        <CharString name="dvDH_NA">
          11 366 662 123 callgsubr
          27 -23 8 -9 -79 vvcurveto
          -69 370 callsubr
          -59 -32 -69 -42 -74 92 callgsubr
          -221 hlineto
          -3 -5 -1 213 callgsubr
          15 1 1 18 vhcurveto
          -15 -23 -5 -25 -23 59 callgsubr
          -28 -34 vvcurveto
          -64 54 -67 77 -25 vhcurveto
          -74 -26 -52 -35 -36 vvcurveto
          -51 68 -44 49 35 28 20 36 16 -5 19 -10 23 vhcurveto
          96 49 64 19 38 43 rrcurveto
          -6 -28 -3 -31 -20 vvcurveto
          -49 19 -48 63 -17 callsubr
        </CharString>
        <CharString name="dvDH_N_YA">
          39 callgsubr
          -61 51 -68 75 -32 vhcurveto
          -106 -24 -48 -35 -36 vvcurveto
          -50 69 -45 49 34 29 21 36 17 -7 20 -11 26 vhcurveto
          151 31 87 65 33 79 rrcurveto
          -51 46 74 -43 77 -20 callgsubr
        </CharString>
        <CharString name="dvDH_R">
          -209 250 565 rmoveto
          3 callgsubr
          -78 82 -86 106 -3 vhcurveto
          -66 -25 -74 -23 -56 -9 rrcurveto
          -43 1 30 -34 45 hhcurveto
          108 262 164 109 23 -15 29 -42 6 hvcurveto
          -77 -33 -80 -56 -87 78 callsubr
          endchar
        </CharString>
        <CharString name="dvDH_RA">
          11 366 -37 callgsubr
          -221 hlineto
          -3 -5 -1 213 callgsubr
          15 1 1 18 vhcurveto
          -15 -23 -5 -25 -23 59 callgsubr
          -28 -34 vvcurveto
          -73 73 -81 97 -12 vhcurveto
          -61 -26 -67 -23 -50 -9 rrcurveto
          -45 1 34 -35 52 hhcurveto
          58 149 82 107 84 hvcurveto
          -7 -30 -4 -35 -22 vvcurveto
          -49 19 -48 63 -17 callsubr
        </CharString>
        <CharString name="dvDH_VA">
          339 328 662 rmoveto
          -2 -5 -2 -71 callgsubr
          314 233 callsubr
          46 -43 31 -54 vhcurveto
          -213 53 -299 -184 hhcurveto
          -44 -37 29 42 29 14 20 18 14 hvcurveto
          -4 15 16 -2 15 49 callgsubr
          -84 96 -99 124 78 66 52 69 35 vhcurveto
          -58 41 68 -44 73 hhcurveto
          44 42 16 30 29 hvcurveto
          -7 -25 -4 -28 -27 vvcurveto
          -50 20 -51 64 7 17 1 5 10 -102 callsubr
        </CharString>
        <CharString name="dvDH_YA">
          39 callgsubr
          -83 95 -98 123 84 73 58 67 31 vhcurveto
          -51 46 74 -43 77 -20 callgsubr
        </CharString>
        <CharString name="dvD_BA">
          -38 311 412 callsubr
          20 hvcurveto
          -51 -21 -39 -34 -24 vhcurveto
          -91 106 rlineto
          1 9 9 0 10 hhcurveto
          20 -129 rmoveto
          -6 -17 -18 -3 -19 hhcurveto
          -48 -45 21 43 194 callgsubr
          -101 126 -74 83 106 69 67 80 7 37 callsubr
        </CharString>
        <CharString name="dvD_BHA">
          143 -60 -42 callgsubr
          485 hlineto
          9 -7 6 -8 -10 -67 -300 38 -173 vvcurveto
          -78 82 -79 98 -32 vhcurveto
          -34 -12 -35 -14 -38 -15 rrcurveto
          88 -52 -79 70 -82 hhcurveto
          -52 -44 -34 -52 -54 47 -54 50 17 16 6 12 9 hvcurveto
          -26 16 -16 30 27 vvcurveto
          19 12 16 20 32 37 -70 -59 26 vhcurveto
          -26 -14 -29 -21 -31 vvcurveto
          -53 70 -29 47 38 31 18 38 15 -3 16 -5 17 vhcurveto
          220 110 rlineto
          -60 28 45 -59 69 hhcurveto
          48 320 callsubr
          -19 hvcurveto
          28 19 19 30 40 vvcurveto
          44 -31 43 -42 -39 -30 -29 -40 -14 3 -13 6 -13 vhcurveto
          -8 -22 -25 -3 -26 hhcurveto
          -57 -73 22 65 hvcurveto
          122 299 -47 122 vvcurveto
          26 -14 21 -17 15 vhcurveto
          208 -105 callgsubr
        </CharString>
        <CharString name="dvD_B_RA">
          -38 311 129 rmoveto
          24 23 3 5 22 hvcurveto
          1 -53 -22 -41 -34 -25 -95 110 rcurveline
          1 9 9 0 10 hhcurveto
          24 -133 rmoveto
          -6 -17 -19 -3 -19 hhcurveto
          -49 -47 23 45 194 callgsubr
          -87 86 -57 80 vhcurveto
          7 hlineto
          -44 -21 -48 -17 -43 -13 rrcurveto
          -47 4 38 -14 31 hhcurveto
          72 184 100 131 21 hvcurveto
          -25 24 30 -17 37 hhcurveto
          48 28 328 callgsubr
          -21 178 callsubr
          -19 hvcurveto
          29 20 18 29 40 vvcurveto
          44 -30 43 -43 97 callgsubr
          207 -105 callgsubr
        </CharString>
        <CharString name="dvD_DA">
          -121 -64 -98 callsubr
          251 398 callsubr
          -28 -28 1 -22 hhcurveto
          -93 -45 -47 -63 -34 16 -36 26 -30 hvcurveto
          -27 -22 -18 -33 -39 vvcurveto
          -88 108 -103 137 30 32 5 12 27 vhcurveto
          4 -11 2 -12 -10 vvcurveto
          -37 -28 -24 -39 -5 vhcurveto
          -40 7 34 -25 33 hhcurveto
          53 28 37 47 40 -19 38 -28 33 hvcurveto
          18 19 12 25 31 vvcurveto
          44 -34 43 -42 -33 -26 -26 -32 -19 6 -17 11 -15 vhcurveto
          -16 -25 -29 -8 -36 hhcurveto
          -57 -54 28 51 25 15 18 19 12 hvcurveto
          -6 15 15 -3 16 hhcurveto
          36 38 20 39 39 -43 24 -46 -20 -21 -3 -7 -19 hvcurveto
          -4 9 -3 10 9 vvcurveto
          31 21 26 58 vhcurveto
          22 30 -1 21 hhcurveto
          77 30 42 41 31 -15 33 -28 26 hvcurveto
          176 -84 callsubr
        </CharString>
        <CharString name="dvD_DHA">
          111 461 129 186 callgsubr
          -53 39 -54 58 -38 vhcurveto
          -19 -56 -25 -41 -53 hhcurveto
          -31 -20 18 29 hvcurveto
          37 40 35 46 vvcurveto
          47 -34 28 -40 -5 -7 -1 -1 -4 vhcurveto
          3 -8 1 -9 -8 -41 -42 -32 -53 vvcurveto
          -85 85 -74 82 14 14 2 5 12 vhcurveto
          -84 8 110 -60 97 callsubr
        </CharString>
        <CharString name="dvD_GA">
          -53 -53 662 276 callsubr
          9 -8 5 -9 -10 -71 -319 37 -190 -96 117 -59 -84 vvcurveto
          -19 -4 -13 -8 -15 vhcurveto
          22 -13 -25 12 -20 hhcurveto
          -27 -22 -18 -34 -61 58 -44 53 55 44 40 73 40 -14 37 -22 32 hvcurveto
          -14 39 39 -8 33 hhcurveto
          22 21 2 5 20 hvcurveto
          -62 27 45 -63 71 hhcurveto
          49 403 callsubr
          -20 12 hvcurveto
          -13 -8 -18 -12 -25 hhcurveto
          -32 -28 21 24 -19 hvcurveto
          29 20 19 29 40 vvcurveto
          44 -30 42 -43 -38 -31 -28 -41 -13 3 -13 5 -12 vhcurveto
          -9 -24 -29 -4 -29 hhcurveto
          -60 -78 23 67 hvcurveto
          137 319 -49 132 vvcurveto
          27 -14 22 -16 15 vhcurveto
          189 -84 callsubr
        </CharString>
        <CharString name="dvD_GHA">
          111 284 186 rmoveto
          -19 -54 -25 -40 -52 hhcurveto
          -32 -22 18 30 32 27 27 49 48 26 -26 -22 35 hvcurveto
          177 -57 186 callgsubr
          -11 2 -12 4 -11 vhcurveto
          9 -22 -25 5 -18 hhcurveto
          -80 -37 -47 -48 -87 85 -75 83 14 13 2 5 12 hvcurveto
          -83 8 110 -61 97 callsubr
        </CharString>
        <CharString name="dvD_G_RA">
          -53 -53 662 142 callgsubr
          -82 93 -50 -80 vvcurveto
          -23 -4 -15 -10 -13 vhcurveto
          22 -13 -24 12 -21 hhcurveto
          -26 -23 -18 -34 -61 59 -44 52 55 44 40 73 37 -9 32 -14 28 hvcurveto
          32 -12 33 -8 30 -4 rrcurveto
          5 -19 1 -30 -28 -33 -1 -30 -28 vvcurveto
          -52 -41 -118 -80 -90 -21 rrcurveto
          -33 4 25 -27 37 hhcurveto
          34 85 40 77 84 hvcurveto
          -4 -16 -3 -23 -17 vvcurveto
          -37 13 -40 51 7 10 1 4 9 vhcurveto
          -9 13 -2 37 29 71 3 75 71 vvcurveto
          27 0 37 -20 23 vhcurveto
          10 2 10 2 10 3 rrcurveto
          -62 28 45 -62 70 hhcurveto
          49 403 callsubr
          -21 12 hvcurveto
          -13 -7 -19 -13 -24 hhcurveto
          -34 -28 21 25 -19 hvcurveto
          28 20 17 30 37 vvcurveto
          44 -31 43 -42 97 callgsubr
          189 -84 callsubr
        </CharString>
        <CharString name="dvD_MA">
          115 525 565 rmoveto
          12 -19 0 -39 -34 vvcurveto
          -120 -2 -88 -1 -76 vhcurveto
          -44 2 -48 2 -41 1 rrcurveto
          81 -27 -69 60 -78 -32 -23 -11 -26 hhcurveto
          -26 -20 11 27 41 62 4 37 hvcurveto
          30 31 -1 31 hhcurveto
          77 30 40 40 27 -13 29 -24 23 hvcurveto
          -427 -76 callsubr
          252 hlineto
          15 -11 8 -13 -13 vvcurveto
          -21 -16 -11 -30 vhcurveto
          -42 -31 1 377 callgsubr
          -38 -63 -88 81 -72 89 hvcurveto
          32 25 14 30 hhcurveto
          26 7 -21 -35 2 hvcurveto
          -40 -2 -40 -13 -44 vvcurveto
          -50 66 -62 47 33 24 25 52 5 vhcurveto
          122 -35 hlineto
          -40 2 -85 81 9 12 1 5 12 vhcurveto
          -10 16 -3 43 35 139 5 144 140 vvcurveto
          33 -2 46 -31 23 343 callsubr
        </CharString>
        <CharString name="dvD_NA">
          -118 -57 -42 callgsubr
          255 283 callgsubr
          -73 -275 14 -179 vvcurveto
          -102 101 -93 121 -9 vhcurveto
          -91 -40 -67 -42 -40 387 callsubr
          36 17 -6 21 -12 25 vhcurveto
          47 30 41 28 32 29 rrcurveto
          18 -19 10 -24 -21 vvcurveto
          -27 -16 -25 -33 -7 vhcurveto
          -31 13 30 -15 30 hhcurveto
          45 29 35 43 55 -43 48 -45 29 hvcurveto
          17 24 10 24 27 vvcurveto
          42 -26 43 -46 -37 -29 -29 -39 -18 6 -17 8 -15 vhcurveto
          -8 -21 -25 -3 -24 hhcurveto
          -60 -63 33 67 hvcurveto
          141 276 -31 127 363 callsubr
          147 -105 callgsubr
        </CharString>
        <CharString name="dvD_R">
          -115 268 -89 -55 callsubr
          -325 751 rmoveto
          -90 callsubr
          255 283 callgsubr
          -73 -275 14 -179 2 callsubr
        </CharString>
        <CharString name="dvD_RA">
          -115 -57 -42 callgsubr
          255 283 callgsubr
          -73 -275 14 -179 2 callsubr
        </CharString>
        <CharString name="dvD_VA">
          -38 311 304 callgsubr
          -311 533 262 callsubr
          56 -38 vhcurveto
          -44 -17 -32 -33 -49 vvcurveto
          -99 123 -73 81 106 68 63 75 8 37 callsubr
        </CharString>
        <CharString name="dvD_YA">
          16 419 148 callgsubr
          -61 -1 -54 -1 -49 vhcurveto
          -83 -35 -71 -78 -98 hhcurveto
          -45 -36 22 37 22 14 16 19 11 hvcurveto
          -8 18 19 -6 21 hhcurveto
          39 37 22 37 42 -46 24 -47 -24 -24 -3 -7 -21 hvcurveto
          -3 7 -2 7 7 65 148 -29 93 vvcurveto
          24 -13 22 -14 17 vhcurveto
          -331 -76 callsubr
          164 hlineto
          5 -5 5 -7 -7 -42 -151 22 -111 vvcurveto
          -36 19 -30 20 -23 vhcurveto
          -28 -21 -17 -30 -37 vvcurveto
          -79 101 -94 131 65 49 25 40 37 vhcurveto
          -2 -16 -1 -16 -16 vvcurveto
          -54 21 -48 61 9 13 1 5 13 vhcurveto
          -10 16 -4 46 36 119 5 136 117 vvcurveto
          -67 callgsubr
          164 -16 callsubr
        </CharString>
        <CharString name="dvE">
          -31 -72 callsubr
          28 265 callsubr
          -57 -2 -47 -43 -176 349 -29 -106 vvcurveto
          -27 -22 -16 -34 vhcurveto
          -2 16 -63 70 50 27 38 42 vhcurveto
          166 -347 14 158 49 2 47 46 vvcurveto
          -67 callgsubr
          233 hlineto
          17 -24 21 -40 -58 vvcurveto
          -65 -43 -29 -47 -13 -13 2 4 -12 vhcurveto
          -58 3 48 -37 55 hhcurveto
          79 34 64 67 51 -18 65 -40 58 hvcurveto
          168 -84 callsubr
        </CharString>
        <CharString name="dvEcandra">
          -31 310 143 callsubr
          -376 -91 -104 callgsubr
          28 265 callsubr
          -57 -2 -47 -43 -176 349 -29 -106 vvcurveto
          -27 -22 -16 -34 vhcurveto
          -2 16 -63 70 50 27 38 42 vhcurveto
          166 -347 14 158 49 2 47 46 vvcurveto
          -67 callgsubr
          233 hlineto
          17 -24 21 -40 -58 vvcurveto
          -65 -43 -29 -47 -13 -13 2 4 -12 vhcurveto
          -58 3 48 -37 55 hhcurveto
          79 34 64 67 51 -18 65 -40 58 hvcurveto
          168 -84 callsubr
        </CharString>
        <CharString name="dvEight">
          -125 392 249 rmoveto
          -92 -47 -71 -31 -52 hhcurveto
          -58 -39 35 55 59 51 66 37 43 hvcurveto
          95 115 70 57 61 vvcurveto
          32 -20 26 -35 10 vhcurveto
          0 -111 -134 -112 -124 vhcurveto
          -47 -54 -23 -58 -55 vvcurveto
          -122 109 -98 129 124 55 74 58 32 -19 31 -36 14 vhcurveto
          endchar
        </CharString>
        <CharString name="dvEyelash">
          -319 -60 -42 callgsubr
          301 -107 callgsubr
          126 -236 rmoveto
          -35 -38 -69 -26 -70 hhcurveto
          -60 -58 17 29 -37 hvcurveto
          -10 -6 -7 -12 -13 vvcurveto
          -50 108 -61 110 103 60 43 53 21 -9 24 -23 16 vhcurveto
          endchar
        </CharString>
        <CharString name="dvEyelash_HA">
          43 -66 -42 callgsubr
          445 115 callgsubr
          -28 hhcurveto
          -101 -39 -52 -61 hvcurveto
          -9 vlineto
          -7 -26 -28 -4 -29 hhcurveto
          -62 -59 15 29 -40 hvcurveto
          -11 -6 -7 -12 -14 vvcurveto
          -48 110 -59 111 28 28 3 7 27 vhcurveto
          4 -5 5 -5 4 -6 rrcurveto
          -29 -28 -18 -40 -48 vvcurveto
          -134 133 -106 144 43 24 18 25 6 -2 10 -3 7 vhcurveto
          -3 -16 -16 -2 -16 hhcurveto
          -96 -96 312 callgsubr
          209 callgsubr
          hvcurveto
          -44 5 37 -21 37 hhcurveto
          51 38 40 53 76 -84 94 -117 -32 -31 -7 -12 -26 hvcurveto
          -9 14 -6 15 16 vvcurveto
          30 20 29 53 vhcurveto
          29 27 -1 30 hhcurveto
          68 282 callgsubr
          -28 27 hvcurveto
          177 -16 callsubr
        </CharString>
        <CharString name="dvEyelash_YA">
          199 596 565 360 callgsubr
          -48 -1 -45 vhcurveto
          -57 -37 -78 -25 -23 callgsubr
          27 107 vvcurveto
          39 -13 34 -19 27 vhcurveto
          -512 97 rmoveto
          -90 callsubr
          341 412 callgsubr
          -76 -114 -63 -115 -62 -60 15 29 -40 vhcurveto
          -10 -6 -7 -12 -14 vvcurveto
          -48 108 -58 110 20 20 2 3 19 vhcurveto
          -66 15 104 -85 107 43 callsubr
        </CharString>
        <CharString name="dvFive">
          -60 540 60 rmoveto
          -3 -10 -12 -1 -10 hhcurveto
          -74 -32 57 67 -19 hvcurveto
          36 21 26 34 46 vvcurveto
          62 -40 38 -41 -37 -35 -29 -52 -17 3 -19 6 -16 vhcurveto
          -8 -19 -27 -5 -27 hhcurveto
          -62 -37 44 54 118 123 117 103 32 hvcurveto
          15 -15 47 -63 -89 -156 -141 -141 -127 117 -98 132 15 15 1 3 14 vhcurveto
          -94 26 45 -112 86 hhcurveto
          49 19 33 30 15 -3 17 -7 12 hvcurveto
          endchar
        </CharString>
        <CharString name="dvFour">
          -94 241 112 rmoveto
          -45 -35 33 48 43 42 41 52 42 hvcurveto
          40 -37 28 -41 -47 vvcurveto
          -47 -38 -35 -44 vhcurveto
          133 529 rmoveto
          3 -9 1 -8 -8 vvcurveto
          -72 -80 -54 -80 -60 vhcurveto
          -49 39 -39 35 35 vvcurveto
          27 23 13 13 3 vhcurveto
          43 -34 30 -40 -38 -38 -27 -54 -71 76 -55 76 -58 vhcurveto
          -56 -47 -45 -52 -67 vvcurveto
          -84 87 -101 122 81 73 59 84 69 -57 58 -64 52 vhcurveto
          79 60 81 64 76 vvcurveto
          44 -30 37 -49 vhcurveto
          endchar
        </CharString>
        <CharString name="dvG">
          -262 21 callgsubr
          213 -84 callsubr
        </CharString>
        <CharString name="dvGA">
          -13 21 callgsubr
          207 234 callsubr
          13 vhcurveto
          -11 -38 callsubr
        </CharString>
        <CharString name="dvGH">
          -214 429 565 rmoveto
          -107 callsubr
          -396 hlineto
          72 callgsubr
          -85 100 -101 125 118 99 82 72 26 -17 31 -45 7 vhcurveto
          -80 -34 -80 -57 -83 119 callsubr
          endchar
        </CharString>
        <CharString name="dvGHA">
          16 419 51 callgsubr
          -69 -1 -57 -1 -50 vhcurveto
          -59 -33 -69 -43 -71 hhcurveto
          -49 -41 27 46 -27 callsubr
          -85 100 -101 125 59 48 20 34 36 vhcurveto
          -6 -29 -2 -29 -16 vvcurveto
          -58 29 -37 53 9 13 1 5 12 -102 callsubr
        </CharString>
        <CharString name="dvGH_MA">
          386 789 161 callgsubr
          -87 hmoveto
          15 -22 0 251 callgsubr
          -87 -5 9 -34 -39 -62 rrcurveto
          -63 -40 -42 -24 -55 hhcurveto
          -49 -41 27 46 -27 callsubr
          -85 99 -101 126 80 66 54 54 30 vhcurveto
          -20 22 27 -15 26 228 callgsubr
          188 hlineto
          -2 -56 -1 -47 -49 vvcurveto
          -42 3 -89 85 9 13 1 5 12 vhcurveto
          -10 16 -3 46 36 119 5 -100 callsubr
        </CharString>
        <CharString name="dvGH_NA">
          16 419 51 callgsubr
          -69 -1 -58 -1 -50 vhcurveto
          -59 -31 -71 -42 -71 hhcurveto
          -49 -41 27 46 -27 callsubr
          -64 55 -68 79 -25 vhcurveto
          -76 -27 -53 -35 -36 vvcurveto
          -51 69 -44 49 34 29 20 36 16 -5 20 -10 23 vhcurveto
          95 48 64 19 37 42 rrcurveto
          -5 -31 -2 -33 -16 vvcurveto
          -58 29 -37 53 9 13 1 5 12 -102 callsubr
        </CharString>
        <CharString name="dvGH_R">
          -214 429 565 rmoveto
          -107 callsubr
          -396 hlineto
          72 callgsubr
          -78 80 -83 107 -5 vhcurveto
          -66 -26 -73 -25 -56 -9 rrcurveto
          -44 3 35 -35 48 hhcurveto
          66 160 86 91 83 hvcurveto
          33 35 21 35 29 vvcurveto
          24 -17 30 -44 7 vhcurveto
          -79 -33 -81 -58 -83 119 callsubr
          endchar
        </CharString>
        <CharString name="dvGH_RA">
          16 419 51 callgsubr
          -69 -1 -57 -1 -50 vhcurveto
          -59 -33 -69 -43 -71 hhcurveto
          -49 -41 27 46 -27 callsubr
          -78 80 -83 107 -5 vhcurveto
          -66 -26 -73 -25 -56 -9 rrcurveto
          -45 3 36 -35 51 hhcurveto
          57 146 82 98 83 hvcurveto
          -6 -31 -2 -32 -17 vvcurveto
          -58 29 -37 53 9 13 1 5 12 -102 callsubr
        </CharString>
        <CharString name="dvGH_YA">
          378 776 -24 callsubr
          -14 34 -18 27 vhcurveto
          -71 hmoveto
          130 callgsubr
          -52 -48 -31 -43 -29 vhcurveto
          -56 -37 -21 -61 -31 -49 rrcurveto
          -41 -26 -32 -31 -64 hhcurveto
          -48 -40 27 45 -27 callsubr
          -84 99 -101 125 84 66 61 65 28 vhcurveto
          -51 47 73 -42 76 11 callgsubr
        </CharString>
        <CharString name="dvG_BA">
          305 611 217 138 callsubr
          -550 297 99 callgsubr
          526 122 callsubr
          -125 148 76 callsubr
          -103 109 -124 125 370 callgsubr
          vhcurveto
          -7 -22 -4 -24 -24 vvcurveto
          -50 21 -51 63 200 callsubr
          11 -40 callgsubr
        </CharString>
        <CharString name="dvG_BHA">
          377 643 169 callgsubr
          -37 0 -33 -1 -30 vhcurveto
          -53 265 callgsubr
          -90 hhcurveto
          -25 -21 -8 -12 -15 hvcurveto
          17 -23 -34 2 -24 hhcurveto
          -362 -4 callsubr
          160 196 callsubr
          179 hlineto
          -2 -56 -1 -47 -49 vvcurveto
          -42 3 -89 85 3 callsubr
        </CharString>
        <CharString name="dvG_BH_YA">
          695 1093 -101 callsubr
          -14 34 -18 27 vhcurveto
          -285 97 rmoveto
          153 callgsubr
          vvcurveto
          -78 -110 -31 -34 -44 vhcurveto
          -38 3 -44 3 -46 1 rrcurveto
          159 -6 -83 128 -90 hhcurveto
          -26 -21 -8 -14 -16 hvcurveto
          19 -23 -35 2 -25 hhcurveto
          -362 -4 callsubr
          164 196 callsubr
          122 hlineto
          8 8 0 1 6 hvcurveto
          -67 41 92 -68 96 hhcurveto
          57 43 18 25 33 hvcurveto
          -5 -29 -4 -31 -26 vvcurveto
          -54 17 -52 63 -101 callgsubr
        </CharString>
        <CharString name="dvG_DA">
          222 -54 662 99 callgsubr
          448 283 callgsubr
          -78 -275 16 -190 vvcurveto
          -115 134 -109 133 347 callgsubr
          vhcurveto
          -60 callsubr
        </CharString>
        <CharString name="dvG_DHA">
          345 700 -37 callgsubr
          -551 -4 callsubr
          213 hlineto
          1 3 rlineto
          3 hlineto
          57 callsubr
          -84 98 -100 127 61 47 21 34 35 vhcurveto
          -6 -26 -3 -28 -19 vvcurveto
          -49 19 -48 63 -17 callsubr
        </CharString>
</ttFont>
